<svg xmlns="http://www.w3.org/2000/svg" width="92.827" height="70" viewBox="0 0 92.827 70">
    <path fill-rule="evenodd" d="M138.264 110.78v-.4h7.11v-6.71h-6.83l-7.11 7.11H127.6v-10.665h-3.555v-.4H128v10.665h3.275l7.11-7.11h7.39v7.506zm-14.22-7.506h.4v7.506h-14.5l-3.753-3.753 3.835-3.835.28.28-3.555 3.555 3.357 3.357h13.94zm7.11 11.341l-6.714 6.714v3.271h6.714zm.4-.676V125h-7.506v-3.835l6.83-6.83h-6.83v-.4zm7.192 3.753l3.472 3.472v3.835h-.394v-3.67l-3.358-3.358-3.357 3.357V125h-.4v-11.061h7.791zm2.8-3.357h-6.434v6.434zm-21.05.28l-6.714 6.714v3.271h6.714zm.4-.676V125h-7.506v-3.835l6.83-6.83h-6.83v-.4zm46.017-14.3l.28.28-3.357 3.357H181.2l3.753 3.753-3.753 3.751h-21.61v-10.665h-28.44v-.4h28.836v10.665h21.05l3.357-3.357-3.357-3.357H162.87zM110.22 125h-.4v-3.671l-3.357-3.357-3.357 3.357V125h-.4V99.718h14.624v.4h-14.22v20.654l6.912-6.912.28.28-3.555 3.555 3.473 3.48zm35.352-10.583l-.28-.28 11.142-11.142v4.23h-.394v-3.275zm31.8.2l-6.714 6.714v3.269h6.714zm.4-.676V125h-7.512v-3.835l6.83-6.83h-6.83v-.4zm-11.061.676l-6.714 6.714v3.269h6.703zm.4-.676V125h-7.506v-3.835l6.83-6.83h-6.83v-.4zm-16 3.836v10.78h-.394V117.89h-4.947v10.665h-43.056v-.4h42.661v-10.661h5.448l5.612-5.612v16.277h32v.4H156.04v-15.723zm30.21 7.223h-.4v-11.346l7.115 7.115v-20.654H170.26v-.4h18.171V125h-.4v-3.671l-6.714-6.714zm-60.832-25.282h.4v3.951h-3.951v-.4h3.555zm2.174-13.618L99.555 62.987v68.649h92.035V62.707h-22.712V86.1L145.77 62.986V86.1l-23.108-23.114zm69.323 45.937H99.159v-70l23.108 23.103V62.032l23.108 23.108V62.032l23.107 23.107V62.311h23.5v69.721z" transform="translate(-99.159 -62.032)"/>
</svg>
