<svg xmlns="http://www.w3.org/2000/svg" width="20" height="20" viewBox="0 0 20 20"><defs><style>.a{fill:#fff;}.b{opacity:0;}.c{fill:#e62b1e;}.d{fill:none;}</style></defs><path class="a" d="M20.4,5.88a7.307,7.307,0,0,0-.465-2.426A5.124,5.124,0,0,0,17.006.527,7.329,7.329,0,0,0,14.579.063C13.508.012,13.168,0,10.452,0S7.4.012,6.33.059A7.313,7.313,0,0,0,3.9.524,4.881,4.881,0,0,0,2.129,1.68,4.924,4.924,0,0,0,.976,3.45,7.326,7.326,0,0,0,.511,5.876C.46,6.947.449,7.287.449,10s.012,3.055.059,4.122A7.306,7.306,0,0,0,.972,16.55,5.123,5.123,0,0,0,3.9,19.477a7.33,7.33,0,0,0,2.427.465c1.067.047,1.407.059,4.123.059s3.056-.012,4.123-.059A7.309,7.309,0,0,0,17,19.477a5.116,5.116,0,0,0,2.927-2.926,7.331,7.331,0,0,0,.465-2.426c.047-1.067.059-1.407.059-4.122s0-3.055-.051-4.122Zm-1.8,8.166a5.481,5.481,0,0,1-.344,1.856,3.318,3.318,0,0,1-1.9,1.9,5.5,5.5,0,0,1-1.856.344c-1.055.047-1.372.059-4.041.059s-2.989-.012-4.041-.059A5.481,5.481,0,0,1,4.56,17.8a3.078,3.078,0,0,1-1.149-.746,3.109,3.109,0,0,1-.746-1.149,5.5,5.5,0,0,1-.344-1.856c-.047-1.055-.059-1.371-.059-4.04s.012-2.989.059-4.04a5.478,5.478,0,0,1,.344-1.856,3.04,3.04,0,0,1,.75-1.149,3.105,3.105,0,0,1,1.149-.746A5.507,5.507,0,0,1,6.42,1.875c1.055-.047,1.372-.059,4.041-.059s2.989.012,4.041.059a5.484,5.484,0,0,1,1.856.344,3.076,3.076,0,0,1,1.149.746,3.109,3.109,0,0,1,.746,1.149A5.5,5.5,0,0,1,18.6,5.97c.047,1.055.059,1.371.059,4.04s-.012,2.981-.059,4.036Zm0,0" transform="translate(-0.449 0)"/><path class="a" d="M130.088,124.5a5.138,5.138,0,1,0,5.139,5.138A5.14,5.14,0,0,0,130.088,124.5Zm0,8.47a3.333,3.333,0,1,1,3.333-3.333A3.334,3.334,0,0,1,130.088,132.97Zm0,0" transform="translate(-120.084 -119.636)"/><path class="a" d="M364.849,89.8a1.2,1.2,0,1,1-1.2-1.2A1.2,1.2,0,0,1,364.849,89.8Zm0,0" transform="translate(-348.304 -85.14)"/><g class="b"><path class="c" d="M20.4,5.88a7.307,7.307,0,0,0-.465-2.426A5.124,5.124,0,0,0,17.006.527,7.329,7.329,0,0,0,14.579.063C13.508.012,13.168,0,10.452,0S7.4.012,6.33.059A7.313,7.313,0,0,0,3.9.524,4.881,4.881,0,0,0,2.129,1.68,4.924,4.924,0,0,0,.976,3.45,7.326,7.326,0,0,0,.511,5.876C.46,6.947.449,7.287.449,10s.012,3.055.059,4.122A7.306,7.306,0,0,0,.972,16.55,5.123,5.123,0,0,0,3.9,19.477a7.33,7.33,0,0,0,2.427.465c1.067.047,1.407.059,4.123.059s3.056-.012,4.123-.059A7.309,7.309,0,0,0,17,19.477a5.116,5.116,0,0,0,2.927-2.926,7.331,7.331,0,0,0,.465-2.426c.047-1.067.059-1.407.059-4.122s0-3.055-.051-4.122Zm-1.8,8.166a5.481,5.481,0,0,1-.344,1.856,3.318,3.318,0,0,1-1.9,1.9,5.5,5.5,0,0,1-1.856.344c-1.055.047-1.372.059-4.041.059s-2.989-.012-4.041-.059A5.481,5.481,0,0,1,4.56,17.8a3.078,3.078,0,0,1-1.149-.746,3.109,3.109,0,0,1-.746-1.149,5.5,5.5,0,0,1-.344-1.856c-.047-1.055-.059-1.371-.059-4.04s.012-2.989.059-4.04a5.478,5.478,0,0,1,.344-1.856,3.04,3.04,0,0,1,.75-1.149,3.105,3.105,0,0,1,1.149-.746A5.507,5.507,0,0,1,6.42,1.875c1.055-.047,1.372-.059,4.041-.059s2.989.012,4.041.059a5.484,5.484,0,0,1,1.856.344,3.076,3.076,0,0,1,1.149.746,3.109,3.109,0,0,1,.746,1.149A5.5,5.5,0,0,1,18.6,5.97c.047,1.055.059,1.371.059,4.04s-.012,2.981-.059,4.036Zm0,0" transform="translate(-0.449 0)"/><path class="c" d="M130.088,124.5a5.138,5.138,0,1,0,5.139,5.138A5.14,5.14,0,0,0,130.088,124.5Zm0,8.47a3.333,3.333,0,1,1,3.333-3.333A3.334,3.334,0,0,1,130.088,132.97Zm0,0" transform="translate(-120.084 -119.636)"/><path class="c" d="M364.849,89.8a1.2,1.2,0,1,1-1.2-1.2A1.2,1.2,0,0,1,364.849,89.8Zm0,0" transform="translate(-348.304 -85.14)"/></g><rect class="d" width="20" height="20"/></svg>