<svg xmlns="http://www.w3.org/2000/svg" xmlns:xlink="http://www.w3.org/1999/xlink" width="68" height="69" viewBox="0 0 68 69"><defs><style>.a{fill:none;}.b{opacity:0.5;clip-path:url(#a);}.c{fill:#fff;}</style><clipPath id="a"><rect class="a" width="68" height="69"/></clipPath></defs><g class="b"><g transform="translate(-683 -591)"><circle class="c" cx="2" cy="2" r="2" transform="translate(683 591)"/></g><g transform="translate(-667 -591)"><circle class="c" cx="2" cy="2" r="2" transform="translate(683 591)"/></g><g transform="translate(-651 -591)"><circle class="c" cx="2" cy="2" r="2" transform="translate(683 591)"/></g><g transform="translate(-635 -591)"><circle class="c" cx="2" cy="2" r="2" transform="translate(683 591)"/></g><g transform="translate(-619 -591)"><circle class="c" cx="2" cy="2" r="2" transform="translate(683 591)"/></g><g transform="translate(-683 -575)"><circle class="c" cx="2" cy="2" r="2" transform="translate(683 591)"/></g><g transform="translate(-667 -575)"><circle class="c" cx="2" cy="2" r="2" transform="translate(683 591)"/></g><g transform="translate(-651 -575)"><circle class="c" cx="2" cy="2" r="2" transform="translate(683 591)"/></g><g transform="translate(-635 -575)"><circle class="c" cx="2" cy="2" r="2" transform="translate(683 591)"/></g><g transform="translate(-619 -575)"><circle class="c" cx="2" cy="2" r="2" transform="translate(683 591)"/></g><g transform="translate(-683 -559)"><circle class="c" cx="2" cy="2" r="2" transform="translate(683 591)"/></g><g transform="translate(-667 -559)"><circle class="c" cx="2" cy="2" r="2" transform="translate(683 591)"/></g><g transform="translate(-651 -559)"><circle class="c" cx="2" cy="2" r="2" transform="translate(683 591)"/></g><g transform="translate(-635 -559)"><circle class="c" cx="2" cy="2" r="2" transform="translate(683 591)"/></g><g transform="translate(-619 -559)"><circle class="c" cx="2" cy="2" r="2" transform="translate(683 591)"/></g><g transform="translate(-683 -543)"><circle class="c" cx="2" cy="2" r="2" transform="translate(683 591)"/></g><g transform="translate(-667 -543)"><circle class="c" cx="2" cy="2" r="2" transform="translate(683 591)"/></g><g transform="translate(-651 -543)"><circle class="c" cx="2" cy="2" r="2" transform="translate(683 591)"/></g><g transform="translate(-635 -543)"><circle class="c" cx="2" cy="2" r="2" transform="translate(683 591)"/></g><g transform="translate(-619 -543)"><circle class="c" cx="2" cy="2" r="2" transform="translate(683 591)"/></g><g transform="translate(-683 -527)"><circle class="c" cx="2" cy="2" r="2" transform="translate(683 591)"/></g><g transform="translate(-667 -527)"><circle class="c" cx="2" cy="2" r="2" transform="translate(683 591)"/></g><g transform="translate(-651 -527)"><circle class="c" cx="2" cy="2" r="2" transform="translate(683 591)"/></g><g transform="translate(-635 -527)"><circle class="c" cx="2" cy="2" r="2" transform="translate(683 591)"/></g><g transform="translate(-619 -527)"><circle class="c" cx="2" cy="2" r="2" transform="translate(683 591)"/></g></g></svg>