<svg xmlns="http://www.w3.org/2000/svg" width="32" height="32" viewBox="0 0 32 32">
  <g id="Group_183" data-name="Group 183" transform="translate(270 -59)">
    <rect id="Rectangle_65" data-name="Rectangle 65" width="32" height="32" transform="translate(-270 59)" fill="none"/>
    <g id="Group_182" data-name="Group 182" transform="translate(-268.751 60.041)">
      <g id="Group_46" data-name="Group 46" transform="translate(11.863 0.047)">
        <g id="Group_45" data-name="Group 45">
          <path id="Path_47" data-name="Path 47" d="M236.972,79.771h-9.787l-8.476,14.681h0l8.476,14.681h9.787L228.5,94.452Z" transform="translate(-218.708 -79.771)" fill="#e62b1e"/>
        </g>
      </g>
      <g id="Group_48" data-name="Group 48">
        <g id="Group_47" data-name="Group 47">
          <path id="Path_48" data-name="Path 48" d="M121.121,94.941a1.745,1.745,0,0,1-1.092-.448,1.477,1.477,0,0,1-1.056-.521.661.661,0,0,1-.189.069.646.646,0,0,1-.587-.224.161.161,0,0,1-.046-.127c.008-.139.183-.346.518-.648v-.006a.82.82,0,0,1-.293.092.475.475,0,0,1-.394-.144,2.933,2.933,0,0,1-.334-.395l-.038-.037a1.3,1.3,0,0,1-.422-.811.935.935,0,0,1-.218-.552.618.618,0,0,1-.071.009.424.424,0,0,1-.341-.123,1.536,1.536,0,0,1-.481-.828.539.539,0,0,1-.036-.222,1.282,1.282,0,0,1,.185-.55.2.2,0,0,1-.042-.067,2.507,2.507,0,0,1-.535-.422.655.655,0,0,1-.2-.529.947.947,0,0,1,.051-.241h0a1.033,1.033,0,0,1-.852-.337,1.584,1.584,0,0,1-.549-1.04q-.056-.052-.112-.108a.4.4,0,0,1-.116-.291l-.083-.08a.134.134,0,0,1-.038-.11c.009-.094.126-.225.355-.41l.052-.078-.022-.027a.652.652,0,0,1-.559-.228.817.817,0,0,1-.247-.435,3.357,3.357,0,0,1-.278-.251.2.2,0,0,1-.058-.155.439.439,0,0,1,.062-.189h0a1.623,1.623,0,0,1-.209-.178,1.249,1.249,0,0,1-.431-.885.176.176,0,0,1-.157-.054,1.126,1.126,0,0,0-.51-.688.8.8,0,0,1-.269-.685.827.827,0,0,1,.028-.131c-.152.048-.336-.038-.561-.263a.378.378,0,0,1-.1-.17l-.04-.038a.3.3,0,0,1-.1-.249.383.383,0,0,1,.081-.188,1.143,1.143,0,0,1-.184-.156.11.11,0,0,1-.028-.076c.005-.064.064-.118.253-.256a.8.8,0,0,1-.123-.508.6.6,0,0,0-.064-.341c-.094-.094-.135-.1-.145-.1-.032,0-.076.084-.111.148a.553.553,0,0,1-.368.336c-.236.04-.55-.125-.988-.519a.083.083,0,0,1,.111-.124c.386.348.672.508.849.479.122-.021.187-.139.249-.252s.119-.216.233-.232a.357.357,0,0,1,.286.142.641.641,0,0,1,.112.442.141.141,0,0,1,.06-.058c.063-.032.135-.016.232.054a.585.585,0,0,1,.186-.459.67.67,0,0,1,.6-.061.322.322,0,0,1,.093-.046c.156-.048.333.03.541.239a.382.382,0,0,1,.13.3.288.288,0,0,1,.063.194.343.343,0,0,1-.027.113c.1-.083.191-.163.28-.238l.015-.012c.108-.349.235-.579.443-.579.038,0,.154,0,.187.092.044.122-.09.249-.484.58-.028.094-.055.195-.081.3.167-.1.332-.2.487-.292s.293-.173.423-.254c.106-.3.2-.449.338-.422.1.021.164.066.175.134.018.107-.09.213-.353.383a.3.3,0,0,1,.1.032,1.384,1.384,0,0,1,.765-.545.709.709,0,0,1,.54.135.544.544,0,0,1,.406-.139.533.533,0,0,1,.3.14.708.708,0,0,1,.18-.068.672.672,0,0,1,.4.037.983.983,0,0,1,.111-.051,1.046,1.046,0,0,1,.754.02,1.784,1.784,0,0,1,.814-.023,1.454,1.454,0,0,1,.974.066q.137.055.25.114a.71.71,0,0,1,.453-.222c.2,0,.328.058.37.172s-.028.31-.214.55a.748.748,0,0,1,.126.331,3.726,3.726,0,0,1,.461.4,2.86,2.86,0,0,1,.2.215.3.3,0,0,1,.2.091,1.01,1.01,0,0,1,.311.807c0,.027,0,.055-.008.083a.27.27,0,0,1,.051.04.393.393,0,0,1,.118.318.638.638,0,0,1-.051.2q.061.055.124.118a.914.914,0,0,1,.21.315l.044-.012a.406.406,0,0,1,.379.138.183.183,0,0,1,.052.14.56.56,0,0,1-.114.269.563.563,0,0,1,.146-.034.381.381,0,0,1,.314.114,1.58,1.58,0,0,1,.591,1.39c0,.024-.01.048-.016.072a.345.345,0,0,1,.4.1.874.874,0,0,1,.294.656l.042.039a.2.2,0,0,1,.06.176c-.018.115-.135.24-.35.392l-.025.033a.546.546,0,0,1,.138-.032.363.363,0,0,1,.3.109.843.843,0,0,1,.254.538q.066.058.132.124a.291.291,0,0,1,.086.236.532.532,0,0,1-.08.22,1.922,1.922,0,0,1,.226.2.638.638,0,0,1,.062.071.294.294,0,0,1,.105-.029.16.16,0,0,1,.122.045.278.278,0,0,1,.088.249.426.426,0,0,1-.088.187.213.213,0,0,1-.066.082.451.451,0,0,1,.085.028.223.223,0,0,1,.119.066.6.6,0,0,1,.047.053.567.567,0,0,1,.156.422c0,.011,0,.023,0,.034a.9.9,0,0,1,.345.228,1.822,1.822,0,0,1,.134.149.256.256,0,0,1,.134.072.473.473,0,0,1,.071.09h.008a.139.139,0,0,1,.1.04.652.652,0,0,1,.205.373.693.693,0,0,1,.184.569.636.636,0,0,1-.028.107l.012.01a1.339,1.339,0,0,1,.408.3.791.791,0,0,1,.219.347.412.412,0,0,1,.182.115c.092.092-.011.216-.35.628-.1.12-.217.263-.336.417l-.013.048a9.213,9.213,0,0,1-.293.939,4.494,4.494,0,0,1,.6-.337l.013-.006.094-.18c.253-.483.4-.758.578-.784a.175.175,0,0,1,.156.055.4.4,0,0,1,.141.349.364.364,0,0,1-.033.1c-.006.171-.2.338-.423.532l-.058.05a4.521,4.521,0,0,1-.42.651.333.333,0,0,0,.08.116.094.094,0,0,0,.085.036.325.325,0,0,0,.169-.118.648.648,0,0,1,.2-.279c.063-.1.124-.209.175-.3.163-.289.239-.417.334-.43a.114.114,0,0,1,.1.032.225.225,0,0,1,.07.17.291.291,0,0,1-.036.124.211.211,0,0,1,.059.043,1.832,1.832,0,0,1,.288.385l.025.041.058.058a.084.084,0,0,1,.019.029c.056.059.1.1.123.131l0,0h0c.058.069.046.084.006.123s-.053.053-.123-.008h0l0,0c-.034-.03-.082-.078-.153-.149a.4.4,0,0,1-.05-.064c-.024-.026-.044-.046-.059-.064l0,0h0c-.038-.045-.046-.067-.034-.089a1.534,1.534,0,0,0-.2-.261,1.862,1.862,0,0,0-.061.26c-.049.261-.1.557-.3.616-.111.034-.234-.019-.378-.163l-.013-.014a.384.384,0,0,1-.191.1.26.26,0,0,1-.225-.083.555.555,0,0,1-.082-.1.641.641,0,0,1-.338.2.354.354,0,0,1-.272-.073.364.364,0,0,1-.263-.1.614.614,0,0,1-.282.176c-.245.065-.513-.053-.819-.359a1.073,1.073,0,0,1-.117-.137c-.144.308-.3.52-.5.568a.516.516,0,0,1-.481-.192.885.885,0,0,1-.163-.216.721.721,0,0,1-.376.248.674.674,0,0,1-.614-.25l-.01-.011a.408.408,0,0,1-.2.095.206.206,0,0,1-.1-.012,2.259,2.259,0,0,1-1.236.9A1.3,1.3,0,0,1,121.121,94.941Zm-.867-.486a1.375,1.375,0,0,0,1.1.3,1.827,1.827,0,0,0,.927-.585.828.828,0,0,1-.347.161.637.637,0,0,1-.421-.072,1.436,1.436,0,0,1-.467.182,1.191,1.191,0,0,1-.62-.05A1,1,0,0,1,120.254,94.454Zm-.547-.515a2.512,2.512,0,0,0,.179.2q.1.1.2.183c.023,0,.047-.007.07-.012l.056-.015a2.206,2.206,0,0,1-.488-.364Zm-.591-.063a1.543,1.543,0,0,0,.706.432l-.054-.053a2.651,2.651,0,0,1-.216-.243.339.339,0,0,1-.09.017.2.2,0,0,1-.16-.058q-.07-.07-.131-.141Zm1.491.392a1.016,1.016,0,0,0,.4,0,1.208,1.208,0,0,0,.342-.123,1.3,1.3,0,0,1-.1-.093.126.126,0,0,1-.037-.1c0-.093.106-.235.315-.452a.806.806,0,0,1,.009-.11c.086-.569.764-1.1,1.585-1.59.2-.406.39-.823.565-1.218-.2.121-.414.244-.63.371l-.128.075c-.11.163-.22.327-.327.488-.453.676-.874,1.306-1.246,1.766A3,3,0,0,1,120.607,94.268Zm-.744-.434a1.842,1.842,0,0,0,.544.371,1.482,1.482,0,0,0,.348-.3.683.683,0,0,1-.318.14.327.327,0,0,1-.275-.1.881.881,0,0,1-.163-.218Q119.928,93.786,119.863,93.834Zm4.329.206,0,0c.123.123.229.171.324.148.162-.039.307-.272.442-.592a.877.877,0,0,1-.5.458A.471.471,0,0,1,124.192,94.04Zm3.578.012a.056.056,0,0,0,.013.018c.091.091.168.135.211.121.095-.029.147-.3.181-.487.008-.042.015-.082.023-.119l-.11.1c-.048.042-.1.087-.149.131A2.257,2.257,0,0,1,127.77,94.053Zm-6.1.093a.464.464,0,0,0,.134.024q-.035-.039-.065-.078Zm3.472-.546a.734.734,0,0,0,.153.207c.257.257.479.364.659.316a.466.466,0,0,0,.219-.144c-.2-.374.187-.986.6-1.521.022-.081.044-.159.066-.234-.184.111-.394.218-.608.328a4.844,4.844,0,0,0-.906.54C125.268,93.272,125.208,93.444,125.145,93.6Zm-3.244.425q.04.047.087.094a.141.141,0,0,0,.07-.022A.452.452,0,0,1,121.9,94.024Zm5.228-.318a1.52,1.52,0,0,1-.352.412l.015,0a.574.574,0,0,0,.3-.211.388.388,0,0,1,0-.045A.454.454,0,0,1,127.129,93.706Zm-5.748.248a1.064,1.064,0,0,0,.124.1q.072-.049.142-.106a.933.933,0,0,1-.094-.228A.853.853,0,0,0,121.381,93.954Zm1.656-.132.006.006a.517.517,0,0,0,.461.2.621.621,0,0,0,.331-.246.366.366,0,0,1-.084-.252,2.017,2.017,0,0,1,.715-1.06l.083-.222c-.216.1-.429.208-.629.313A9.214,9.214,0,0,1,123.037,93.822Zm4.06-.386c-.283.146-.544.3-.567.445,0,.018-.011.07.064.151A1.373,1.373,0,0,0,127.1,93.435Zm-5.117.441a.287.287,0,0,0,.218.065.448.448,0,0,0,.08-.016q.059-.053.125-.118a.915.915,0,0,1-.136-.257A4.009,4.009,0,0,1,121.981,93.876Zm2.072-.111a.429.429,0,0,0,.369.132c.295-.067.54-.6.757-1.187a5.376,5.376,0,0,0-.834.5A3.825,3.825,0,0,1,124.053,93.765Zm-5.4-.479c-.213.2-.342.35-.33.416a.44.44,0,0,0,.54.141A.926.926,0,0,1,118.648,93.286Zm1.481.326a.676.676,0,0,0,.15.214.162.162,0,0,0,.141.052c.2-.02.481-.289.8-.688a12.735,12.735,0,0,0,.62-1.441A22.419,22.419,0,0,1,120.13,93.612Zm-.839.1q.06.07.13.14a.034.034,0,0,0,.025.009,1.863,1.863,0,0,1-.113-.2Zm3.48.1-.023.032a.36.36,0,0,0,.063-.041l-.011-.017Zm3.879-.9a1.475,1.475,0,0,0-.354.9A3.93,3.93,0,0,0,126.649,92.918Zm-7.832.273a.758.758,0,0,0,.185.566c.022-.017.045-.035.067-.055A1.5,1.5,0,0,1,118.817,93.191Zm3.469-.11c-.252.175-.421.343-.447.5a.25.25,0,0,0,.032.166,4.2,4.2,0,0,0,.364-.431.654.654,0,0,1,.009-.086A.728.728,0,0,1,122.285,93.082Zm-2.768.346a1.919,1.919,0,0,0,.229.29c.059-.044.124-.1.193-.158a.654.654,0,0,1-.009-.223c.075-.586.9-1.214,1.909-1.841l.168-.2c.061-.17.122-.341.182-.512.071-.2.141-.4.211-.592-.677.6-1.415,1.185-2.075,1.709A10.006,10.006,0,0,1,119.517,93.428Zm3.406.247.01.017c.052-.056.108-.125.167-.2Q123.011,93.588,122.924,93.674Zm-.522-.3a.616.616,0,0,0,.114.3c.071-.094.141-.2.211-.313a.761.761,0,0,1,.169-.292c.084-.154.168-.317.251-.487-.121.062-.24.125-.352.187C122.669,92.987,122.537,93.19,122.4,93.375Zm-3.45-.36a1.194,1.194,0,0,0,.235.567c.024-.027.048-.056.073-.086a1.433,1.433,0,0,1-.087-.529,1.132,1.132,0,0,1-.009-.131Zm8.409.287c-.039.073-.078.144-.118.214a2.416,2.416,0,0,1,.3-.309Zm-5.9-1.363c-.738.5-1.309.989-1.364,1.418a.545.545,0,0,0,0,.063C120.471,93.063,120.957,92.523,121.46,91.94Zm2.847.94a1.909,1.909,0,0,0-.356.511,1.25,1.25,0,0,1,.259-.28Q124.259,93,124.307,92.88Zm4.009.3a1.928,1.928,0,0,0-.1.164A.342.342,0,0,0,128.316,93.178Zm-5.338-1.085a2.824,2.824,0,0,0-1.25,1.218c.2-.195.463-.435.786-.731l.4-.367Zm-3.638.873a1.079,1.079,0,0,0,.089.3,9.166,9.166,0,0,0,.609-1.133c-.22.174-.442.352-.65.521q-.018.067-.03.135A1.268,1.268,0,0,0,119.34,92.966Zm8.6-.587h0c-.1.015-.292.384-.441.669.074-.039.146-.079.212-.119.163-.3.225-.4.307-.412h.022a.338.338,0,0,0-.088-.129C127.942,92.379,127.939,92.378,127.937,92.378Zm-9.834.488a.312.312,0,0,0,.26.094.694.694,0,0,0,.263-.09,1.013,1.013,0,0,1-.123.026A.888.888,0,0,1,118.1,92.867Zm6.5-.3c-.046.12-.091.238-.137.353a8.785,8.785,0,0,1,.793-.441l.078-.221c.058-.165.116-.327.174-.483l-.095.049-.076.067C125.1,92.107,124.842,92.34,124.607,92.569Zm.9-.026-.055.17-.032.1a7.412,7.412,0,0,1,.739-.411,6.771,6.771,0,0,0,.759-.427c.1-.3.2-.513.346-.584a.666.666,0,0,0-.169-.246l-.015-.014a.475.475,0,0,1,.008.19c-.074.461-.8.828-1.568,1.216Zm-7.73-.063a.828.828,0,0,0,.7.254,1.02,1.02,0,0,0,.341-.122l0-.017a1.846,1.846,0,0,1-1.247-.484A1.91,1.91,0,0,0,117.778,92.479Zm5.817-.119q-.064.136-.13.269l.036-.022.3-.351-.1.048Zm-1.494-.829c-.127.347-.256.688-.391,1.007.245-.346.5-.727.752-1.1l.134-.2C122.43,91.332,122.264,91.432,122.1,91.532Zm-4.608.283a1.8,1.8,0,0,0,1.394.608,3.354,3.354,0,0,1,1.253-1.279c.441-.682.876-1.5,1.286-2.265l.219-.409c-.48.278-1.006.538-1.523.783-.35,1.251-.756,2.264-1.444,2.454a1.319,1.319,0,0,1-1.184-.4c0,.014,0,.028-.007.042A1.4,1.4,0,0,0,117.493,91.814Zm8.367-.227c-.1.222-.191.475-.277.731.652-.331,1.287-.672,1.343-1.025a.441.441,0,0,0-.166-.379l-.038-.037h0A2.5,2.5,0,0,1,125.859,91.588Zm-6.5.554q-.067.078-.127.156.045-.043.09-.089Q119.342,92.175,119.362,92.142Zm4.9-.114-.165.26c.173-.087.354-.174.537-.261l.092-.243C124.573,91.866,124.417,91.948,124.26,92.028Zm-.809-.087c-.116.11-.232.218-.347.323.087-.056.179-.112.275-.167Zm1.314.207-.024.065.123-.112Zm-1.052-.044-.007.016.328-.163.02-.03C123.939,91.984,123.824,92.043,123.713,92.1Zm3.348-.025-.013.041.069-.084Zm-2.109-.423c-.035.088-.069.177-.1.268.161-.078.322-.156.476-.235.119-.106.24-.214.355-.32a3.472,3.472,0,0,1,.164-.33A5.512,5.512,0,0,1,124.953,91.655Zm-4.689-.258c-.135.179-.267.349-.4.508a4.21,4.21,0,0,0,.515-.608l-.054.042Zm3.7.13q-.069.165-.141.33c.136-.071.276-.14.417-.21l.145-.218.129-.195-.075.04Zm.524.184-.016.019.213-.115-.064.031Zm2.773-.1a.766.766,0,0,0-.069.118A.482.482,0,0,0,127.261,91.611Zm-3.328-1.167c-.174.4-.357.809-.552,1.215l.265-.149c.206-.452.408-.891.613-1.269Q124.1,90.341,123.934,90.444Zm3.512,1.118v.006a.489.489,0,0,1-.02.082.692.692,0,0,0,.045-.07Zm-6.825-.323-.146.333c.525-.417,1.087-.87,1.618-1.329l-.188.094c-.4.22-.794.449-1.145.687Q120.691,91.135,120.621,91.239Zm-3.082-.112a1.247,1.247,0,0,0,1.1.418c.582-.161.965-1.084,1.288-2.2l-.3.138c-.39.929-.809,1.64-1.346,1.759a.885.885,0,0,1-.716-.188C117.554,91.079,117.546,91.1,117.539,91.127Zm-.4.011a.715.715,0,0,0,.069.32,1.3,1.3,0,0,1,.1-.311l-.062-.06Q117.193,91.116,117.138,91.138ZM125,91.119l-.237.273.148-.073C124.939,91.251,124.969,91.184,125,91.119Zm1.019.159-.018.031a2.053,2.053,0,0,0,.541-.464.365.365,0,0,0-.073.01.429.429,0,0,0-.112.045A3.006,3.006,0,0,1,126.017,91.278Zm-2.146-1.921c-.4.455-.826.966-1.2,1.412l-.382.454c.172-.1.347-.206.522-.309a18.47,18.47,0,0,1,1.2-1.634Zm1.741-.1a5.462,5.462,0,0,1-1.417,1.954l.164-.087.349-.185a4.559,4.559,0,0,1,1.216-1.441l-.058-.061A.77.77,0,0,0,125.613,89.26Zm-.238,1.5a3.785,3.785,0,0,0-.231.438c.256-.13.5-.261.7-.392a1.434,1.434,0,0,0,.281-.377.529.529,0,0,0-.144-.067A5.4,5.4,0,0,1,125.375,90.765Zm-7.726.148a.723.723,0,0,0,.594.168c.435-.1.809-.7,1.155-1.492l-.034.016-.467.216A5.345,5.345,0,0,0,117.648,90.912Zm-1.309-.4a1.81,1.81,0,0,0,.338.443.26.26,0,0,0,.213.075.518.518,0,0,0,.09-.015,1.317,1.317,0,0,1,.135-.411,1.193,1.193,0,0,1-.122-.22.972.972,0,0,1-.421.164A.479.479,0,0,1,116.34,90.513Zm8.213-.45-.15.377c-.069.176-.141.357-.216.543a5.454,5.454,0,0,0,1.244-1.688,3.617,3.617,0,0,1-.863.744Zm-1.889-.1c-.107.288-.212.584-.317.879l-.033.092.229-.272c.34-.405.65-.773.929-1.1-.243.123-.5.25-.776.383Zm-5.372.855,0,.009a.1.1,0,0,0,0,.047l.033-.021,0,0Zm.092-.145.055.057.026.025.072-.055a2.8,2.8,0,0,1,.158-.263A1.715,1.715,0,0,0,117.384,90.673Zm6.933-1.485a13.735,13.735,0,0,0-1.171,1.53c.222-.13.444-.261.657-.39l.042-.095C124.023,89.826,124.178,89.477,124.317,89.188Zm2.157,1.381a.514.514,0,0,1,.176.056c0-.013.006-.026.008-.038a.455.455,0,0,0-.052-.294.819.819,0,0,1-.145.232A.212.212,0,0,1,126.474,90.569Zm-9.34-.282a.9.9,0,0,0,.074.155,2.763,2.763,0,0,1,.2-.272c-.034-.006-.068-.013-.1-.021C117.246,90.2,117.189,90.246,117.134,90.287Zm.474-.1c-.069.079-.131.157-.186.234a3.515,3.515,0,0,1,.391-.249A1.275,1.275,0,0,1,117.608,90.189Zm8.722.188.023.02a.526.526,0,0,0,.118-.237.312.312,0,0,0,0-.047l-.038-.04a.488.488,0,0,0-.069-.058.81.81,0,0,1-.005.229A.88.88,0,0,1,126.33,90.377ZM116.24,90.2a.314.314,0,0,0,.065.092.3.3,0,0,0,.254.093.86.86,0,0,0,.385-.163.8.8,0,0,1-.015-.213,2.639,2.639,0,0,1-.537-.379.948.948,0,0,0-.143.339A.758.758,0,0,0,116.24,90.2Zm4.632.049-.064.113.038-.054Zm.567-.5c-.1.207-.2.409-.3.6.43-.322.878-.64,1.311-.947l.351-.249c.372-.879.772-1.538,1.276-1.652a.719.719,0,0,1,.353.01,1.168,1.168,0,0,0,.051-.273c0-.017,0-.034,0-.051a1.272,1.272,0,0,0-.79-.342,17.38,17.38,0,0,0-2.191,2.807Zm4.689.5q.03.014.059.031c0-.019.009-.039.012-.058s0-.034.006-.051Q126.17,90.2,126.128,90.244Zm-3.444-.8-.137.1c-.3.215-.62.44-.936.671.328-.2.664-.389.993-.564Q122.644,89.544,122.684,89.443Zm3.2.744.048,0a1.029,1.029,0,0,0,.225-.24l-.039,0-.037.006c-.07.062-.152.14-.241.231Zm-1.246-1.276c-.18.333-.382.787-.591,1.263.13-.082.256-.163.375-.242a5.478,5.478,0,0,1,.623-1.276l-.021,0A4.416,4.416,0,0,1,124.643,88.911Zm-7.55,1.171q0,.012,0,.025l.02-.016Zm8.944-.445a1.321,1.321,0,0,0-.519.463,1.284,1.284,0,0,1,.5-.3q.044-.036.084-.065A1.138,1.138,0,0,0,126.037,89.637Zm-8.584.375c.027,0,.054.007.08.009a11.126,11.126,0,0,1,1.882-1.532q.1-.172.2-.354c-.334.153-.662.307-.965.464A12.029,12.029,0,0,1,117.453,90.011Zm1.74-1.164a10.7,10.7,0,0,0-1.422,1.165l.075-.013a1.268,1.268,0,0,0,.294-.1,7.082,7.082,0,0,1,.8-.694C119.025,89.093,119.11,88.974,119.194,88.848Zm-2.083,1.064a1.477,1.477,0,0,0,.146.055,9.877,9.877,0,0,0,1.029-1.173C117.664,89.148,117.2,89.517,117.11,89.912Zm-.562-.367a2.465,2.465,0,0,0,.409.292,1.133,1.133,0,0,1,.213-.394.947.947,0,0,1-.235.094A.88.88,0,0,1,116.549,89.544Zm2.635-.311c-.129.155-.257.3-.383.448l.018-.008c.234-.16.484-.319.743-.477.041-.1.081-.2.122-.309C119.512,89,119.345,89.116,119.184,89.234Zm6.035.059a1.292,1.292,0,0,0-.37.335A2.89,2.89,0,0,0,125.219,89.293Zm-2.281-.031q-.055.131-.108.266l.12-.062c.252-.242.485-.482.69-.715C123.425,88.913,123.189,89.083,122.939,89.262Zm2.338-.579c-.111.025-.269.314-.445.713a.98.98,0,0,1,.517-.325l.028,0a.418.418,0,0,0,.038-.123.261.261,0,0,0-.055-.2h0A.369.369,0,0,0,125.277,88.683Zm-8.686.7a.714.714,0,0,0,.3-.008,1.026,1.026,0,0,0,.5-.338,1.441,1.441,0,0,1-.432.026A2.964,2.964,0,0,0,116.591,89.382Zm-.113-.294a.85.85,0,0,0-.114.162Q116.418,89.171,116.478,89.089Zm7.713-.771a7.772,7.772,0,0,1-.772.913c.211-.1.412-.2.6-.291a6.673,6.673,0,0,1,.912-.9.509.509,0,0,0-.035-.039,1.8,1.8,0,0,0-.2-.177A3.655,3.655,0,0,1,124.192,88.318Zm-8.558.041a.722.722,0,0,0-.016.108.489.489,0,0,0,.152.4,2.51,2.51,0,0,0,.43.353,1.128,1.128,0,0,1,.219-.31A2.944,2.944,0,0,1,115.633,88.359Zm4.287.375q-.061.163-.122.32l.245-.144q.04-.15.079-.3Zm.266.285-.006.021a18.222,18.222,0,0,0,1.617-.853l.075-.138c-.292.172-.6.346-.905.521C120.706,88.719,120.444,88.868,120.186,89.019Zm-3.449,0-.009.012.014-.011Zm.949-.077-.045.061q.085-.062.177-.124C117.774,88.906,117.731,88.927,117.686,88.946Zm6.55-1.294a.546.546,0,0,0-.12.013c-.389.088-.73.6-1.047,1.3.382-.275.733-.537,1.012-.77a2.935,2.935,0,0,0,.295-.524A.577.577,0,0,0,124.236,87.652Zm-2.125.532c-.1.249-.2.5-.312.753.275-.393.538-.761.786-1.089C122.438,87.963,122.279,88.075,122.111,88.184Zm-4.41.426c-.175.094-.339.19-.49.287a1.24,1.24,0,0,0,.158-.024,1.4,1.4,0,0,0,.206-.062Q117.64,88.717,117.7,88.61Zm-.846.268.066.011a7.585,7.585,0,0,1,.922-.543c.1-.2.2-.423.287-.659-.222.172-.439.342-.64.5C117.254,88.429,117.039,88.66,116.856,88.878Zm3.47-.393q-.039.155-.079.307c.212-.122.426-.244.639-.366.388-.221.779-.444,1.147-.666q.089-.16.177-.312C121.626,87.752,120.965,88.1,120.325,88.484Zm-4.634-.3a2.769,2.769,0,0,0,.851.6c.2-.2.479-.43.83-.711.289-.293.611-.6.949-.907.15-.434.293-.9.434-1.355q.074-.24.147-.476c-.392.319-.793.632-1.177.93a4.653,4.653,0,0,1-2.032,1.916Zm4.181.2q-.146.185-.292.366l.206-.133Zm5.122-.2a5.779,5.779,0,0,0-.574.558l.176-.086a1,1,0,0,1,.4-.434A.221.221,0,0,0,124.994,88.188Zm-6.311-.059a3.3,3.3,0,0,1-.6.588c.142-.084.293-.167.451-.25q.149-.2.3-.406Zm-.714.341q-.052.1-.106.2a2.476,2.476,0,0,0,.445-.363Q118.135,88.386,117.969,88.47Zm2.14-.249-.092.252.165-.1.061-.24Zm-.974-.293q-.136.19-.269.372c.276-.135.568-.269.867-.4q.071-.142.139-.288l-.152.066Zm.719.1q-.066.131-.134.257l.043-.029.228-.29Zm.595-.028-.008.033-.056.224c.651-.381,1.323-.731,1.927-1.046l.019-.01c.081-.2.16-.391.237-.571a6.54,6.54,0,0,1-.852.523c-.338.234-.708.478-1.091.731Zm4.713.222a.258.258,0,0,1,.049.022.187.187,0,0,0,.013-.044.112.112,0,0,0-.041-.1.079.079,0,0,0-.038,0A.385.385,0,0,1,125.161,88.218Zm-6.777-.729c-.1.262-.193.508-.3.734.16-.078.326-.156.5-.233a7.6,7.6,0,0,0,.793-1.284C119.044,86.975,118.708,87.238,118.384,87.489Zm-4.1-.491a1.628,1.628,0,0,0,.481.761.861.861,0,0,0,.728.288,1.7,1.7,0,0,1,.5-.6,13.64,13.64,0,0,1,1.847-1.645q.107-.161.214-.326c-.534.271-1.06.514-1.518.725l-.069.075a1.825,1.825,0,0,1-1.022,1.1A1.305,1.305,0,0,1,114.286,87Zm1.828.559a3.256,3.256,0,0,0-.3.4,4.205,4.205,0,0,0,1.431-1.322C116.807,86.977,116.406,87.3,116.114,87.558Zm4.2.258-.108.139.094-.062.02-.08Zm-.632-1.358a9.477,9.477,0,0,1-.792,1.395l.133-.059c.228-.318.456-.643.678-.959.237-.338.471-.671.7-.99C120.172,86.05,119.93,86.255,119.684,86.458Zm2.708,1.278c-.028.037-.055.075-.082.114.147-.105.283-.212.407-.322Q122.559,87.631,122.391,87.736Zm2.137-.009c-.011.027-.023.054-.036.082q.032-.036.06-.07Zm-4.428-.218q-.065.142-.132.281l.083-.037.061-.027.1-.263Zm.415.217-.008.031.024-.016.111-.073Zm.116-1.914c-.261.361-.527.741-.792,1.118-.174.248-.346.494-.517.734l.331-.143.323-.14C120.211,86.866,120.428,86.325,120.632,85.812Zm3.955,1.759.061.032a.369.369,0,0,0,.052-.146.122.122,0,0,0-.038-.1l-.02-.02A1.388,1.388,0,0,1,124.586,87.571Zm-4.006-.1-.011.044c.372-.17.736-.342,1.066-.517a9.453,9.453,0,0,0,1.18-.926l.012-.026a9.776,9.776,0,0,1-2.039,1.155Zm1.838-.052-.011.027c.057-.069.115-.135.174-.2l-.09.047Zm-2-.055-.028.074.033-.043.01-.038Zm.6-2.084-.149.375c-.207.524-.428,1.083-.668,1.623l.088-.038a13.361,13.361,0,0,1,.6-1.414,3.766,3.766,0,0,1,.483-.947q-.139.157-.3.316Zm2.2,1.676a1.8,1.8,0,0,0-.44.322c.156-.106.3-.212.437-.316Zm-8.348.2a.829.829,0,0,0,.524.043l.026-.007a.557.557,0,0,1-.411-.165A.384.384,0,0,1,114.875,87.166Zm6.173-1.265c-.13.349-.248.745-.36,1.159l.068-.088a19.885,19.885,0,0,1,1.7-2.074.683.683,0,0,0-.43-.051C121.665,84.929,121.344,85.334,121.049,85.9Zm-5.813,1.092a.333.333,0,0,0,.22.038.736.736,0,0,0,.378-.244,1.609,1.609,0,0,1-.5.192Q115.283,86.987,115.236,86.993Zm8.19-.932a4.363,4.363,0,0,0-.764.963c.26-.136.507-.268.723-.39a1.184,1.184,0,0,0,.046-.176A1.042,1.042,0,0,0,123.426,86.06Zm-8.666.9.051.054a.1.1,0,0,0,.044-.033C114.824,86.975,114.792,86.968,114.76,86.96Zm-.492-.2a2.713,2.713,0,0,0,.317.248,1.3,1.3,0,0,1-.11-.154,1.919,1.919,0,0,1-.206-.112Zm9.63-.061a1.475,1.475,0,0,1,.548.247.7.7,0,0,0-.169-.26.2.2,0,0,0-.17-.061A.529.529,0,0,0,123.9,86.7Zm-4.759-1.564c-.075.237-.15.478-.224.718-.113.367-.225.729-.339,1.076.385-.347.786-.7,1.182-1.039.277-.636.525-1.293.747-1.883l.025-.067q-.169.139-.353.283C119.855,84.532,119.5,84.838,119.139,85.14Zm.457,1.116c-.254.221-.511.447-.764.673.238-.188.48-.381.72-.578Zm3.016-1.275a18.914,18.914,0,0,0-1.607,1.941,6.425,6.425,0,0,0,2.072-1.338l.024-.039a.668.668,0,0,0-.021-.138q-.07-.083-.153-.166A1.9,1.9,0,0,0,122.612,84.98Zm-8.018,1.752a1.279,1.279,0,0,0,.359.1c.076-.142.167-.355.265-.6l-.068.012a.874.874,0,0,1-.572-.112l-.038.042a.761.761,0,0,0-.029.124A.685.685,0,0,0,114.594,86.732Zm1.484-.323c-.345.16-.663.311-.837.416l.058-.009A1.712,1.712,0,0,0,116.078,86.408Zm-.654-.245c-.073.186-.139.345-.2.477.21-.12.552-.279,1.075-.519.068-.118.137-.244.206-.377.107-.277.208-.58.3-.9l-.069.029A3.691,3.691,0,0,1,115.424,86.164Zm-1.119.409.063.041a.835.835,0,0,1-.026-.138A.932.932,0,0,0,114.3,86.573Zm8.551-.191-.066.149a3.039,3.039,0,0,1,.586-.643,1.351,1.351,0,0,0-.074-.161,1.346,1.346,0,0,1-.085.137A1.415,1.415,0,0,1,122.856,86.382Zm.715-.426a1.2,1.2,0,0,1,.024.531l-.006.029c.1-.06.192-.117.27-.17a1.008,1.008,0,0,0,.193-.414.37.37,0,0,0-.264-.06A.594.594,0,0,0,123.571,85.956Zm-9.526.414q.06.054.12.1a1.33,1.33,0,0,1,.226-.374q.013-.037.029-.074a1.449,1.449,0,0,1-.113-.1l-.017-.017-.065.05A1.166,1.166,0,0,0,114.045,86.369Zm5.85-.373-.048.108c.373-.315.732-.636,1.046-.951l.015-.037q-.335.293-.729.634Zm-5.193.013a.7.7,0,0,0,.425.07.891.891,0,0,0,.169-.042c.074-.189.15-.39.224-.584A4.222,4.222,0,0,0,114.7,86.009Zm1.04-.674-.049.13q-.1.255-.178.468a3.562,3.562,0,0,0,.935-.929C116.2,85.112,115.963,85.222,115.741,85.335Zm1.91-.824a9.835,9.835,0,0,1-.87,1.39c.451-.209.949-.445,1.447-.7.255-.4.5-.82.741-1.22-.379.163-.784.323-1.2.486ZM114.425,85.8h0c.024.024.049.047.074.068a1.811,1.811,0,0,1,.179-.244h-.01C114.581,85.689,114.5,85.748,114.425,85.8Zm8.955-.271a1.67,1.67,0,0,1,.137.263.732.732,0,0,1,.247-.088.524.524,0,0,1,.291.038.766.766,0,0,0-.239-.427.193.193,0,0,0-.185-.074.452.452,0,0,0-.227.163l-.008.014c0,.01,0,.02,0,.029A.6.6,0,0,1,123.38,85.532Zm-6.174-.843c-.168.361-.331.705-.49,1.017a9.69,9.69,0,0,0,.69-1.1Zm-2.167.812c-.058.053-.113.106-.163.158a5.934,5.934,0,0,1,.732-.441l.08-.211a6.319,6.319,0,0,0-.518.38A1.008,1.008,0,0,1,115.038,85.5Zm5.752-1.774-.129.343c-.187.5-.391,1.038-.616,1.576l.025-.022c.332-.288.668-.578.978-.853a4.508,4.508,0,0,1,.94-1.665.74.74,0,0,0-.18-.278q-.043-.043-.085-.082A4.668,4.668,0,0,1,120.79,83.727Zm-7.216,1.512a.872.872,0,0,0,.122.149.563.563,0,0,0,.321.181,1.518,1.518,0,0,1-.108-.192A1.179,1.179,0,0,1,113.573,85.238Zm.53.158a1.54,1.54,0,0,0,.1.149.571.571,0,0,0,.074-.034,1.416,1.416,0,0,1-.168-.115Zm4.244-.075-.107.168c.168-.128.337-.256.507-.384Q118.548,85.217,118.347,85.322Zm-3.735.137h.005c.178-.125.384-.266.619-.425a3.7,3.7,0,0,0,.261-.493c-.245.232-.471.455-.668.665A2.361,2.361,0,0,1,114.612,85.459Zm-.282-.107a.907.907,0,0,0,.1.053l.02-.018q.116-.138.252-.283a7.908,7.908,0,0,0,.657-1.116,2.465,2.465,0,0,1-.187.191C114.955,84.769,114.7,85.213,114.331,85.352Zm-.356-.312a.9.9,0,0,0,.067.075q.06.06.118.11a.483.483,0,0,0,.063-.013c.281-.077.5-.395.69-.837a1.292,1.292,0,0,1-.382.164,1.1,1.1,0,0,1-.208.03,2.015,2.015,0,0,1-.355.392Q113.969,85,113.975,85.039Zm-.327.048a1.2,1.2,0,0,0,.188.092c-.006-.024-.012-.047-.016-.071s-.021-.03-.03-.044a.4.4,0,0,1-.078.02A.326.326,0,0,1,113.648,85.088Zm8.505-.656a1.647,1.647,0,0,1,1.084.6.587.587,0,0,1,.1.129,1,1,0,0,0,.046-.162,1.411,1.411,0,0,0-.545-1.241.215.215,0,0,0-.182-.066,1.149,1.149,0,0,0-.579.352q-.076.077-.162.16l-.049.052a4.7,4.7,0,0,1-.35.472.964.964,0,0,1,.428-.266A.784.784,0,0,1,122.153,84.432Zm-6.228.421-.1.254c.256-.125.529-.246.81-.365.109-.156.217-.321.325-.492C116.6,84.45,116.247,84.652,115.925,84.854Zm3.305-.991c-.231.39-.468.788-.708,1.178.2-.106.39-.215.58-.328.111-.336.225-.656.345-.949Zm-5.724.972.023.024a.236.236,0,0,0,.066.048.344.344,0,0,0,.1-.06.6.6,0,0,1,0-.229l0-.008-.054.015-.047.009A.755.755,0,0,0,113.506,84.835Zm8.647-.236a.616.616,0,0,0-.166.022.839.839,0,0,0-.392.264.992.992,0,0,1,.4-.2.879.879,0,0,1,.61.1l.04-.024A.954.954,0,0,0,122.152,84.6Zm-6.357-.335c-.081.2-.162.392-.248.56l.087-.059.2-.132c.08-.206.164-.417.251-.63Q115.937,84.135,115.8,84.264Zm-2.477.344c.019.027.039.055.061.082.008-.02.018-.041.028-.061A.674.674,0,0,1,113.319,84.609Zm6.356-.955c-.123.282-.239.6-.352.925a9.763,9.763,0,0,0,.856-.59c.2-.2.389-.392.555-.584a9.028,9.028,0,0,1,.445-1.023l-.031-.011C121.015,82.862,120.445,83.271,119.675,83.654Zm-2.514.594q-.045.16-.09.316l.011,0,.076-.163.158-.338-.057.031Zm-1.221-1.067-.014.028c-.236.486-.459.948-.678,1.341q.194-.187.406-.382c.119-.3.235-.635.353-.974l.018-.052Zm6.084.109a4.242,4.242,0,0,0-.687,1.222c.145-.131.281-.257.406-.376a1.642,1.642,0,0,0,.282-.739A.832.832,0,0,0,122.025,83.29Zm-8.735,1.131a.524.524,0,0,0,.214.053c.025-.035.053-.07.082-.105q-.081-.047-.163-.1C113.371,84.319,113.327,84.372,113.289,84.42Zm3.08-.672c-.1.242-.2.484-.295.72.338-.228.694-.472,1.051-.724l.061-.226c.057-.212.114-.421.172-.628C117.027,83.177,116.692,83.464,116.37,83.749Zm1.193.175c-.086.182-.17.364-.254.543v0l.221-.088c.1-.2.207-.4.306-.6Zm-2.759-.119c-.123.215-.24.411-.353.581l.042-.009a1.275,1.275,0,0,0,.536-.3c.058-.163.114-.337.167-.518C115.056,83.642,114.925,83.723,114.8,83.805Zm-.4.314q-.058.108-.115.205c.051-.076.1-.158.157-.244Zm3.684-.482c-.1.219-.21.436-.319.649.459-.182.921-.365,1.346-.555l.02-.035c.258-.436.491-.826.7-1.165A12.954,12.954,0,0,1,118.087,83.637Zm-4.549.5a1.879,1.879,0,0,0,.164.1,4.084,4.084,0,0,1,.551-.448c.088-.161.172-.344.255-.541C114.136,83.574,113.787,83.885,113.538,84.14Zm-.945-.843a1,1,0,0,0,.372.881l.016.016a.938.938,0,0,1,.011-.288c0-.014.006-.028.009-.042a.291.291,0,0,1,.06-.179,2.3,2.3,0,0,1,.744-.846l.3-.3c.335-.344.733-.753,1.094-1.157l.032-.086c-.361.17-.734.35-1.082.541-.558.927-.922,1.492-1.2,1.526a.2.2,0,0,1-.173-.06.624.624,0,0,1-.092-.117A1.089,1.089,0,0,1,112.593,83.3Zm.55.738a.744.744,0,0,0,0,.087q.013-.03.029-.061ZM117.057,84l-.075.052.071-.039Zm-3.675.025.021.017c.284-.295.706-.666,1.237-1.123l.021-.056A4.954,4.954,0,0,0,113.383,84.023Zm2.852-.978-.071.2c-.081.232-.159.458-.238.673l.306-.273c.107-.251.22-.5.337-.749Q116.4,82.972,116.234,83.046Zm-3.054.8.076.072a5.71,5.71,0,0,1,1.508-1.326l.073-.2a7.313,7.313,0,0,0-.906.564,8.167,8.167,0,0,0-.719.807Q113.194,83.8,113.18,83.841Zm4.278-.086-.031.053.008,0Zm-2.057-.306c-.034.119-.068.235-.1.348a3.954,3.954,0,0,0,.319-.46C115.544,83.374,115.472,83.412,115.4,83.449Zm6.778-.263a.941.941,0,0,1,.012.221,1.312,1.312,0,0,1-.078.357,1.125,1.125,0,0,0,.329-.479c0-.012,0-.015,0-.016a.249.249,0,0,0-.227-.092Zm-4.408.3-.087.18.274-.15q.061-.129.121-.259Q117.927,83.374,117.771,83.488Zm2.587-1.453c-.3.43-.631.99-.978,1.575l.165-.079c.318-.716.681-1.229,1.149-1.345a.843.843,0,0,1,.317-.017.973.973,0,0,0-.271-.639c-.068.078-.14.168-.215.27A1.9,1.9,0,0,1,120.358,82.035Zm-2.771.663c-.081.285-.16.576-.239.866l-.008.03.034-.025c.248-.427.491-.873.727-1.305l-.011,0-.313.267Zm-2.477.035c-.1.19-.191.377-.281.556l-.1.193.092-.056c.112-.2.225-.411.337-.619l.12-.222Zm5.786-.406a.663.663,0,0,0-.161.02c-.366.091-.673.494-.947,1.061.627-.331,1.089-.683,1.2-1.075A.712.712,0,0,0,120.9,82.327Zm-4.1.474c-.1.194-.187.391-.276.59.3-.26.607-.524.915-.787l.022-.077C117.244,82.617,117.022,82.708,116.8,82.8Zm1.561.242q-.076.168-.154.337a7.734,7.734,0,0,0,2.007-1.43q.091-.133.176-.247a.99.99,0,0,0,.127-.349q0-.025.006-.051a1.409,1.409,0,0,0-.26-.188A7.458,7.458,0,0,1,118.362,83.043Zm-2.915-.413-.139.257-.2.375.207-.118C115.358,82.974,115.4,82.8,115.447,82.63Zm-3.3.275a.913.913,0,0,0,.225.334c.008.008.011.008.013.007a.113.113,0,0,0,.049-.027,1.168,1.168,0,0,1,.172-.386.729.729,0,0,1,.018-.1.645.645,0,0,1-.306.168A.476.476,0,0,1,112.152,82.905Zm.638.11a.4.4,0,0,0,.1.166.037.037,0,0,0,.035.013c.182-.022.55-.585.919-1.191a4.552,4.552,0,0,0-.854.628C112.919,82.781,112.852,82.909,112.79,83.015Zm5.761-.943a11.447,11.447,0,0,0-.615,1.086q.148-.111.292-.223c.118-.26.23-.515.337-.757l.061-.138Zm-2.819.121c-.035.133-.069.267-.1.4s-.075.293-.113.437l.381-.211c.163-.336.308-.694.436-1.04l-.207.13-.254.159Zm5.6.26c-.071.13-.148.3-.229.487a3.137,3.137,0,0,0,.273-.462Zm.2.13a1.955,1.955,0,0,1-.154.351,1.967,1.967,0,0,0,.22-.3Zm-9.412.142a.323.323,0,0,0,.175.014.658.658,0,0,0,.359-.274.831.831,0,0,1-.43-.142.84.84,0,0,0-.1.324A.623.623,0,0,0,112.116,82.725Zm6.737-.789-.136.308-.207.467a8.471,8.471,0,0,0,1.4-1.349A7.081,7.081,0,0,1,118.854,81.936Zm-2.17.73-.064.03.061-.026Zm-5.034-.694c0,.011,0,.022-.005.033a.639.639,0,0,0,.222.547,1.017,1.017,0,0,0,.086.078,1.014,1.014,0,0,1,.131-.4h0A.908.908,0,0,1,111.649,81.972Zm5.278.577-.012.023.519-.213.088-.036.019-.064-.331.157Zm-.07-1.1c-.16.343-.3.712-.44,1.085.162-.09.321-.181.477-.272a8.007,8.007,0,0,1,.739-1.146l-.551.236-.22.094Zm4.724.97c.028.02.056.041.084.064a.427.427,0,0,0,.019-.1.227.227,0,0,0-.041-.155A1.845,1.845,0,0,1,121.582,82.416Zm-6.528-.146-.057.162.126-.083.083-.156Zm-.006-.485c-.186.2-.386.41-.6.627.149-.087.305-.173.466-.257l.039-.111Zm6.368.526,0,0,0-.012Zm-9.082-.112a.572.572,0,0,0,.431.087l.008,0a7.406,7.406,0,0,0,.458-.965c-.177.132-.353.27-.511.412A.857.857,0,0,1,112.334,82.2Zm.875-.011-.033.069a6.735,6.735,0,0,1,.849-.546l.066-.109c.113-.188.226-.378.34-.562a13.1,13.1,0,0,0-1.011.862A1.771,1.771,0,0,1,113.209,82.188Zm4.538-.027-.025.08.281-.116.237-.2Q118,82.04,117.747,82.161Zm3.43.044q.045.014.091.033a.71.71,0,0,1,.166-.184,1.51,1.51,0,0,0-.327-.821.7.7,0,0,0-.252.175A1.138,1.138,0,0,1,121.176,82.2Zm-5.711-.139-.053.1.156-.1L115.6,82ZM117.621,82l-.183.119.171-.081Zm.355-1.042a6.4,6.4,0,0,0-.8,1.128c.187-.115.365-.23.528-.345a8.158,8.158,0,0,1,.313-.8Zm-5.825,1.1h.035a2.887,2.887,0,0,1,.4-.435,6.319,6.319,0,0,0,.271-.924,4.572,4.572,0,0,0-.946.781.58.58,0,0,0-.019.121.443.443,0,0,0,.143.346Q112.092,82.017,112.151,82.067Zm3.19-.6c-.07.19-.139.385-.207.579l.211-.1c.172-.309.355-.613.55-.9l.025-.074-.25.117Q115.517,81.268,115.34,81.465Zm-1.852-.336-.05.12c-.1.238-.2.479-.3.7l0,0c.136-.285.28-.587.432-.878Zm4.36.717-.032.1c.217-.1.429-.209.633-.313.306-.554.588-1.046.849-1.426l-.021,0a1.786,1.786,0,0,1-.454.339.765.765,0,0,1-.008.119A2.08,2.08,0,0,1,117.848,81.846Zm-6.142-.051.011.011.045.044a.585.585,0,0,1-.031-.106Q111.718,81.769,111.706,81.795Zm4-.153c-.035.057-.069.116-.1.174l.062-.029Zm3.34-.142-.092.2a4.81,4.81,0,0,0,1.1-.671.746.746,0,0,0-.244-.025A6.1,6.1,0,0,1,119.049,81.5Zm-7.858.088a.355.355,0,0,0,.254.11.467.467,0,0,1-.032-.2c0-.014,0-.028,0-.042a.329.329,0,0,1-.161.117A.27.27,0,0,1,111.191,81.588Zm5.508-1.012a10.3,10.3,0,0,0-.7,1.06l.179-.079c.123-.116.24-.231.35-.343.067-.2.127-.384.181-.551l.037-.115Zm1.559.257a6.393,6.393,0,0,0-.314.735,1.656,1.656,0,0,0,.706-.927h0Q118.475,80.732,118.259,80.833Zm-3.442-.095c-.171.265-.343.548-.5.819.33-.172.672-.335,1-.488a3.66,3.66,0,0,1,.848-1.455.419.419,0,0,0-.19-.072.356.356,0,0,0-.25.08l.029.028a.157.157,0,0,1,.046.124C115.783,79.968,115.451,80.243,114.816,80.738Zm-3.161.56a.45.45,0,0,0-.077.212.3.3,0,0,0,0,.042A1.316,1.316,0,0,0,111.656,81.3Zm7.848-1.093a14.615,14.615,0,0,0-.786,1.285l.056-.03.118-.1q.038-.041.077-.078a8.113,8.113,0,0,1,.564-1.07Zm-5.665.717c-.064.191-.132.381-.209.558.316-.277.666-.549.987-.8l.073-.057a5.6,5.6,0,0,1,.769-1,.531.531,0,0,0-.381-.082,1.226,1.226,0,0,0-.662.484.227.227,0,0,1,.057.17c-.015.187-.246.389-.592.644Zm-2.84.414a.257.257,0,0,0,.208.08c.112-.034.19-.251.253-.513l-.049.03c-.019.116-.058.2-.138.234a.2.2,0,0,1-.164-.01.324.324,0,0,0-.108.171Zm2.055-.759-.017.071c-.062.262-.125.527-.2.763.168-.136.344-.266.515-.389a4.572,4.572,0,0,1,.446-.893l-.116.069C113.49,80.312,113.273,80.439,113.054,80.578Zm2.988.543q-.044.131-.085.267c.135-.224.272-.438.41-.636l-.089.044Q116.158,80.952,116.043,81.12Zm.634.185-.014.043.044-.019.085-.144Zm4.015-.072.028.028.025.025A1.014,1.014,0,0,1,121,81.1q-.061-.071-.131-.14a3.716,3.716,0,0,0-.355-.315c0,.011-.005.022-.008.033A1.022,1.022,0,0,1,120.692,81.233Zm-8.825-.181c-.007.053-.015.105-.024.155a2.1,2.1,0,0,1,.235-.341C112,80.927,111.932,80.989,111.867,81.052Zm-.938-.023a.244.244,0,0,0-.061.122.1.1,0,0,0,0,.044.6.6,0,0,1,.1-.13Zm7.161-1.166a4.561,4.561,0,0,0-1.082,1.285c.675-.449,1.2-.863,1.2-1.138a.209.209,0,0,0-.088-.165Zm-6.434.925c-.026.122-.052.236-.083.337a1.643,1.643,0,0,1,.136-.153c.01-.077.019-.155.028-.23Zm8.689.183a1.423,1.423,0,0,1,.16.1.867.867,0,0,0-.083-.214A1.075,1.075,0,0,1,120.345,80.971Zm-.632-.733a5.578,5.578,0,0,0-.434.771c.262-.238.5-.462.689-.659l-.069-.056A1.6,1.6,0,0,0,119.713,80.239Zm-3.478-.471a3.376,3.376,0,0,0-.7,1.2l.03-.014A2.4,2.4,0,0,0,116.235,79.768Zm-3.27.472a6.429,6.429,0,0,0-.752.725,7.5,7.5,0,0,1,.7-.493C112.928,80.392,112.946,80.314,112.965,80.24Zm5.411-.247c0,.006,0,.013,0,.019,0,.27-.319.588-.8.946l.31-.136a3.356,3.356,0,0,1,.4-.371,2.039,2.039,0,0,1,.232-.294,1.222,1.222,0,0,0-.133-.155Zm-7.328.92.045.039c.049-.039.1-.077.161-.115,0-.025,0-.052,0-.078C111.184,80.809,111.111,80.861,111.049,80.913Zm5.921-.5c-.032.1-.066.2-.1.3l-.067.207a1.713,1.713,0,0,0,.481-.8A1.116,1.116,0,0,1,116.97,80.409Zm3.03.44a.979.979,0,0,1,.188.049,1.091,1.091,0,0,0,.078-.26l-.044-.049A1.41,1.41,0,0,1,120,80.85Zm.092-.389q-.173.181-.4.393l.01,0,.048-.007a1.419,1.419,0,0,0,.351-.375Zm-6.255-.087a4.867,4.867,0,0,0-.225.461l.1-.076C113.76,80.627,113.8,80.5,113.838,80.374Zm-3.074.342a.581.581,0,0,0,.137.1l0,0a.847.847,0,0,0-.008-.205C110.843,80.651,110.795,80.689,110.764,80.716Zm1.153-.075-.011.091-.008.068c.07-.06.143-.119.216-.177a2.1,2.1,0,0,0,.467-.45A2.771,2.771,0,0,1,111.917,80.641Zm4.167-.1q-.081.12-.18.25l.1-.046Q116.042,80.64,116.084,80.541Zm-4.656.106c0,.028,0,.056,0,.083l.082-.048.02-.1Zm-.361-.018v0l0,0Zm7.349-.069-.012.018c.087-.043.168-.085.244-.126q0-.019-.008-.039A2.213,2.213,0,0,0,118.416,80.56Zm-6.689-.124-.016.084-.01.052.008,0,.053-.03c.006-.051.013-.1.019-.15C111.765,80.4,111.746,80.42,111.727,80.436Zm5.169-.763a1.986,1.986,0,0,0-.635.875,4.084,4.084,0,0,1,.759-.737.476.476,0,0,1,.026-.042A1.042,1.042,0,0,0,116.9,79.673Zm-5.8.79a.11.11,0,0,0,.075.011h0a.466.466,0,0,1,.023-.08l0-.006Zm5.625-.179q-.088.087-.174.183l.045-.025Q116.66,80.361,116.725,80.284Zm-2.418-.114c-.061.083-.121.171-.18.263a.5.5,0,0,0,.181-.247A.06.06,0,0,0,114.307,80.171Zm-2.251-.25a2.333,2.333,0,0,0-.113.512,1.483,1.483,0,0,0,.59-.485.542.542,0,0,0-.323-.19C112.173,79.8,112.124,79.854,112.056,79.921Zm6.735.415c0,.01.006.02.008.03.051-.03.1-.06.141-.089Q118.865,80.3,118.791,80.336Zm-7.783-.306a1.049,1.049,0,0,0,.015.284l.153-.114c0-.015,0-.03-.005-.045A.607.607,0,0,0,111.008,80.03Zm4.583-.3a3.74,3.74,0,0,0-.464.552c.283-.232.51-.438.5-.516Zm-1.483.342c-.018.057-.037.116-.054.174.042-.062.084-.121.126-.178a.1.1,0,0,0-.051,0Zm-2.577.06c-.007.028-.015.057-.022.085l.018-.017.1-.094h0l-.036-.028Zm5.871-.241a.4.4,0,0,1,.051.221.574.574,0,0,1-.012.094,2.36,2.36,0,0,1,.509-.445l.006,0a.62.62,0,0,0-.2,0A.937.937,0,0,0,117.4,79.887Zm2.579.259q.065.024.13.054l.038-.043a.859.859,0,0,0-.177-.164.34.34,0,0,0-.107.069Q119.922,80.1,119.98,80.146ZM119.207,80a.654.654,0,0,0-.169.022.787.787,0,0,0-.293.156,1.7,1.7,0,0,1,.328-.107q.059-.013.119-.021a.215.215,0,0,0,.023-.05Zm-.865-.251a1.291,1.291,0,0,1,.161.138,1.4,1.4,0,0,1,.138.16.95.95,0,0,1,.354-.186.817.817,0,0,1,.145-.025,1.175,1.175,0,0,0-.371-.173A1.507,1.507,0,0,0,118.342,79.746Zm1.05.287h.027l0,0-.043-.011,0,.016Zm-3.007-.371a.59.59,0,0,1-.021.342,1.734,1.734,0,0,1,.343-.4.474.474,0,0,0-.188,0A.539.539,0,0,0,116.385,79.662Zm3.74.177a.343.343,0,0,1,.107.075q.033.033.063.066c.125-.163.186-.288.159-.36-.015-.04-.093-.063-.214-.063a.5.5,0,0,0-.3.142A1.277,1.277,0,0,1,120.125,79.84Zm-.434.12.028.015a.766.766,0,0,1,.09-.078l-.045-.022Q119.728,79.915,119.691,79.96Zm-8.151-.406a.262.262,0,0,0-.089.046.456.456,0,0,0-.123.359.194.194,0,0,1,.091-.086A.745.745,0,0,1,111.54,79.553Zm7.822.291a1.035,1.035,0,0,1,.17.046l.071-.085c-.046-.017-.095-.034-.145-.05q-.112-.035-.219-.057A.4.4,0,0,1,119.361,79.844Zm-7.368-.251a.913.913,0,0,0-.137.29l.061-.06a.416.416,0,0,1,.167-.2Zm-.349.1a.776.776,0,0,0-.037.112.205.205,0,0,0,.04-.093A.039.039,0,0,0,111.644,79.694Zm1.843-.15c-.064,0-.124.072-.179.186a1.592,1.592,0,0,0,.187-.186Zm3.584.042a1.447,1.447,0,0,1,.138.1,2.273,2.273,0,0,1,.264-.136A.793.793,0,0,0,117.071,79.585Zm-2.744-.043a.227.227,0,0,0-.064.1.513.513,0,0,0,.1-.088Zm3.735.065q.034.01.068.023.055-.035.112-.065a1.568,1.568,0,0,0-.232.012ZM112.3,79.6a.433.433,0,0,1,.066.022.782.782,0,0,0-.068-.049v0A.112.112,0,0,1,112.3,79.6Zm-.572-.063a.24.24,0,0,1,.028.024.224.224,0,0,1,.036.047q.016-.031.033-.059A.925.925,0,0,0,111.724,79.538Z" transform="translate(-109 -79.333)" fill="#e62b1e"/>
        </g>
      </g>
      <g id="Group_50" data-name="Group 50" transform="translate(0.147 14.181)">
        <g id="Group_49" data-name="Group 49" transform="translate(0 0)">
          <path id="Path_49" data-name="Path 49" d="M121.236,225.726a.572.572,0,0,1-.191-.034,1.026,1.026,0,0,1-.37-.25.983.983,0,0,1-1.243.051,1,1,0,0,1-.717.2,1.719,1.719,0,0,1-.907-.468.539.539,0,0,1-.409.137,1.036,1.036,0,0,1-.826.288,1.434,1.434,0,0,1-.729-.367.263.263,0,0,1,.006.038.219.219,0,0,1-.066.176.54.54,0,0,1-.438.169,1.042,1.042,0,0,1-.5-.21.517.517,0,0,1-.089.115.323.323,0,0,1-.259.1,1.034,1.034,0,0,1-.588-.41v.006c0,.137-.108.255-.322.349a.515.515,0,0,1-.568-.073.367.367,0,0,1-.208.12.3.3,0,0,1-.331-.057.521.521,0,0,1-.05-.44.663.663,0,0,1-.481-.079c-.25-.1-.436-.163-.56-.04a.4.4,0,0,0-.094.12,1.153,1.153,0,0,0,.319.023c.228,0,.425,0,.478.124.044.106-.048.218-.134.3-.152.152-.4.034-.6-.061a.737.737,0,0,0-.229-.086.686.686,0,0,1-.444.137.533.533,0,0,0-.191.033.083.083,0,0,1-.118-.118.467.467,0,0,1,.3-.081.58.58,0,0,0,.349-.1.191.191,0,0,1,.2-.027.163.163,0,0,1-.091-.087c-.044-.106.048-.218.134-.3.185-.185.434-.117.651-.033a.412.412,0,0,1,.144-.215.588.588,0,0,1,.056-.049.58.58,0,0,1-.314-.329c-.057-.2.041-.418.3-.678a.386.386,0,0,1,.309-.124.584.584,0,0,1,.263.094,3.285,3.285,0,0,1,.3-.346.1.1,0,0,1,.083-.03.133.133,0,0,1,.057.019.1.1,0,0,1,.079.016.107.107,0,0,1,.049.1c.084.1.2.247.365.474a10.756,10.756,0,0,0,.971,1.188c.152.068.255.147.283.252a.971.971,0,0,0,.486.23.374.374,0,0,0,.308-.12.054.054,0,0,0,.018-.046c-.014-.2-.59-.631-1.1-1.011-.794-.594-1.615-1.208-1.652-1.725a.466.466,0,0,1,.146-.375.39.39,0,0,1,.325-.127.542.542,0,0,1,.241.1,1.065,1.065,0,0,1,.1-.28.435.435,0,0,1-.107-.219.147.147,0,0,1,.042-.116.55.55,0,0,1,.464-.181,1.4,1.4,0,0,1,.116-.1c0-.011-.005-.023-.007-.034a.3.3,0,0,1,.094-.262.385.385,0,0,1,.082-.063,1.007,1.007,0,0,1-.061-.22.888.888,0,0,1,.135-.615c0-.018-.007-.036-.009-.054a1,1,0,0,1,.337-.873,2.413,2.413,0,0,1,.678-.5l0-.013a1.332,1.332,0,0,0-.01-.389.611.611,0,0,1,.181-.5,2.324,2.324,0,0,1,.424-.342l0-.01a.937.937,0,0,1,.173-.7,1.866,1.866,0,0,1,.428-.619,2.112,2.112,0,0,1,.678-.474,2.019,2.019,0,0,1,.168-.245.92.92,0,0,1-.047-.169.989.989,0,0,1,.348-.88q.064-.064.127-.119a1.85,1.85,0,0,1,.533-.887.656.656,0,0,1,.311-.185l.005-.011a1.043,1.043,0,0,1,.317-1.215.521.521,0,0,1,.309-.16,2.843,2.843,0,0,1,.553-.736,1.181,1.181,0,0,1,1.979-.036,1.1,1.1,0,0,1,.294.005,1.549,1.549,0,0,1,.667.293.769.769,0,0,1,1-.041,3.45,3.45,0,0,1,.451.316,1,1,0,0,1,.091-.168c-.19-.1-.269-.164-.283-.239a.123.123,0,0,1,.036-.112.206.206,0,0,1,.175-.063.49.49,0,0,1,.273.168l.026-.026a.864.864,0,0,1,.737-.307.924.924,0,0,1,.44.21.8.8,0,0,1,.7-.266,1.089,1.089,0,0,1,.522.266.5.5,0,0,1,.156,0,.559.559,0,0,1,.119.029.379.379,0,0,1,.117-.007.409.409,0,0,1,.086.018.4.4,0,0,1,.288-.121c.28,0,.576.3.865.6a.522.522,0,0,1,.213.224c.192.2.376.362.507.364a.132.132,0,0,0,.1-.043c.139-.14.207-.256.185-.321-.041-.121-.385-.163-.612-.191-.258-.032-.429-.053-.467-.164a.154.154,0,0,1,.055-.164c.045-.045.107-.031.191-.01l.052.012,0,0c-.044-.07.023-.138.059-.174.055-.055.132-.05.225-.011a.375.375,0,0,1,.1-.017l.033-.034c.055-.055.128-.031.373.062.061.023.146.055.193.068.075-.07.119-.106.173-.049s.019.1-.076.193a.092.092,0,0,1-.032.021l-.02.018h0c-.046.037-.082.048-.123,0a.081.081,0,0,1-.025-.046c-.04-.014-.089-.032-.148-.054s-.171-.064-.219-.076l-.023.025c.055.037.113.079.173.122l.068.049h0c.181.006.3.01.337.1a.147.147,0,0,1-.053.161.111.111,0,0,1-.114.029.248.248,0,0,1,.042.075c.046.134-.027.3-.224.493a.293.293,0,0,1-.217.091.85.85,0,0,1-.5-.289.547.547,0,0,1-.07.137c.185.061.313.133.344.242a.246.246,0,0,1-.09.242.114.114,0,0,1-.1.034c-.088-.011-.171-.117-.316-.349a.19.19,0,0,1-.119.028.408.408,0,0,1-.246-.163l-.008,0,.063.108.021.036a.354.354,0,0,1,.18.2.252.252,0,0,1,.01.1.62.62,0,0,1,.03.066l0,0c.194.055.274.1.294.172a.12.12,0,0,1-.035.119.151.151,0,0,1-.128.045h-.009a.282.282,0,0,1,.049.094c.036.122-.016.25-.159.392a.1.1,0,0,1-.087.028l-.021-.005a1.79,1.79,0,0,1-.336.437.394.394,0,0,1-.283.129,1.448,1.448,0,0,1-.281.379c-.062.062-.152.061-.285-.007a.954.954,0,0,1,.128.294.87.87,0,0,1,.017.092q0,.019.005.039a.386.386,0,0,1,0,.047.984.984,0,0,1-.079.4.815.815,0,0,1,.068.172c.1.379-.083.8-.565,1.28a.369.369,0,0,1-.251.119.607.607,0,0,1-.163.482.514.514,0,0,1-.168.32,1.354,1.354,0,0,1-.146.127,1.456,1.456,0,0,1-.2.374,1.321,1.321,0,0,1-.327.492,1,1,0,0,1-.537.305,1.26,1.26,0,0,1-.13.151,2.151,2.151,0,0,1-.193.172.423.423,0,0,1,.139.22.212.212,0,0,1-.065.191.4.4,0,0,1-.184.11.471.471,0,0,1-.064.079l-.037.036,0,.013a.921.921,0,0,1-.323.821q-.038.038-.077.073a1.65,1.65,0,0,1-.6,1.412.34.34,0,0,1-.233.109.753.753,0,0,1-.229.4,1.95,1.95,0,0,1-.154.139.9.9,0,0,1-.254.44,1.611,1.611,0,0,1-.164.144.868.868,0,0,1,.075.265.586.586,0,0,1-.181.491,1.013,1.013,0,0,1-.72.318.751.751,0,0,1,.209.48c0,.229-.168.421-.5.587A.56.56,0,0,1,121.236,225.726Zm-.429-.387a.844.844,0,0,0,.293.2.385.385,0,0,0,.314-.02c.267-.133.4-.282.407-.441a.773.773,0,0,0-.3-.511l-.04-.011h-.006a.89.89,0,0,1-.319-.138,3.758,3.758,0,0,1-.851-.7c-.217-.128-.447-.258-.685-.39.078.167.156.33.233.488.684.418,1.139.782,1.18,1.106a.38.38,0,0,1-.133.336Q120.855,225.3,120.807,225.339Zm-2.494.049a1.13,1.13,0,0,0,.421.144.817.817,0,0,0,.563-.146,2.04,2.04,0,0,1-.157-.155,2.074,2.074,0,0,1-.262-.181.986.986,0,0,1-.2.282.29.29,0,0,1-.248.091A.368.368,0,0,1,118.314,225.388Zm-7.038-.045c.05.019.1.045.16.072.143.068.339.162.407.093a.393.393,0,0,0,.094-.12,1.15,1.15,0,0,0-.319-.023A1.439,1.439,0,0,1,111.275,225.343Zm1.339-.23c-.047.185-.06.332-.009.391.031.035.1.023.161.007.1-.029.116-.054.116-.055,0-.029-.082-.125-.138-.188C112.7,225.221,112.659,225.17,112.614,225.113Zm6.953.27a.872.872,0,0,0,.288.124.885.885,0,0,0,.706-.187,6.978,6.978,0,0,1-.834-1.39c-.409-.249-.892-.514-1.385-.785l-.22-.121.1.231c.232.183.449.361.642.534.728.406,1.231.756,1.28,1.078a.348.348,0,0,1-.112.309.585.585,0,0,1-.45.193Zm-5.689-.41c.234.289.463.528.63.539a.16.16,0,0,0,.13-.054.283.283,0,0,0,.071-.1c-.072-.059-.144-.124-.216-.195a5.561,5.561,0,0,0-.6-.185Zm-1.186-.119c.032.046.064.1.1.148.24.372.421.606.731.469.143-.063.222-.133.223-.2a.132.132,0,0,0-.009-.045l-.014.015a.138.138,0,0,1-.1.039c-.1,0-.216-.113-.407-.325l-.183-.041c-.11-.024-.224-.049-.335-.077Zm2.022-1.286c.567.873,1.206,1.836,1.88,1.923a.824.824,0,0,0,.607-.178,3.122,3.122,0,0,1-1.049-1.147A12.131,12.131,0,0,1,114.715,223.568Zm3.208,1.538a2.465,2.465,0,0,0,.3.23,1.5,1.5,0,0,1-.279-.277A.306.306,0,0,1,117.923,225.105Zm-1.072-2.088c.145.233.287.471.426.7.442.739.9,1.5,1.17,1.537a.124.124,0,0,0,.11-.044.775.775,0,0,0,.188-.277,10.284,10.284,0,0,1-1.324-1.586C117.237,223.238,117.045,223.126,116.851,223.017ZM120,224.1a5.943,5.943,0,0,0,.694,1.118c.032-.027.063-.055.1-.085a.218.218,0,0,0,.082-.194C120.842,224.712,120.5,224.423,120,224.1Zm-3,.376c.315.3.495.537.5.7q0,.011,0,.022a.4.4,0,0,0,.188-.084,5.771,5.771,0,0,1-.507-.567Zm2.254.628a.822.822,0,0,0,.266.094.261.261,0,0,0,.06-.2c-.022-.275-.348-.656-.819-1.078-.1-.057-.208-.114-.317-.173q.062.134.126.262a1.242,1.242,0,0,1,.368.645c0,.009,0,.017,0,.026A3.284,3.284,0,0,0,119.252,225.1Zm-2.836-.843a2.293,2.293,0,0,0,.916.924v0c-.005-.161-.321-.486-.751-.863Zm2.936.014a1.375,1.375,0,0,1,.392.712.441.441,0,0,1-.027.2.486.486,0,0,0,.2-.125.186.186,0,0,0,.065-.166C119.953,224.719,119.713,224.508,119.352,224.274Zm-5.826.768a.417.417,0,0,0,.09.07.048.048,0,0,0,.01-.016A.212.212,0,0,0,113.526,225.041Zm-1.324-.031c.08.024.148.031.183,0l.045-.048c-.042.008-.09.019-.126.028Zm5.339-.292c.085.1.17.186.255.269a.071.071,0,0,0,0-.038C117.78,224.877,117.686,224.8,117.54,224.719Zm-3.835.033.233.064c.109.03.213.058.309.086-.281-.316-.546-.675-.763-.969-.095-.128-.2-.265-.279-.37-.033.093-.082.213-.149.372.168.185.341.413.518.647Zm-1.389-.019a.2.2,0,0,0-.132.074l-.043.046c.042-.008.089-.019.124-.028.057-.014.109-.026.156-.034l0-.009a.177.177,0,0,0-.092-.049Zm.437-.052c.092.023.185.043.271.063l-.019-.021c-.079-.038-.156-.073-.228-.106Zm5.061-1.074a9.282,9.282,0,0,0,.962,1.134h0c-.12-.192-.236-.406-.35-.636A4.248,4.248,0,0,0,117.815,223.607Zm-4.779.9a2.758,2.758,0,0,0,.4.16c-.145-.191-.3-.393-.448-.564-.032.076-.068.161-.1.25C112.933,224.4,112.985,224.456,113.036,224.51Zm-.5.114.052.015.034-.089-.106-.047A.753.753,0,0,0,112.54,224.623Zm.825-2.36a.234.234,0,0,0-.168.081.3.3,0,0,0-.1.246c.032.441.893,1.086,1.585,1.6.2.153.385.289.541.413-.242-.319-.473-.674-.692-1.013l-.134-.206a1.511,1.511,0,0,1-.749-.859.789.789,0,0,1-.018-.139.482.482,0,0,0-.244-.125Zm-.973,1.41a.226.226,0,0,0-.165.076c-.21.21-.3.383-.259.514s.192.223.391.3a.912.912,0,0,1-.009-.139c-.132-.065-.176-.1-.185-.154a.108.108,0,0,1,.026-.085.282.282,0,0,1,.218-.089,1.619,1.619,0,0,1,.176-.355.41.41,0,0,0-.179-.065Zm4.894.739c.117.05.22.1.308.145-.143-.224-.3-.479-.459-.753-.185-.309-.382-.64-.588-.957l-.438-.237-.064-.035.079.125A20.638,20.638,0,0,0,117.286,224.413Zm-4.761-.092.067.03-.015-.026-.049-.028Zm4.141-.148.315.117c-.346-.467-.68-1-1-1.5-.08-.127-.16-.253-.239-.376-.347-.189-.641-.356-.874-.508a11.925,11.925,0,0,1,.957,1.423l.18.293C116.253,223.822,116.474,224.006,116.666,224.174Zm4.631-.014a1,1,0,0,0,.352.09.464.464,0,0,0,.348-.124.684.684,0,0,0-.16-.183.931.931,0,0,1-.626.119l-.069-.015Q121.222,224.1,121.3,224.16Zm-8.589.055.04.029q.052-.127.109-.261l0-.011c-.036-.037-.072-.072-.107-.1a.429.429,0,0,0-.058.312A.293.293,0,0,0,112.708,224.214Zm9.776-.2a1.075,1.075,0,0,1-.16.2l-.02.02q.039-.032.076-.07A.475.475,0,0,0,122.484,224.012Zm-.506-.16c.124.12.183.207.188.274,0,0,0,0,0,.007l.04-.038a.622.622,0,0,0,.218-.456.948.948,0,0,1-.3.1A1.729,1.729,0,0,1,121.978,223.852Zm-7.456-.582a8.854,8.854,0,0,0,1.482.664l-.126-.2c-.19-.154-.382-.306-.564-.452a16.956,16.956,0,0,1-1.45-1.228.791.791,0,0,0-.065.266A5.579,5.579,0,0,1,114.522,223.27Zm6.092.255a1.222,1.222,0,0,0,.625.372.744.744,0,0,0,.463-.071c-.346-.289-.943-.719-1.532-1.142A9.1,9.1,0,0,0,120.614,223.525Zm-7.768.2q.043.037.086.079c.048-.114.093-.226.122-.311l-.027.027A1.982,1.982,0,0,0,112.846,223.726Zm9,.006.007.006.006,0Zm-3.95-.272c.124.085.241.171.348.257l-.044-.1Zm.124-.683.4.222c.424.233.821.452,1.172.657-.072-.152-.146-.309-.22-.469l-.285-.157c-.416-.229-.845-.465-1.259-.706l.067.16Zm2.12-.953c.589.936,1.182,1.669,1.76,1.748a.712.712,0,0,0,.148.005l.036-.035q.112-.112.207-.223-.033-.045-.071-.091c-.032,0-.063,0-.1-.01a2.615,2.615,0,0,1-1.478-1.131C120.483,222,120.313,221.911,120.139,221.823Zm.1,1.57q.093.086.184.165a6.514,6.514,0,0,1-.875-1.324l-.4-.292A14.705,14.705,0,0,0,120.235,223.393Zm2.152.069-.013.014.016-.009ZM117.372,223l.5.265.217.114-.005-.012c-.309-.242-.64-.489-.968-.728Zm5.135.323c.009.017.016.034.024.051a1.554,1.554,0,0,0,.12-.108.869.869,0,0,0,.129-.161,1.169,1.169,0,0,1-.163.07C122.582,223.22,122.546,223.269,122.507,223.319Zm-8.565-1.415c.289.3.956.832,1.477,1.247l.2.162c-.492-.8-.995-1.6-1.423-1.733A1.893,1.893,0,0,0,113.941,221.9Zm5.562,1.164.351.2c-.163-.16-.329-.33-.5-.508Zm2.454-.359a2.649,2.649,0,0,1,.375.353.864.864,0,0,0,.178-.03q.055-.084.1-.166a.351.351,0,0,1-.169.017.738.738,0,0,1-.385-.224,1.061,1.061,0,0,1-.11-.008l-.063-.01Zm-4.642-.136c.218.159.431.317.636.473l-.064-.152C117.7,222.788,117.5,222.681,117.315,222.572Zm3.722-.269a2.194,2.194,0,0,0,1.012.73c-.061-.065-.128-.131-.2-.2A6.908,6.908,0,0,0,121.037,222.3Zm-7.182.318a1.1,1.1,0,0,0,.269.357C114.032,222.846,113.941,222.724,113.855,222.621Zm3.869-.553c.469.279.966.553,1.445.816l.087.048-.07-.152-.2-.428c-.354-.393-.709-.807-1.052-1.207l-.308-.358c-.285-.23-.556-.461-.8-.686-.059-.038-.117-.075-.173-.113A9.908,9.908,0,0,1,117.724,222.068Zm5.149.624a1.875,1.875,0,0,1-.1.222c.032-.02.064-.042.1-.066A.7.7,0,0,0,122.873,222.692Zm-6.33-.151c.165.095.333.188.5.28l-.184-.263-.153-.219-.16-.116-.535-.387A7.427,7.427,0,0,1,116.543,222.541Zm3.487-.162.208.15.384.276a11.068,11.068,0,0,1-.766-1.123l-.161-.08C119.806,221.867,119.917,222.128,120.03,222.379Zm2.257.259a.411.411,0,0,0,.177.079.2.2,0,0,0,.179-.069,1.009,1.009,0,0,0,.111-.13,1.275,1.275,0,0,0,.028-.13A1.135,1.135,0,0,1,122.287,222.638Zm.7-.2a1.106,1.106,0,0,1,.049.222c0,.015,0,.03,0,.045l.018-.018a.581.581,0,0,0,.184-.317.8.8,0,0,1-.212-.146A.646.646,0,0,1,122.987,222.434Zm-3.131.025q.061.108.123.211l-.083-.183ZM116.674,222c.355.218.732.434,1.11.645l-.041-.1-.152-.366a9.131,9.131,0,0,1-1.711-1.248C116.128,221.237,116.394,221.6,116.674,222Zm4.451-1.02a8.816,8.816,0,0,0,1,1.511.933.933,0,0,0,.591-.264,3.421,3.421,0,0,0-.582-.721C121.85,221.344,121.5,221.166,121.126,220.981Zm.411,1.36a1.353,1.353,0,0,0,.347.13,12.112,12.112,0,0,1-1.024-1.62l-.226-.111c-.309-.151-.629-.307-.951-.469.074.13.148.26.223.387a8.7,8.7,0,0,0,.955,1.163C121.1,222,121.33,222.171,121.537,222.341Zm-2.408-.083.123.135q-.091-.13-.182-.263ZM115.67,222c.164.114.34.227.522.338a3.277,3.277,0,0,0-.968-.959C115.364,221.546,115.513,221.757,115.67,222Zm7.028-.572a1.415,1.415,0,0,1,.7.786c0,.008,0,.016,0,.023a.18.18,0,0,0,.114-.059,1.547,1.547,0,0,0,.568-1.173q-.046.032-.094.059a.312.312,0,0,1-.1.242.5.5,0,0,1-.41.156,1.362,1.362,0,0,1-.745-.448,3.224,3.224,0,0,1-.638-.5c.121.219.239.43.353.623A2.19,2.19,0,0,1,122.7,221.424Zm-3.027.7.091.066c-.1-.226-.2-.459-.294-.7l-.148-.072C119.436,221.66,119.553,221.9,119.672,222.121Zm3.289-.219a1.408,1.408,0,0,0,.256.259,1.06,1.06,0,0,0-.338-.406l0,.007A1.048,1.048,0,0,1,122.96,221.9Zm-8.49-.543a3.88,3.88,0,0,0,1.082.761h0a4.072,4.072,0,0,1-.921-.828A.757.757,0,0,0,114.47,221.359Zm8.235.551c.026.037.052.073.075.109l0-.021A.523.523,0,0,0,122.705,221.91Zm-1.953.044.007,0-.015-.015h0Zm-5.252-2.409a.794.794,0,0,0-.039.385c.094.659.96,1.339,2.02,1.991-.5-1.18-1.036-2.249-1.691-2.379A.71.71,0,0,0,115.5,219.545Zm3.374,1.991c.168.125.335.248.5.368-.1-.2-.2-.4-.294-.6l-.52-.255C118.663,221.209,118.768,221.373,118.874,221.536Zm-.57-.22c.142.165.287.333.434.5q-.065-.137-.132-.272Zm1.669.238c.153.076.3.151.449.227l-.092-.132c-.167-.117-.338-.234-.51-.351C119.871,221.384,119.922,221.469,119.973,221.554Zm-6,.027a.476.476,0,0,0-.175.117.145.145,0,0,0,.032.073A1.949,1.949,0,0,1,113.972,221.58Zm.754-1.313a4.163,4.163,0,0,0,1.575,1.5c-.581-.8-1.129-1.473-1.488-1.5A.231.231,0,0,0,114.726,220.267Zm.095,1a3.231,3.231,0,0,0,.428.417,3.58,3.58,0,0,0-.34-.411h0A.734.734,0,0,0,114.821,221.262Zm-.488.192,0,0,0,0Zm5.265-.085.1.049q-.1-.165-.195-.334l-.032-.021.026.063Zm2.64.007.062.037-.1-.076Zm1-.178a.649.649,0,0,0,.262.094.336.336,0,0,0,.277-.108.243.243,0,0,0,.028-.034,1.072,1.072,0,0,1-.5.059Zm-3.608-.231.46.31c-.1-.162-.2-.33-.305-.5-.158-.223-.313-.456-.466-.694l-.272-.143.209.369C119.378,220.529,119.5,220.75,119.628,220.968Zm-.423.21.077.038.09.044-.028-.068-.121-.293-.216-.143Q119.105,220.966,119.2,221.177Zm-1.464-.517c.226.183.461.366.7.547q-.06-.118-.121-.234l-.045-.071c-.2-.1-.394-.2-.584-.3Zm-3.24.432a.215.215,0,0,0-.036.03.154.154,0,0,0-.046.076.948.948,0,0,1,.115-.051Zm7.708.049,0,0a5.291,5.291,0,0,0-1.094-.7q.151.112.3.224A8.593,8.593,0,0,1,122.208,221.141Zm-7.224-.029a1.015,1.015,0,0,1,.114.029,3.081,3.081,0,0,1-.574-.564.708.708,0,0,0,.008.119.865.865,0,0,0,.06.206l.024,0A.692.692,0,0,1,114.984,221.111Zm3.418-.33c.186.093.374.186.563.279l-.174-.373-.051-.111c-.259-.172-.51-.34-.749-.5C118.132,220.3,118.269,220.534,118.4,220.782Zm4.437.1a1.34,1.34,0,0,0,.487.166.91.91,0,0,0,.47-.069,5.216,5.216,0,0,0-1.734-1.031A8.542,8.542,0,0,0,122.839,220.878Zm-1.378.085.148.075-.018-.015Zm.4-1.3a5.623,5.623,0,0,1,2.082,1.23,1.281,1.281,0,0,0,.116-.082,1.565,1.565,0,0,0-.366-.648,1.583,1.583,0,0,1-.444-.336,2.641,2.641,0,0,1-1.131-.784c-.331-.175-.685-.344-1.048-.508l.2.282C121.468,219.112,121.667,219.4,121.861,219.667ZM120.57,220a7.806,7.806,0,0,1,1.509.819c-.14-.25-.286-.52-.439-.8l-.01-.018c-.1-.126-.208-.258-.31-.4-.451-.208-.921-.427-1.375-.659C120.158,219.284,120.367,219.642,120.57,220Zm3.395.245a1.619,1.619,0,0,1,.232.448l0,0a.8.8,0,0,0,.286-.594A.779.779,0,0,1,123.965,220.245Zm-6.6-.01c.232.132.478.263.731.394l-.248-.4-.273-.44a8.345,8.345,0,0,1-1.288-1.054l-.022,0a1.076,1.076,0,0,0-.433.01c.039.067.085.136.136.206A4.971,4.971,0,0,1,117.37,220.235Zm1.5.23.189.126.046.03c-.121-.288-.243-.572-.367-.846l-.214-.121-.052-.026C118.605,219.9,118.738,220.178,118.871,220.464Zm-4.083-.372.039,0a1.4,1.4,0,0,1,.763.509,1.452,1.452,0,0,1-.295-.65.957.957,0,0,1,.013-.344,1.747,1.747,0,0,0-.484.359,1.381,1.381,0,0,0-.116.131A.4.4,0,0,1,114.788,220.092Zm6.984-.181c.122.147.244.283.365.408-.126-.162-.254-.336-.387-.519l-.052-.024Zm-4.039-.219c.276.194.571.393.871.594-.127-.269-.254-.535-.382-.788a7.693,7.693,0,0,1-.886-.537l-.118-.047q.188.285.4.632Q117.679,219.617,117.733,219.693Zm2.028.159.049.023c.231.109.46.217.683.325h0l-.188-.13C120.126,219.995,119.944,219.922,119.761,219.852Zm-.275.066.376.165-.123-.058-.262-.124Zm4.3.111a.674.674,0,0,0,.157.045.633.633,0,0,0,.506-.161.854.854,0,0,0-.065-.143,1.1,1.1,0,0,1-.131-.106,1.233,1.233,0,0,1-.617.212Q123.719,219.952,123.789,220.03Zm-8.236-1.187a2.3,2.3,0,0,0-.605.453.88.88,0,0,0-.3.615l.057-.06a1.7,1.7,0,0,1,.671-.447,1.392,1.392,0,0,1,.262-.376A1.215,1.215,0,0,1,115.553,218.843Zm3.441.171c.429.272.875.558,1.308.851-.211-.365-.43-.733-.656-1.079a11.291,11.291,0,0,1-1.165-.7C118.646,218.376,118.817,218.689,118.994,219.014Zm-2.614.418c.117.125.246.252.384.382C116.626,219.67,116.5,219.541,116.379,219.432Zm2.491.2.232.109-.019-.03-.233-.113Zm4.572.068a.982.982,0,0,0,.546-.078l-.064-.007a2.2,2.2,0,0,1-1.244-.851,6.627,6.627,0,0,0,.489.726Q123.313,219.6,123.442,219.7Zm1.07-.047a.339.339,0,0,0,.116.043h0a.24.24,0,0,0,0-.085.412.412,0,0,0-.033-.117,1.264,1.264,0,0,1-.151.066C124.473,219.593,124.494,219.624,124.513,219.655Zm.267-.158a.508.508,0,0,1,.022.1q0,.019,0,.038l0,0a.047.047,0,0,0,.018-.046A.194.194,0,0,0,124.779,219.5Zm-5.532-.015.393.145-.483-.311Zm-.681,0,.035.017-.021-.036-.25-.127,0,.009Zm4.088-1.011a2.3,2.3,0,0,0,1.294.978.948.948,0,0,0,.122.01q-.078-.1-.16-.212A7.894,7.894,0,0,0,122.654,218.475Zm-7,.886a.876.876,0,0,1,.171.017.953.953,0,0,1,.113.03,2.193,2.193,0,0,1-.2-.236,1.319,1.319,0,0,0-.146.192Zm8.38-.227a2.737,2.737,0,0,1,.292.272c.036-.031.072-.065.109-.1l.028-.03-.052-.06c-.143-.087-.317-.182-.51-.283Q123.966,219.039,124.032,219.134Zm-5.34.148.162.058-.21-.35-.148-.094Q118.6,219.083,118.692,219.282Zm1.073-.62c.44.232.9.453,1.353.663-.244-.344-.485-.711-.72-1.081l-.573-.245c-.285-.121-.559-.238-.816-.351A8.921,8.921,0,0,1,119.765,218.662Zm-3.081.224c.151.134.328.276.523.424A2.334,2.334,0,0,0,116.684,218.886Zm5.53.026c.2.105.387.213.566.323-.2-.292-.39-.63-.585-.992-.255-.125-.519-.25-.785-.374A8.529,8.529,0,0,0,122.214,218.912Zm2.476.291.031.023a1.94,1.94,0,0,0,.2-.18l.029-.03-.011,0a.9.9,0,0,1-.274-.09.454.454,0,0,1,.029.095A.384.384,0,0,1,124.69,219.2Zm-6.367-.052.085.031c-.122-.2-.244-.394-.366-.574l-.207-.134c.12.184.24.389.358.61Zm6.191-.064.025.015a.228.228,0,0,0,0-.051c-.047-.249-.465-.525-1.048-.818l.016.028A6.217,6.217,0,0,1,124.515,219.086Zm-7.642-.839a7.1,7.1,0,0,0,1.048.687,5.283,5.283,0,0,0-.483-.726,6.439,6.439,0,0,1-.609-.456l-.024,0a.509.509,0,0,0-.231.012.986.986,0,0,0,.065.2A2.7,2.7,0,0,0,116.873,218.247Zm-.495.337a1.7,1.7,0,0,1,.644.333l-.082-.122a4.2,4.2,0,0,1-.68-.361A1.625,1.625,0,0,0,116.378,218.584Zm4.293-.222c.119.185.239.367.36.546-.1-.174-.2-.348-.3-.52Zm2.57.242c.148.085.287.171.417.257l-.044-.073Zm1.2-.049a1.058,1.058,0,0,0,.533.295.555.555,0,0,0,.11.006.764.764,0,0,0,.059-.117h-.008a1.18,1.18,0,0,1-.48-.186A1,1,0,0,1,124.436,218.555Zm.878.184q-.011.034-.024.068a.834.834,0,0,0,.171-.1A.722.722,0,0,1,125.314,218.739Zm-1.581-.077.123.062-.155-.117Zm-2.848-.387c.32.141.636.287.94.437a10.933,10.933,0,0,1-.7-.976l-.044-.02c-.283-.132-.563-.262-.835-.392.147.211.292.433.433.66Zm-2.557.316.13.083-.111-.188c-.216-.367-.436-.739-.635-1.052a2.357,2.357,0,0,1-.354-.482,1.189,1.189,0,0,0-.54.288,1.02,1.02,0,0,1,.115.016C117.457,217.361,117.911,217.877,118.327,218.591Zm-2.648-.221a1.127,1.127,0,0,0,.079.222,1.249,1.249,0,0,1,.383-.042.782.782,0,0,1-.159-.361v-.006a.537.537,0,0,1-.1-.2A.942.942,0,0,0,115.679,218.369Zm9.208.124a.877.877,0,0,0,.263.08l.03,0a.7.7,0,0,0,0-.178c0-.02-.006-.039-.01-.059A1.249,1.249,0,0,1,124.887,218.493Zm.425-.269a1,1,0,0,1,.033.152.862.862,0,0,1,0,.188.7.7,0,0,0,.344-.2,2.082,2.082,0,0,0,.2-.224.729.729,0,0,0,.028-.133.833.833,0,0,1-.334.026.909.909,0,0,1-.092-.016.653.653,0,0,1-.11.143Q125.347,218.193,125.312,218.224Zm-3.031-.27.607.294q.31.15.575.279l-.085-.151c-.309-.214-.653-.436-1.006-.66l-.24-.105-.1-.042Q122.157,217.768,122.281,217.955Zm-6.134.169a2.09,2.09,0,0,0,.6.4,3.336,3.336,0,0,0-.491-.573l-.047.045A.207.207,0,0,0,116.147,218.124Zm2.121-.4a8.734,8.734,0,0,0,1.177.766,6.527,6.527,0,0,0-.851-1.027c-.273-.126-.52-.248-.734-.368C117.992,217.279,118.128,217.491,118.268,217.723Zm5.959.617a1,1,0,0,0,.182.045l.012,0q-.065-.053-.13-.112a1.165,1.165,0,0,1-.162-.051Q124.178,218.283,124.227,218.34Zm.351-.041q.055.043.109.08a1,1,0,0,0,.43-.208l-.016-.038A1.171,1.171,0,0,1,124.578,218.3Zm-7.029-.217.229.154a2.033,2.033,0,0,0-.987-.829.545.545,0,0,0-.058,0,.841.841,0,0,0,.175.2A1.4,1.4,0,0,1,117.549,218.082Zm5.326-1a4.5,4.5,0,0,0,.983,1.059c-.032-.044-.064-.089-.1-.135a6.547,6.547,0,0,1-1.513-2.2l-.1-.057C122.4,216.189,122.641,216.642,122.875,217.085Zm-2.364,1.026.07.03-.033-.054c-.119-.167-.24-.332-.361-.493C120.293,217.766,120.4,217.939,120.511,218.111Zm3.86.009h.007a.929.929,0,0,0,.648-.135,2.058,2.058,0,0,0-.181-.255h-.008a2.4,2.4,0,0,1-1.374-1.155c-.171-.115-.35-.23-.532-.345A10.578,10.578,0,0,0,124.37,218.12Zm.871-.078.007.014.016-.016a.593.593,0,0,0,.043-.048Zm-1.893-.065.1.05q-.083-.078-.165-.165Zm-4.656-.654c.37.17.78.345,1.2.523l.351.15-.284-.454c-.109-.175-.217-.349-.324-.518a5.8,5.8,0,0,1-1.9-1.321q-.051.008-.1.02a.847.847,0,0,0-.154.08,1.088,1.088,0,0,0-.107.691c0,.014.006.029.009.044a2.12,2.12,0,0,1,.155.15c.038.029.08.058.124.087l.04,0A1.91,1.91,0,0,1,118.692,217.323Zm5.191.568c.033.025.067.048.1.069-.083-.092-.167-.192-.251-.3Q123.807,217.781,123.883,217.891Zm-7.843-.046a.233.233,0,0,0,0,.1.416.416,0,0,1,.053-.064l.019-.019a.2.2,0,0,0-.05-.013Zm9.112.034.01.016.008-.006Zm.764-.049a.957.957,0,0,1-.123.033.682.682,0,0,0,.123-.031Zm-3.465-.26c.226.1.442.2.645.289-.089-.167-.181-.341-.275-.52l-.079-.149a18.251,18.251,0,0,1-1.045-1.7l-.279-.163c-.334-.194-.652-.379-.944-.555q.113.2.228.406a21.6,21.6,0,0,1,1.122,2l.152.1Zm-1.38-.23c.294.158.593.31.887.457l-.117-.225-.071-.119c-.29-.128-.583-.26-.87-.395C120.956,217.152,121.013,217.246,121.07,217.339Zm-4.951.347a.419.419,0,0,1,.079.028q-.019-.038-.036-.077C116.147,217.654,116.133,217.67,116.12,217.686Zm9.482.026a.707.707,0,0,0,.275-.043,1.082,1.082,0,0,0-.081-.177l-.066.043A1.257,1.257,0,0,1,125.6,217.712Zm.391-.2c.014.03.026.059.037.089.023-.013.046-.027.07-.042A.454.454,0,0,1,125.993,217.51Zm-9.424-.066a.879.879,0,0,0-.012.149.719.719,0,0,1,.1-.016A.565.565,0,0,1,116.569,217.443Zm7.317-.571a2.148,2.148,0,0,0,.734.615A6.581,6.581,0,0,0,123.886,216.872Zm-7.493.6,0,.012s0-.01,0-.014Zm3.647-.433c.3.146.609.292.919.437l-.007-.012c-.367-.2-.726-.4-1.063-.62Q119.966,216.939,120.04,217.039Zm4.942.328c.025.007.049.014.074.018a.788.788,0,0,0,.133.016,2.907,2.907,0,0,0-.485-.4A2.675,2.675,0,0,0,124.983,217.367Zm1.094,0a.3.3,0,0,0,.051.024c0-.016,0-.032-.006-.048Zm.194-.126q.007.03.012.059l0,.015a.364.364,0,0,0,.051-.1l-.01-.016Zm-1.644-.813c.288.475.591.805.917.871.02,0,.04.007.06.009l.051-.025A4.37,4.37,0,0,0,124.627,216.43Zm-8.209.375a1.026,1.026,0,0,0-.062.489.785.785,0,0,1,.088-.034,1.837,1.837,0,0,1,.474-.716.2.2,0,0,1,.081-.05.42.42,0,0,0-.083-.021.367.367,0,0,0-.323.127A1.551,1.551,0,0,0,116.418,216.8Zm6.1-.829a9.613,9.613,0,0,0,.784,1.3c-.212-.363-.424-.759-.64-1.162l-.054-.087Zm-3.054.379a12.814,12.814,0,0,0,1.317.826q-.075-.126-.149-.252a9.549,9.549,0,0,1-1.383-.8l.034.049Q119.373,216.261,119.463,216.354Zm6.287.416a.811.811,0,0,1,.085.231.686.686,0,0,1,.012.164,2.147,2.147,0,0,0,.17-.139,1.507,1.507,0,0,0-.091-.157Q125.844,216.819,125.75,216.77Zm-1.345.2a1.932,1.932,0,0,0,.205.191c-.076-.112-.151-.234-.223-.366q-.107-.065-.221-.131C124.246,216.773,124.325,216.876,124.4,216.973Zm-7.349-.322a.026.026,0,0,0-.019.01,1.9,1.9,0,0,0-.372.495,1.441,1.441,0,0,1,.6-.35.423.423,0,0,0-.2-.154Zm9.455.358c0,.013,0,.027.005.04a.594.594,0,0,1,0,.1.465.465,0,0,0,.031-.222c0-.012,0-.025,0-.037A.253.253,0,0,1,126.511,217.009Zm-5.761-.207c.214.1.434.206.656.306-.259-.164-.516-.329-.763-.492Zm-.291-.51c.329.224.677.449,1.026.67-.19-.336-.375-.68-.555-1.014-.127-.236-.253-.469-.377-.694a4.6,4.6,0,0,0-.751-.9c-.13-.087-.25-.171-.359-.253a1.165,1.165,0,0,0-.364-.125l-.038-.005a8.486,8.486,0,0,1,1.091,1.732C120.236,215.891,120.345,216.089,120.459,216.291Zm4.957.316c.075.108.147.209.216.3a1.031,1.031,0,0,0-.2-.294Zm-1.835-.152c.152.1.3.207.438.311-.066-.091-.131-.189-.195-.292q-.171-.094-.353-.189Q123.525,216.371,123.58,216.455Zm.935.227.129.082a5.353,5.353,0,0,1-.316-.52l-.043-.026C124.36,216.382,124.437,216.537,124.515,216.681Zm2.169.064a.2.2,0,0,0,.164-.069c.43-.43.606-.807.522-1.119l-.006-.02a2.554,2.554,0,0,1-.392.485.765.765,0,0,1-.517.253A1.719,1.719,0,0,1,126.684,216.745Zm-8.749-1.056a5.606,5.606,0,0,0,1.519,1.053l-.113-.174a3.15,3.15,0,0,0-1.092-.832,1.36,1.36,0,0,0-.163-.034A1.221,1.221,0,0,0,117.935,215.688Zm8.231.978.026.01h0q-.036-.055-.079-.112c-.057-.043-.122-.087-.194-.133a1.521,1.521,0,0,0,.1.123A1.336,1.336,0,0,1,126.166,216.666Zm-1.346-.312c.157.1.3.21.438.316l-.128-.189C125.029,216.439,124.926,216.4,124.819,216.354Zm-6.349-1.8a.887.887,0,0,0,0,.34c.125.664.975,1.246,2.012,1.774l-.147-.26C119.368,215.748,118.6,215.108,118.47,214.554Zm7.052,1.917.129.061-.021-.021-.146-.077Zm-1.576-.121q.153.084.3.167c-.069-.141-.138-.289-.2-.444l-.106-.06-.113-.042-.108-.041C123.786,216.078,123.865,216.219,123.946,216.351Zm2.234-.055a1.146,1.146,0,0,1,.171.121c-.035-.057-.075-.115-.119-.174a.885.885,0,0,1-.123-.05Q126.145,216.246,126.18,216.3Zm-9.314.006a.507.507,0,0,1,.074.005.559.559,0,0,1,.08.018c0-.013-.007-.027-.01-.04a.428.428,0,0,1,.031-.262,2.516,2.516,0,0,0-.223.2q-.051.051-.1.1A.48.48,0,0,1,116.866,216.3Zm.345-.245a.276.276,0,0,0-.038.2.333.333,0,0,0,.011.041A1.215,1.215,0,0,1,117.211,216.056Zm8.334.154.054.048-.017-.027Zm-2.8-.292c.171.1.34.21.5.316l-.057-.1-.454-.234Zm1.65.092c.188.071.369.141.54.21-.152-.1-.322-.2-.505-.292l-.052-.024-.048-.022Zm-1.087,0,.312.164q-.12-.18-.239-.368l-.235-.089Q123.226,215.868,123.308,216.011Zm3.021.086.044.008a.561.561,0,0,0,.482-.2c.031-.031.061-.062.089-.093a1.514,1.514,0,0,1-.378-.265c-.353-.071-.647-.411-.919-.88l-.3-.308-.3-.088.195.37c.119.227.237.451.352.664A6.526,6.526,0,0,1,126.328,216.1Zm-7.523-2.076a.04.04,0,0,0-.03.015.48.48,0,0,0-.157.411c.052.459.693,1.034,1.528,1.628l-.162-.293c-.469-.85-.954-1.73-1.173-1.761Zm6.224,2.005.037.018-.047-.033Zm.416-.361q.163.137.306.271l-.011-.019a4.042,4.042,0,0,1-.474-.583C125.328,215.448,125.387,215.559,125.446,215.665Zm-1.293.254.01,0-.066-.137Zm.366-.132.231.107-.032-.051-.03-.012-.342-.133Zm-1.921-.141.094.048.35.179q-.066-.121-.13-.246c-.138-.054-.276-.108-.412-.163Zm2.14-.082c.219.088.423.175.608.263l-.03-.054c-.259-.217-.554-.442-.866-.67l.071.113Zm-1.186.054q.193.1.379.2l-.062-.153-.378-.179Zm-5.076-.184a3.381,3.381,0,0,0,.325.367A3.516,3.516,0,0,0,118.475,215.433Zm8.348.115a.7.7,0,0,0,.163.1.309.309,0,0,0,.1-.2A.874.874,0,0,1,126.823,215.548Zm-8.518.031q.05.014.1.032a2.513,2.513,0,0,1-.272-.4.353.353,0,0,0-.056-.011.244.244,0,0,0-.211.081c-.045.045-.087.09-.126.135a1.074,1.074,0,0,0,.056.1.97.97,0,0,1,.2,0A1.215,1.215,0,0,1,118.306,215.579Zm6.142-.129.029.011-.1-.157-.286-.458-.324-.227c.082.2.165.4.249.589C124.165,215.288,124.309,215.368,124.448,215.45Zm2.788-.095c0,.007,0,.014,0,.022s0,.021,0,.031c.01-.019.02-.038.03-.057l-.012-.017Zm-4.3-.057.191.1-.06-.1-.166-.071Zm3.7.09a.618.618,0,0,0,.394-.095,3.43,3.43,0,0,0-1.288-.8l.043.076C126.111,214.9,126.411,215.19,126.635,215.389Zm-2.419-.66c.316.225.618.446.894.663q-.117-.221-.249-.473l-.026-.05c-.332-.274-.691-.552-1.056-.824C123.928,214.273,124.073,214.5,124.216,214.729Zm-2.357.535.162.085-.051-.107-.172-.076Zm.514-.033.288.118-.308-.154Zm-4.428-.755a.807.807,0,0,0-.28.711c0,.017.007.034.011.05.024-.026.049-.052.075-.078a.4.4,0,0,1,.3-.132,1.5,1.5,0,0,1-.088-.307A1.315,1.315,0,0,1,117.944,214.476Zm4.271.464.137.068.334.167-.022-.046-.1-.041Zm-3.964.133a.825.825,0,0,1,.114.061,1.115,1.115,0,0,1,.135-1.074,1.659,1.659,0,0,0-.375.245,1.138,1.138,0,0,0,0,.387A1.428,1.428,0,0,0,118.252,215.074Zm7.485-.766a3.969,3.969,0,0,1,1.544.792l.035-.034a.185.185,0,0,0,.059-.124.645.645,0,0,0-.005-.066,1.524,1.524,0,0,0-.5-.652,1.724,1.724,0,0,1-.361-.271,8.944,8.944,0,0,0-1.282-.538c.128.288.257.576.39.838Zm-5.55-.014c.378.256.813.508,1.266.754l-.032-.059a6.634,6.634,0,0,1-1.3-.794Zm1.44.607.232.108-.037-.079-.266-.134Zm1.544-.128c.147.072.293.145.437.22-.079-.212-.158-.429-.237-.647l-.518-.353,0,0C122.953,214.248,123.061,214.512,123.171,214.772Zm-.144.149.028.011-.033-.018Zm1.738-.728c.145.256.291.506.436.736l-.111-.212c-.087-.166-.177-.337-.268-.509Zm-2.074.6.084.032-.045-.075-.079-.045Zm-2.454-.727a6.061,6.061,0,0,0,1.042.66l-.057-.105C120.858,214.433,120.525,214.248,120.237,214.067Zm1.633.289c.185.116.384.228.591.335l-.045-.1-.344-.163-.221-.1Zm.968.254.105.051c-.1-.244-.2-.491-.3-.737l-.042-.1-.435-.3C122.387,213.867,122.611,214.235,122.838,214.61Zm1.132-.631c.228.171.453.344.669.515q-.1-.195-.209-.392l-.183-.049Zm-.317.357.209.145c-.133-.209-.269-.418-.406-.625l.129.315Zm-1.12.11.018.011-.05-.083Zm4.881-.149a.265.265,0,0,0,.151.057,1.313,1.313,0,0,0,.229-.3l-.024-.013q-.028.035-.063.07A.734.734,0,0,1,127.413,214.3Zm-6-.621a7.259,7.259,0,0,0,.864.619c-.081-.183-.162-.366-.241-.547l-.147-.336-.1-.144c-.383-.269-.732-.523-1.024-.76a11.122,11.122,0,0,1,.628,1.148Zm5.8.483a.486.486,0,0,0,.366-.166q.026-.026.048-.052a1.65,1.65,0,0,1-.2-.236,1.994,1.994,0,0,1-.614-.516c-.168-.056-.346-.111-.523-.165-.14-.043-.281-.086-.419-.13l.044.065,0,0C126.344,213.371,126.873,213.883,127.221,214.158Zm-1.854-.014.011,0c-.122-.252-.241-.522-.362-.8l-.005-.012c-.2-.066-.392-.13-.585-.193l.039.068.244.252C124.921,213.687,125.145,213.918,125.367,214.144Zm-2.631-.434.211.143.327.223-.12-.327c-.16-.048-.314-.1-.462-.148Zm-3.942-.383a.55.55,0,0,0-.168.12,1.9,1.9,0,0,0-.421.592,1.454,1.454,0,0,1,.472-.212q.062-.072.133-.143.048-.048.1-.091a.6.6,0,0,1-.114-.262Zm.487.209a3.851,3.851,0,0,0,.52.478,3.029,3.029,0,0,0-.44-.514C119.334,213.512,119.308,213.524,119.281,213.537Zm5.576.386.106.047-.183-.188Zm3.192-.185a.828.828,0,0,1-.027.18.294.294,0,0,0,.1-.069,1.636,1.636,0,0,0,.3-.386l-.052.054A.979.979,0,0,1,128.049,213.738ZM123.6,213.7c.227.064.458.126.688.187l.03.008-.026-.047a9.438,9.438,0,0,1-.988-.514q.1.148.205.3Zm-3.868-.262a4.4,4.4,0,0,0,.667.456,3.825,3.825,0,0,1-.575-.445l-.023,0C119.779,213.447,119.756,213.444,119.733,213.443Zm1.4.351.145.071-.141-.222a2.6,2.6,0,0,1-.449-.545l-.029-.025A1.75,1.75,0,0,0,121.135,213.794Zm3.4-.015.075.034c-.092-.168-.186-.335-.281-.5l-.135-.139c.112.2.224.4.335.594Zm-5.6.018a1.093,1.093,0,0,1,.162.012q-.045-.044-.084-.087c-.027.023-.053.048-.08.075Zm8.78-.009,0,0v0Zm-.413-.6a1,1,0,0,1,.564.428l.012,0c0-.01,0-.021-.005-.031a1.747,1.747,0,0,0-.849-.965l-.039-.011.029.053C127.108,212.842,127.206,213.023,127.3,213.19Zm.239.382a.7.7,0,0,0,.129.04.744.744,0,0,0-.21-.161C127.487,213.494,127.514,213.534,127.541,213.572Zm-4.451-.582a6.468,6.468,0,0,0,1.063.612c-.132-.232-.267-.46-.406-.676-.3-.1-.581-.2-.827-.306C122.978,212.74,123.034,212.864,123.09,212.99Zm4.354-.266a1.517,1.517,0,0,1,.592.83v.007a.873.873,0,0,0,.215-.162,1.563,1.563,0,0,0,.12-.134c-.034-.061-.072-.136-.118-.225a.284.284,0,0,1-.114,0,.526.526,0,0,1-.309-.233l-.2-.043Zm-4.837.67c.15.055.309.107.474.158l-.01-.027c-.2-.143-.392-.282-.582-.417Q122.548,213.249,122.607,213.394Zm-.16.119.04.028-.006-.015Zm2.685-.306c.3.1.587.206.857.317-.272-.2-.556-.4-.821-.583l-.224-.157C125.006,212.922,125.069,213.064,125.132,213.207Zm-6,.137c.014.021.03.042.045.063l.036-.019A.76.76,0,0,0,119.129,213.343Zm.452-.473a4.835,4.835,0,0,0,.729.489,1.768,1.768,0,0,1-.316-.628h0a.881.881,0,0,0-.448.051C119.553,212.812,119.566,212.842,119.581,212.871Zm7.579.442.041.037-.016-.027Zm-5.221-.21a4.187,4.187,0,0,0,.454.21c-.055-.132-.109-.263-.164-.389l-.007,0-.545-.389C121.764,212.711,121.851,212.9,121.94,213.1Zm2.861-.622c.153.109.31.218.462.325.229.16.459.321.68.48q-.078-.108-.154-.22l-.32-.309a3.588,3.588,0,0,1-.691-.323Zm-5.24.673a1.186,1.186,0,0,0,.042.124l.053,0C119.622,213.235,119.59,213.194,119.561,213.153Zm9.095-.039a.568.568,0,0,1,0,.159.148.148,0,0,0,.024-.112A.135.135,0,0,0,128.656,213.114Zm-8.361-.077a2.034,2.034,0,0,0,.154.234C120.4,213.188,120.344,213.11,120.294,213.037Zm2.07-.222.6.427-.078-.2a1.412,1.412,0,0,1-.463-.6q-.071-.085-.141-.165a.934.934,0,0,1-.275-.294l-.071-.07C122.079,212.178,122.221,212.483,122.365,212.815Zm-3.338.323a.733.733,0,0,1,.261.1.871.871,0,0,1-.083-.174c-.011-.021-.021-.042-.031-.064Q119.1,213.064,119.026,213.138Zm5.269-.207.109.035.514.168c-.082-.185-.166-.369-.25-.545-.791-.563-1.263-.945-1.287-1.216a.22.22,0,0,1,.023-.123.766.766,0,0,0-.324.14A6.251,6.251,0,0,1,124.3,212.931Zm4.108.036.072.139.006-.012a.414.414,0,0,0-.056-.119Zm-1.492.076.146.051c-.063-.113-.126-.232-.191-.353l-.11-.2a1.854,1.854,0,0,1-.3-.133A6.237,6.237,0,0,0,126.911,213.044Zm-7.551-.036,0,.008a1.236,1.236,0,0,1-.009-.131l-.007-.007-.012.007a.432.432,0,0,0,0,.048A.507.507,0,0,0,119.36,213.008Zm1.024-.132q.043.06.087.125-.008-.04-.014-.08Zm-1.3-.637a.834.834,0,0,0-.163.628.9.9,0,0,0,.026.114,2.04,2.04,0,0,1,.168-.144l-.006-.028a.826.826,0,0,1-.006-.288.553.553,0,0,1-.024-.09A.481.481,0,0,1,119.086,212.239Zm6.64.429c.2.069.413.133.616.2l.288.089a9.826,9.826,0,0,1-.548-.847c-.319-.152-.639-.29-.92-.41l-.083-.035c.1.156.219.337.349.542C125.524,212.354,125.624,212.511,125.726,212.669Zm2.807.173h0v-.008l0,0Zm-7.832-.132.029.039-.033-.055Zm-.533-.108a1.368,1.368,0,0,1,.279.12c0-.02,0-.04,0-.06a4.6,4.6,0,0,0-.321-.368,1.041,1.041,0,0,0,0,.266Zm2.638-.216c.23.108.5.212.792.313-.115-.17-.232-.332-.35-.48-.191-.189-.367-.358-.516-.494a.978.978,0,0,0-.139.234q.052.1.1.214C122.733,212.242,122.77,212.313,122.806,212.385Zm1.019.177.106.108a7.347,7.347,0,0,0-.515-.7C123.553,212.147,123.69,212.348,123.825,212.562Zm-3.094-.309c.148.125.315.257.5.393a.713.713,0,0,1-.029-.085.68.68,0,0,1-.022-.133,3.92,3.92,0,0,0-.345-.362A1.748,1.748,0,0,0,120.731,212.253Zm.792-.042c.186.135.381.275.576.414a7.9,7.9,0,0,0-.451-.878,1.623,1.623,0,0,0-.211.3Q121.48,212.126,121.523,212.212Zm6.671.352.174.043.065.016-.039-.065a1.151,1.151,0,0,0-.191-.162c-.037-.012-.077-.024-.118-.036C128.123,212.43,128.159,212.5,128.194,212.564Zm-1.11-.1c.188.052.392.1.587.139l.032.007-.009-.016a2.433,2.433,0,0,1-.555-.246c-.117-.033-.235-.063-.348-.093l.025.046C126.908,212.355,127,212.409,127.084,212.465Zm-7.491-.013a1.334,1.334,0,0,0-.044.152,1.019,1.019,0,0,1,.34-.049.45.45,0,0,0-.213-.112A.168.168,0,0,0,119.593,212.452Zm1.748-.087q.091.109.183.229-.066-.14-.131-.271l-.044-.032A.583.583,0,0,0,121.341,212.365Zm-2.064.139.007.016.014-.02c0-.02,0-.04,0-.06C119.288,212.461,119.282,212.483,119.277,212.5Zm9.677-.162a.99.99,0,0,0,.1.138c.018-.024.023-.041.021-.049C129.071,212.4,129.023,212.371,128.954,212.342Zm-4.419-.669c.247.207.531.469.851.773l-.1-.155c-.17-.27-.344-.544-.5-.757l-.151-.069A.789.789,0,0,0,124.534,211.673Zm3.23.7c.06.022.119.046.175.07l-.074-.133-.149-.031Zm-7.591-.269a3.814,3.814,0,0,1,.315.338c0-.014.007-.027.011-.041a2.174,2.174,0,0,0-.308-.35C120.184,212.067,120.178,212.084,120.173,212.1Zm4.346-.222,0,.02c.053.212.29.386.611.538C124.928,212.244,124.717,212.051,124.519,211.88Zm-4.851.4.033,0a.565.565,0,0,1,.255.12,1.225,1.225,0,0,1,.031-.241,1.471,1.471,0,0,0-.173-.131A2.076,2.076,0,0,0,119.667,212.276Zm-.165-.2a1.123,1.123,0,0,0-.043.262l0,0a2.107,2.107,0,0,1,.2-.381l-.041-.014Q119.557,212.007,119.5,212.074Zm7.7.122c.113.031.224.064.333.1l-.029-.06c-.126-.026-.249-.052-.363-.082C127.167,212.167,127.187,212.181,127.207,212.2Zm-3.58-.9a.087.087,0,0,0-.064.023.051.051,0,0,0-.016.046c.016.18.44.529.96.91a2.46,2.46,0,0,0-.709-.924A.411.411,0,0,0,123.627,211.291Zm-2.489.846.059.064,0-.017Zm6.845-.06c.066.033.129.067.189.1l-.035-.059Zm-5.6.067h0a.759.759,0,0,1,.024-.144,4.135,4.135,0,0,0-.263-.394.329.329,0,0,0-.024.213.348.348,0,0,0,.028.076Q122.264,212.012,122.381,212.143Zm-2.089-.3a3.714,3.714,0,0,0,.276.273,1.25,1.25,0,0,1,.088-.188,1.264,1.264,0,0,0-.308-.173C120.328,211.779,120.309,211.809,120.292,211.838Zm6.385.216.1.027.1.026a.534.534,0,0,1-.031-.054.512.512,0,0,1-.321-.292.309.309,0,0,1-.012-.065l-.078-.029C126.521,211.791,126.6,211.921,126.677,212.054Zm1.788-.025h0l.116.028c-.107-.177-.237-.386-.366-.557l-.163-.048c.073.1.143.2.21.3S128.4,211.947,128.465,212.03Zm-1.487-.105a3.42,3.42,0,0,0,.444.121l-.017-.035c-.146-.055-.3-.107-.439-.157a.307.307,0,0,0,.011.066Zm1.512-.326c.092.139.183.288.269.431l.006.01a.235.235,0,0,0,.048-.184l-.136-.142-.039-.041A1.286,1.286,0,0,0,128.489,211.6Zm-2.191.352.149.042q-.059-.1-.119-.191A.376.376,0,0,0,126.3,211.951Zm-5.3-.127.213.162c-.048-.087-.1-.169-.143-.246Q121.037,211.782,121,211.824Zm-1.092.069c.042.027.085.058.128.092l.015-.038a.655.655,0,0,0-.135-.065Zm7.858-.072a2.153,2.153,0,0,0,.238.087,2.732,2.732,0,0,0-.445-.559.508.508,0,0,0-.053.1C127.6,211.566,127.686,211.692,127.769,211.822Zm-.244.056,0,0,0,0Zm-6.335-.263q.077.121.154.26a2.055,2.055,0,0,1,.209-.271l-.019-.027c-.061-.043-.121-.082-.181-.116q-.066.056-.133.123Zm4.483-.326h.015c.106.014.2.161.449.582a.675.675,0,0,1,.085-.229l-.064-.088c-.207-.1-.327-.188-.353-.3a.2.2,0,0,1,0-.087.783.783,0,0,0-.377-.187.7.7,0,0,0-.6.26l-.033.034q.048.059.1.129l.329.143.234.1a.351.351,0,0,1,.131-.322A.112.112,0,0,1,125.673,211.288Zm1.045.48a.326.326,0,0,0,.08.07c0-.014,0-.028,0-.042Zm-1.038-.3a.164.164,0,0,0-.055.14c.02.074.129.143.287.208A2.58,2.58,0,0,0,125.681,211.472Zm1.313.216.3.1a2.19,2.19,0,0,0-.188-.3A.813.813,0,0,0,126.994,211.687Zm-4.709-.285c.073.116.144.241.214.373a1.305,1.305,0,0,1,.109-.161,1.749,1.749,0,0,0-.281-.214l-.015-.007-.012,0Zm-.478.179q.07.058.14.122a.585.585,0,0,1,.082-.236l-.028-.032A.985.985,0,0,0,121.807,211.581Zm-1.23-.113c.064.062.148.134.248.215q.053-.062.115-.124l.01-.009a2.03,2.03,0,0,0-.2-.246q-.065.054-.131.12Zm-.706-.053a2.528,2.528,0,0,0-.184.256.813.813,0,0,1,.223-.1.535.535,0,0,1-.039-.15Zm.579.2c.026.011.053.023.079.037l-.061-.058Zm6.253-.025.134.047a1.022,1.022,0,0,1,.153-.265.331.331,0,0,0-.083-.049l-.02.02A.844.844,0,0,0,126.7,211.587Zm-6.483-.041.062.011q.035-.046.073-.091l-.017-.023A1.094,1.094,0,0,0,120.22,211.546Zm6.3-.026.028.01a.586.586,0,0,1,.043-.087Q126.551,211.483,126.518,211.52Zm.7-.16a1.534,1.534,0,0,1,.109.152c0-.009,0-.018,0-.027-.036-.044-.072-.087-.108-.128Zm-6.837-.263a.407.407,0,0,0-.283.142.188.188,0,0,0-.058.161.352.352,0,0,0,.017.077l.046-.046a1.235,1.235,0,0,1,.178-.148.136.136,0,0,1,.039-.086,1.335,1.335,0,0,1,.107-.1A.3.3,0,0,0,120.379,211.1Zm1.281.369.015.011a1.214,1.214,0,0,1,.205-.164l-.033-.029a.894.894,0,0,0-.286.053Q121.611,211.4,121.66,211.466Zm4.6-.047.089.038q.059-.071.133-.146a.483.483,0,0,1,.376-.172.7.7,0,0,1,.073-.049.854.854,0,0,0-.369-.169.631.631,0,0,0-.55.212A2.649,2.649,0,0,1,126.264,211.419Zm-5.292-.112q.05.061.1.131.045-.038.091-.071A1.124,1.124,0,0,0,120.972,211.307Zm8.238.11.052.007a.189.189,0,0,1-.019-.02Zm-.893-.059.012,0-.032-.029Zm-.975-.111.052.059c.01-.018.022-.037.035-.055l-.047-.025A.322.322,0,0,0,127.342,211.247Zm.5-.032c.05.017.108.034.163.051a.347.347,0,0,0-.171-.093.117.117,0,0,0-.039,0Zm-.781,0,.038.029.006-.006-.03-.028Zm-2.667-.07a.972.972,0,0,0,.147.089.29.29,0,0,0-.144-.089Zm-2.1.043a.736.736,0,0,1,.1.007l.03,0a1.075,1.075,0,0,0-.176-.043.961.961,0,0,0-.142-.011l0,0a1.287,1.287,0,0,1,.139.041Zm-1.3-.045a1.241,1.241,0,0,1,.19.056.664.664,0,0,0-.141-.078Zm.282-.082a1.247,1.247,0,0,1,.158.135,1.525,1.525,0,0,1,.143-.083.7.7,0,0,0-.133-.041A.612.612,0,0,0,121.275,211.06Zm.047-.168a.785.785,0,0,1,.155.015.94.94,0,0,1,.3.122l.018-.005a1.16,1.16,0,0,0-.577-.367,1.029,1.029,0,0,0-.867.275.455.455,0,0,1,.111.008.537.537,0,0,1,.138.047.6.6,0,0,1,.39-.055l.047.011A.844.844,0,0,1,121.322,210.892Z" transform="translate(-110.357 -210.472)" fill="#e62b1e"/>
        </g>
      </g>
    </g>
  </g>
</svg>
