<?xml version="1.0" encoding="UTF-8"?>
<svg width="998px" height="540px" viewBox="0 0 998 540" version="1.1" xmlns="http://www.w3.org/2000/svg" xmlns:xlink="http://www.w3.org/1999/xlink">
    <title>Group</title>
    <g id="Page-1" stroke="none" stroke-width="1" fill="none" fill-rule="evenodd">
        <g id="Group" transform="translate(1.339861, 0.965672)" fill-rule="nonzero">
            <path d="M527.720139,200.784328 C527.720139,180.124328 527.780139,159.474328 527.660139,138.784328 C527.660139,135.474328 528.400139,133.394328 531.510139,131.614328 C580.450139,103.534328 629.343472,75.3743277 678.190139,47.1343277 C704.580139,31.9143277 730.990139,16.7443277 757.310139,1.40432773 C760.420139,-0.415672273 762.740139,-0.495672273 765.900139,1.33432773 C811.713472,27.8876611 857.566805,54.3609944 903.460139,80.7543277 C932.590139,97.5443277 961.700139,114.374328 990.930139,130.994328 C994.580139,133.074328 995.930139,135.324328 995.881473,139.564328 C995.693472,177.044328 995.693472,214.524328 995.881473,252.004328 C995.881473,255.724328 994.940139,257.924328 991.460139,259.894328 C955.210139,280.434328 919.110139,301.184328 883.000139,321.854328 C878.510139,324.424328 878.450139,324.384328 878.440139,319.004328 C878.440139,281.854328 878.360139,244.704328 878.550139,207.554328 C878.550139,203.364328 877.430139,200.984328 873.760139,198.884328 C837.480139,178.137661 801.263472,157.264328 765.110139,136.264328 C762.390139,134.684328 760.470139,134.884328 757.880139,136.394328 C736.893472,148.667661 715.860139,160.854328 694.780139,172.954328 C640.520139,204.154328 586.253472,235.344328 531.980139,266.524328 C528.060139,268.794328 527.720139,267.284328 527.730139,263.754328 C527.820139,242.754328 527.730139,221.754328 527.730139,200.754328 L527.720139,200.784328 Z" id="Path" fill="#515E7E"/>
            <path d="M761.960139,538.694328 L761.960139,525.104328 C761.960139,486.964328 762.050139,448.824328 761.850139,410.694328 C761.850139,405.944328 763.150139,403.234328 767.360139,400.834328 C806.920139,378.304328 846.360139,355.524328 885.810139,332.834328 C920.850139,312.747661 955.916805,292.700994 991.010139,272.694328 C995.720139,270.004328 995.750139,270.054328 995.750139,275.624328 C995.750139,316.754328 995.680139,357.894328 995.870139,399.024328 C995.870139,402.954328 994.550139,404.864328 991.310139,406.724328 C924.710139,445.004328 858.150139,483.354328 791.630139,521.774328 C782.110139,527.364328 772.430139,532.744328 761.960139,538.694328 Z" id="Path" fill="#F27023"/>
            <path d="M644.880139,343.174328 C644.880139,383.974328 644.880139,424.770994 644.880139,465.564328 C644.880139,471.374328 644.800139,471.444328 640.080139,468.724328 C603.760139,447.817661 567.436805,426.917661 531.110139,406.024328 C528.855386,404.971799 527.497554,402.623549 527.710139,400.144328 C527.823472,362.184328 527.823472,324.220994 527.710139,286.254328 C527.710139,282.864328 528.660139,280.914328 531.710139,279.184328 C567.930139,258.484328 604.093472,237.680994 640.200139,216.774328 C643.540139,214.854328 644.820139,214.584328 644.800139,219.294328 C644.660139,260.584328 644.720139,301.884328 644.720139,343.174328 L644.880139,343.174328 Z" id="Path" fill="#F27023"/>
            <path d="M29.6201388,136.934328 C34.4493257,136.842732 39.2624717,137.517787 43.8801388,138.934328 C47.4869821,140.036744 50.8339323,141.856478 53.7201388,144.284328 C56.239996,146.479446 58.1804686,149.261363 59.3701388,152.384328 C60.5834182,155.601982 61.1935994,159.015607 61.1701388,162.454328 C61.2099711,166.108006 60.5795478,169.738024 59.3101388,173.164328 C58.0910571,176.396945 56.1160529,179.290875 53.5501388,181.604328 C50.6939793,184.119264 47.3416935,186.006628 43.7101388,187.144328 C39.1502626,188.558484 34.3934316,189.233691 29.6201388,189.144328 L20.1101388,189.144328 L20.1101388,215.234328 L2.06013881,215.234328 L2.06013881,136.934328 L29.6201388,136.934328 Z M29.6201388,175.244328 C34.3534721,175.244328 37.7668055,174.137661 39.8601388,171.924328 C41.9534721,169.710994 43.0034721,166.547661 43.0101388,162.434328 C43.0101388,158.700994 41.9434721,155.770994 39.8101388,153.644328 C37.6768055,151.517661 34.2801388,150.447661 29.6201388,150.434328 L20.1101388,150.434328 L20.1101388,175.244328 L29.6201388,175.244328 Z" id="Shape" fill="#515E7E"/>
            <path d="M152.360139,176.054328 C152.410783,181.452246 151.422842,186.809536 149.450139,191.834328 C147.586386,196.568624 144.771768,200.870533 141.180139,204.474328 C137.496068,208.117975 133.120172,210.987638 128.310139,212.914328 C123.036203,215.020989 117.398787,216.067598 111.720139,215.994328 C105.982634,216.072744 100.285341,215.026372 94.9501388,212.914328 C90.1169559,210.998103 85.7194416,208.127646 82.0201388,204.474328 C78.4261673,200.862428 75.5965603,196.563602 73.7001388,191.834328 C71.6782925,186.820989 70.6590659,181.459857 70.7001388,176.054328 C70.6638565,170.633019 71.6827902,165.256445 73.7001388,160.224328 C75.5835257,155.470578 78.4142528,151.149637 82.0201388,147.524328 C85.7194416,143.87101 90.1169559,141.000552 94.9501388,139.084328 C100.284655,136.968866 105.98197,135.919092 111.720139,135.994328 C117.399455,135.924236 123.036895,136.974248 128.310139,139.084328 C133.131115,141.017589 137.509511,143.909303 141.180139,147.584328 C144.764326,151.213379 147.5774,155.529935 149.450139,160.274328 C151.421161,165.2996 152.409042,170.65656 152.360139,176.054328 Z M133.730139,176.054328 C133.730139,168.214328 131.806805,162.064328 127.960139,157.604328 C124.113472,153.144328 118.700139,150.910994 111.720139,150.904328 C104.653472,150.904328 99.1801388,153.137661 95.3001388,157.604328 C91.4201388,162.070994 89.4801388,168.220994 89.4801388,176.054328 C89.4801388,183.974328 91.4201388,190.087661 95.3001388,194.394328 C99.1801388,198.700994 104.653472,200.857661 111.720139,200.864328 C118.706805,200.864328 124.120139,198.707661 127.960139,194.394328 C131.800139,190.080994 133.723472,183.967661 133.730139,176.054328 Z" id="Shape" fill="#515E7E"/>
            <path d="M234.010139,176.054328 C234.067524,181.417123 233.079095,186.739691 231.100139,191.724328 C229.230341,196.38493 226.41439,200.607155 222.830139,204.124328 C219.141692,207.691349 214.761669,210.465022 209.960139,212.274328 C204.619531,214.274893 198.952626,215.261768 193.250139,215.184328 L162.980139,215.184328 L162.980139,136.934328 L193.250139,136.934328 C198.99898,136.86584 204.709041,137.883677 210.080139,139.934328 C214.875623,141.783549 219.251814,144.575199 222.950139,148.144328 C226.52832,151.658226 229.325777,155.886782 231.160139,160.554328 C233.088602,165.49234 234.055941,170.753306 234.010139,176.054328 Z M215.500155,176.054328 C215.500155,168.294328 213.556805,162.160994 209.670139,157.654328 C205.783472,153.147661 200.310139,150.897661 193.250139,150.904313 L181.250139,150.904313 L181.250139,201.214328 L193.250139,201.214328 C200.076805,201.214328 205.493472,199.037661 209.500139,194.684328 C213.506805,190.330994 215.506805,184.120994 215.500155,176.054328 Z" id="Shape" fill="#515E7E"/>
            <polygon id="Path" fill="#515E7E" points="264.110139 215.184328 245.810139 215.184328 245.810139 136.934328 264.110139 136.934328"/>
            <path d="M310.740139,200.864328 C315.626805,200.864328 319.430139,199.290994 322.150139,196.144328 C324.870139,192.997661 326.230139,188.664328 326.230139,183.144328 L326.230139,136.934328 L344.510139,136.934328 L344.510139,183.164328 C344.573489,187.714239 343.783168,192.235689 342.180139,196.494328 C339.181713,204.465603 332.840717,210.72254 324.830139,213.614328 C320.317337,215.2581 315.542474,216.064642 310.740139,215.994328 C305.967145,216.064464 301.221827,215.257759 296.740139,213.614328 C292.78102,212.146247 289.18571,209.840336 286.200139,206.854328 C283.298361,203.894007 281.037988,200.367282 279.560139,196.494328 C277.961894,192.234385 277.171732,187.713843 277.230139,183.164328 L277.230139,136.934328 L295.280139,136.934328 L295.280139,183.164328 C295.280139,188.670994 296.640139,193.004328 299.360139,196.164328 C302.080139,199.324328 305.873472,200.890994 310.740139,200.864328 Z" id="Path" fill="#515E7E"/>
            <path d="M445.560139,136.934328 L445.560139,215.184328 L429.560139,215.184328 L429.560139,170.114328 C429.560139,167.947661 429.676805,165.580994 429.910139,163.014328 L409.110139,203.304328 C407.991241,205.741215 405.509173,207.258912 402.830139,207.144328 L400.260139,207.144328 C397.602507,207.178615 395.160758,205.685571 393.980139,203.304328 L373.110139,162.894328 C373.270139,164.224328 373.380139,165.504328 373.460139,166.744328 C373.540139,167.984328 373.580139,169.114328 373.580139,170.114328 L373.580139,215.184328 L357.510139,215.184328 L357.510139,136.934328 L371.360139,136.934328 C372.593285,136.897368 373.826207,137.014949 375.030139,137.284328 C376.096423,137.678129 376.929659,138.529718 377.300139,139.604328 L397.470139,179.364328 C398.3347,180.710733 399.074442,182.133313 399.680139,183.614328 C400.300139,185.134328 400.920139,186.667661 401.540139,188.214328 C402.160139,186.584328 402.790139,185.014328 403.410139,183.504328 C404.013726,182.022336 404.753566,180.599567 405.620139,179.254328 L425.620139,139.654328 C426.105862,138.593123 426.984053,137.76153 428.070139,137.334328 C429.253206,137.061624 430.46672,136.94397 431.680139,136.984328 L445.560139,136.934328 Z" id="Path" fill="#515E7E"/>
            <path d="M409.880139,377.764328 C414.730139,369.764328 418.730139,367.564328 424.600139,369.264328 C429.25177,370.58327 432.361996,374.957545 432.080139,379.784328 C431.882871,384.586384 428.590871,388.704421 423.950139,389.954328 C418.410139,391.314328 414.080139,388.574328 409.810139,380.464328 C408.710139,383.894328 407.280139,386.584328 404.630139,388.344328 C402.008641,390.181274 398.679482,390.688046 395.630139,389.714328 C390.852787,388.226751 387.729164,383.644886 388.090139,378.654328 C388.321711,373.817639 391.909519,369.8043 396.690139,369.034328 C402.480139,367.964328 406.300139,370.364328 409.880139,377.764328 Z" id="Path" fill="#515E7E"/>
            <path d="M200.330139,390.154406 C194.405837,390.176478 189.518167,385.522604 189.250139,379.604328 C189.261036,373.648717 194.07461,368.817282 200.030139,368.784328 C205.824763,368.699037 210.623988,373.262744 210.830139,379.054328 C210.987007,385.015631 206.290957,389.980026 200.330139,390.154406 L200.330139,390.154406 Z" id="Path" fill="#515E7E"/>
            <path d="M223.010139,390.164328 C220.140398,390.119649 217.406464,388.934532 215.412012,386.870658 C213.41756,384.806785 212.326641,382.033918 212.380139,379.164328 C212.610287,373.345168 217.428435,368.76525 223.251782,368.830224 C229.075128,368.895199 233.789887,373.581481 233.890139,379.404328 C233.824378,385.36627 228.972444,390.16469 223.010139,390.164328 L223.010139,390.164328 Z" id="Path" fill="#515E7E"/>
            <path d="M376.480139,390.154328 C373.61774,390.143846 370.877952,388.99116 368.868993,386.95216 C366.860034,384.913161 365.748137,382.156567 365.780139,379.294328 C365.823927,373.509028 370.514714,368.836077 376.300139,368.814328 C382.300139,368.704328 387.440139,373.234328 387.070139,379.334328 C386.720139,385.194328 383.670139,389.884328 376.480139,390.154328 Z" id="Path" fill="#515E7E"/>
            <path d="M87.9301388,291.744328 C85.6600532,289.285648 82.8589932,287.377234 79.7401388,286.164328 C75.7728019,284.67822 71.5550059,283.975254 67.3201388,284.094328 L34.7401388,284.094328 C29.5711994,283.98584 24.4320652,284.903542 19.6201388,286.794328 C15.5770692,288.410935 11.9032396,290.82954 8.82013881,293.904328 C5.94626039,296.834841 3.70942612,300.32798 2.25013881,304.164328 C0.754584768,308.040156 -0.00834463759,312.159974 6.88341424e-05,316.314328 L6.88341424e-05,391.794328 L14.7601388,391.794328 L14.7601388,316.854328 C14.7601388,311.574328 16.4101388,307.344328 19.7101388,304.164328 C23.0101388,300.984328 28.0801388,299.394328 34.9201388,299.394328 L40.8601388,299.394328 C38.8004254,301.161932 37.2734278,303.46801 36.4501388,306.054328 C35.608011,309.03957 35.2137134,312.13329 35.2801388,315.234328 L35.2801388,325.494328 C35.2801388,333.894328 37.8301388,340.284328 42.9301388,344.664328 C48.0301388,349.044328 54.7201388,351.234328 63.0001388,351.234328 C67.0705004,351.266434 71.1267432,350.751836 75.0601388,349.704328 C78.6093331,348.767712 81.9416192,347.147426 84.8701388,344.934328 C87.6890405,342.77459 89.9432338,339.964568 91.4401388,336.744328 C93.0841247,333.036269 93.8833967,329.009168 93.7801388,324.954328 L93.7801388,309.114328 C93.7903414,305.945094 93.3354975,302.79151 92.4301388,299.754328 C91.5459398,296.782284 90.0084373,294.045529 87.9301388,291.744328 Z M79.5601388,322.744328 C79.5601388,326.944328 78.2268055,330.094328 75.5601388,332.194328 C72.8934721,334.294328 69.1268055,335.350994 64.2601388,335.364328 C59.2201388,335.364328 55.4701388,334.224328 53.0101388,331.944328 C50.5501388,329.664328 49.3201388,326.424328 49.3201388,322.224328 L49.3201388,313.224328 C49.1994273,309.794783 50.2583091,306.427539 52.3201388,303.684328 C54.3201388,301.164328 57.5301388,299.904328 61.9501388,299.904328 L66.9501388,299.904328 C71.3901388,299.904328 74.6001388,301.164328 76.5801388,303.684328 C78.5874456,306.248951 79.6472101,309.428245 79.5801388,312.684328 L79.5601388,322.744328 Z" id="Shape" stroke="#515E7E" stroke-width="2" fill="#515E7E"/>
            <path d="M224.680139,322.254328 C224.680139,326.454328 223.450139,329.694328 220.990139,331.974328 C218.530139,334.254328 215.140139,335.384328 210.820139,335.364328 L174.420139,335.364328 L174.420139,323.514328 C174.551931,317.89666 173.730287,312.297308 171.990139,306.954328 C170.63192,302.830138 168.389718,299.052182 165.420139,295.884328 C162.725957,293.106736 159.431879,290.982517 155.790139,289.674328 C152.125854,288.346471 148.257595,287.66961 144.360139,287.674328 C139.794016,287.571886 135.266056,288.526762 131.130139,290.464328 C127.469611,292.229852 124.243108,294.780325 121.680139,297.934328 C119.09697,301.172804 117.143281,304.866498 115.920139,308.824328 C114.586066,313.028361 113.911397,317.413708 113.920139,321.824328 C113.873984,325.973597 114.327242,330.113349 115.270139,334.154328 C116.055669,337.59615 117.696222,340.784393 120.040139,343.424328 C122.607266,346.124246 125.833052,348.109345 129.400139,349.184328 C134.30354,350.642269 139.406308,351.317239 144.520139,351.184328 L159.820139,351.184328 C159.610636,354.88467 158.821007,358.529114 157.480139,361.984328 C156.201297,365.275098 154.272981,368.274701 151.810139,370.804328 C149.169398,373.425214 146.0126,375.468448 142.540139,376.804328 C138.39196,378.383865 133.977884,379.14784 129.540139,379.054328 L110.820139,379.054328 L111.900139,394.714328 L130.620139,394.714328 C136.681631,394.798776 142.692677,393.602701 148.260139,391.204328 C153.351281,388.996796 157.943343,385.782354 161.760139,381.754328 C165.521578,377.728848 168.484091,373.025477 170.490139,367.894328 C172.600835,362.553708 173.787761,356.892982 174.000139,351.154328 L211.840139,351.154328 C220.506805,351.154328 227.256805,348.724328 232.090139,343.864328 C236.923472,339.004328 239.353472,332.004328 239.380139,322.864328 L239.380139,299.214328 L224.620139,299.214328 L224.680139,322.254328 Z M160.200139,335.364328 L145.980139,335.364328 C138.900139,335.364328 134.130139,334.254328 131.670139,332.034328 C129.210139,329.814328 127.980139,326.124328 127.980139,320.964328 C127.980139,315.324328 129.330139,310.914328 132.030139,307.734328 C134.730139,304.554328 138.540139,302.964328 143.460139,302.964328 C148.740139,302.964328 152.850139,304.630994 155.790139,307.964328 C158.730139,311.297661 160.200139,316.727661 160.200139,324.254328 L160.200139,335.364328 Z" id="Shape" stroke="#515E7E" stroke-width="2" fill="#515E7E"/>
            <path d="M324.220139,307.364328 L291.460139,269.564328 L279.940139,280.364328 L311.940139,316.904328 C314.700139,319.904328 316.080139,322.964328 316.080139,326.084328 C316.152375,328.685165 315.023839,331.174582 313.020139,332.834328 C311.020139,334.574328 308.020139,335.444328 304.200139,335.444328 L256.140139,335.444328 L257.040139,351.284328 L306.360139,351.284328 C310.274946,351.349352 314.171765,350.740474 317.880139,349.484328 C320.966335,348.43874 323.812176,346.786317 326.250139,344.624328 C328.44938,342.613508 330.19775,340.159655 331.380139,337.424328 C332.592147,334.57987 333.204894,331.516138 333.18086,328.424328 C333.139681,324.86673 332.405994,321.351147 331.020139,318.074328 C329.353201,314.15712 327.056151,310.539265 324.220139,307.364328 L324.220139,307.364328 Z" id="Path" stroke="#515E7E" stroke-width="2" fill="#515E7E"/>
            <path d="M425.110139,299.214328 L425.110139,322.214328 C425.110139,326.414328 423.880139,329.654328 421.420139,331.934328 C418.960139,334.214328 415.570139,335.357661 411.250139,335.364328 L384.250139,335.364328 C379.930139,335.364328 376.780139,333.984328 374.800139,331.224328 C372.820139,328.464328 371.820139,324.797661 371.800139,320.224328 L371.800139,244.634328 L357.110139,244.634328 L357.110139,323.514328 C356.989036,328.00791 357.666198,332.487336 359.110139,336.744328 C360.218682,339.955464 362.033199,342.877143 364.420139,345.294328 C366.616352,347.440518 369.304605,349.016391 372.250139,349.884328 C375.287165,350.790394 378.440854,351.245253 381.610139,351.23452 L412.360139,351.23452 C421.026805,351.23452 427.776805,348.804328 432.610139,343.944328 C437.443472,339.084328 439.873472,332.084328 439.900139,322.944328 L439.900139,299.214328 L425.110139,299.214328 Z" id="Path" stroke="#515E7E" stroke-width="2" fill="#515E7E"/>
        </g>
    </g>
<div xmlns="" id="divScriptsUsed" style="display: none"/><script xmlns="" id="globalVarsDetection" src="moz-extension://a5a9e1d8-0164-42d7-85be-a8dcfaaed4b7/js/wrs_env.js"/></svg>