<?xml version="1.0" standalone="no"?>
<!DOCTYPE svg PUBLIC "-//W3C//DTD SVG 20010904//EN"
 "http://www.w3.org/TR/2001/REC-SVG-20010904/DTD/svg10.dtd">
<svg version="1.0" xmlns="http://www.w3.org/2000/svg"
 width="700.000000pt" height="700.000000pt" viewBox="0 0 700.000000 700.000000"
 preserveAspectRatio="xMidYMid meet">
<metadata>
Created by potrace 1.11, written by Peter Selinger 2001-2013
</metadata>
<g transform="translate(0.000000,700.000000) scale(0.100000,-0.100000)"
fill="#000000" stroke="none">
<path d="M276 6762 c-7 -12 48 -63 108 -101 84 -52 151 -39 190 37 32 62 68
28 72 -70 2 -31 8 -67 15 -79 10 -20 8 -26 -15 -45 -32 -28 -33 -48 -5 -68 18
-12 20 -19 11 -44 -8 -25 -6 -35 19 -73 35 -52 94 -99 124 -99 19 0 22 -6 23
-50 1 -59 26 -105 78 -145 38 -29 84 -95 84 -121 0 -9 9 -18 19 -21 12 -3 21
-17 26 -41 10 -54 40 -106 87 -153 35 -35 42 -47 39 -75 -2 -28 3 -39 29 -60
17 -15 42 -47 55 -73 31 -62 65 -92 121 -106 l47 -12 -32 -29 c-18 -16 -40
-42 -48 -57 -13 -25 -13 -31 0 -45 8 -10 18 -28 22 -42 4 -14 15 -34 24 -45
10 -11 23 -40 30 -65 36 -129 160 -249 259 -250 32 0 33 -1 29 -38 -3 -21 1
-55 8 -76 13 -38 74 -102 128 -134 31 -19 31 -19 13 -63 -25 -60 -26 -100 -5
-163 34 -99 102 -176 156 -176 26 0 33 -4 33 -20 0 -11 11 -43 24 -72 14 -29
32 -74 40 -99 9 -25 24 -54 34 -65 9 -11 43 -49 74 -86 70 -80 110 -96 173
-73 12 5 1 -12 -27 -39 -26 -26 -51 -61 -57 -78 -9 -26 -7 -32 15 -53 30 -28
88 -49 110 -41 9 3 -3 -15 -26 -41 -23 -27 -52 -65 -64 -85 -11 -21 -33 -42
-47 -47 -37 -13 -93 -74 -112 -122 -11 -27 -15 -62 -12 -109 3 -60 1 -70 -14
-75 -35 -11 -103 -91 -136 -160 -18 -38 -45 -81 -60 -95 -37 -35 -66 -103 -66
-158 -1 -26 1 -51 2 -57 6 -20 -27 -57 -83 -91 -111 -68 -228 -234 -228 -324
0 -33 -6 -43 -50 -80 -66 -56 -80 -84 -80 -167 l0 -68 -39 -22 c-63 -36 -148
-120 -165 -163 -9 -23 -17 -60 -17 -83 -1 -23 -8 -57 -15 -76 -15 -36 -17 -94
-5 -126 5 -13 3 -24 -5 -30 -7 -5 -19 -28 -26 -50 -10 -31 -19 -41 -38 -43
-72 -9 -106 -42 -89 -90 6 -19 6 -37 0 -55 -9 -24 -13 -26 -35 -16 -58 27
-126 -25 -126 -96 0 -84 85 -176 355 -382 186 -143 193 -149 223 -187 27 -36
28 -42 0 -57 -47 -25 -114 -4 -173 55 -17 17 -40 38 -51 46 -38 29 -277 330
-291 367 -10 26 -50 13 -87 -27 -30 -34 -40 -39 -56 -30 -49 26 -120 -12 -154
-84 -25 -52 -20 -84 17 -121 l33 -33 -21 -26 c-20 -25 -25 -26 -62 -18 -29 7
-49 6 -71 -4 -36 -15 -65 -55 -56 -78 7 -19 -40 -42 -105 -50 -45 -5 -75 -22
-65 -37 7 -12 99 -1 143 17 30 12 38 12 79 -6 77 -34 99 -34 133 -1 34 34 35
42 11 64 -12 11 -40 16 -90 18 -39 1 -72 3 -72 5 0 2 10 12 22 23 24 23 54 21
117 -5 20 -9 51 -17 70 -18 32 -3 34 -5 37 -41 1 -22 11 -46 23 -59 21 -20 23
-20 68 -4 32 11 52 14 64 7 48 -25 150 6 164 52 6 18 9 17 47 -15 55 -48 88
-58 124 -40 16 9 31 19 34 25 4 5 25 0 50 -12 76 -37 145 -21 177 42 7 13 13
19 13 12 0 -6 28 -25 62 -42 84 -42 133 -41 224 4 38 19 76 35 85 35 8 0 20 5
26 11 8 8 24 2 59 -21 101 -70 189 -86 274 -49 47 20 49 20 76 2 41 -26 137
-24 192 4 l43 23 40 -27 c28 -18 53 -27 80 -26 46 1 122 43 146 80 22 33 21
94 -2 129 -12 19 -14 29 -6 37 6 6 11 8 11 4 0 -13 86 25 113 51 47 44 59 77
52 137 -6 46 -5 55 13 64 10 5 32 35 48 66 16 30 32 55 37 55 4 0 23 25 42 55
20 30 42 55 49 55 22 0 96 88 123 146 14 31 27 83 30 117 5 52 11 68 39 99 33
37 54 91 54 139 0 18 12 35 40 58 l40 32 -15 36 c-15 36 -15 37 17 70 18 19
51 42 74 52 54 24 104 74 139 139 16 29 31 49 35 45 7 -9 16 -23 575 -993 207
-360 380 -658 384 -663 4 -4 487 -6 1074 -5 l1067 3 -41 70 c-22 39 -53 93
-69 120 -15 28 -261 455 -547 950 -286 495 -647 1121 -802 1390 -156 270 -305
528 -333 575 -27 46 -50 91 -51 100 0 8 18 46 41 84 23 37 42 69 42 71 0 1 29
52 64 113 36 61 76 131 89 154 14 24 65 113 114 198 102 175 277 480 303 525
30 53 309 536 384 665 40 69 84 145 98 170 14 25 126 218 248 430 123 212 231
399 240 415 10 17 30 53 47 80 16 28 32 57 36 65 4 8 36 64 71 125 36 60 63
112 61 113 -8 8 -2128 3 -2135 -4 -4 -5 -17 -25 -28 -44 -10 -19 -51 -89 -89
-155 -39 -66 -81 -140 -95 -165 -14 -25 -89 -155 -167 -288 -77 -134 -141
-248 -141 -253 0 -5 -4 -9 -10 -9 -5 0 -10 -4 -10 -9 0 -5 -22 -47 -49 -93
-26 -45 -128 -221 -225 -390 -165 -285 -179 -306 -197 -295 -10 6 -19 21 -19
32 0 25 -35 85 -63 107 -12 10 -35 18 -51 18 l-29 0 27 21 c41 32 58 72 42 95
-8 10 -17 35 -21 54 -15 73 -90 149 -131 133 -8 -3 -12 11 -12 46 -2 137 -102
291 -190 291 -35 0 -37 3 -23 29 22 41 -22 91 -76 86 -14 -1 -25 5 -28 16 -3
9 -18 29 -32 44 -22 21 -27 34 -24 66 2 26 -4 50 -15 67 -10 15 -19 46 -19 68
-3 56 -41 133 -77 153 -16 9 -59 44 -96 79 -36 34 -69 62 -73 62 -3 0 -12 20
-19 44 -11 41 -10 48 9 79 56 91 -16 147 -120 94 l-46 -23 -44 20 c-38 17 -65
19 -199 19 -85 -1 -168 -1 -185 -1 -183 1 -311 -5 -321 -15 -4 -3 -16 0 -28 8
-26 19 -86 19 -111 1 -16 -11 -24 -11 -52 0 -63 27 -127 13 -192 -42 l-35 -29
18 26 c15 25 16 28 1 43 -9 9 -25 16 -35 16 -21 0 -60 -45 -60 -69 0 -10 -35
-38 -92 -71 -113 -68 -108 -66 -108 -39 0 13 19 40 48 68 70 67 77 78 62 96
-33 39 -95 1 -120 -74 -7 -21 -25 -48 -40 -60 l-28 -20 -6 30 c-11 58 -38 99
-80 123 -41 23 -49 24 -189 17 -27 -1 -77 -56 -77 -83 0 -21 -5 -24 -34 -24
-31 1 -35 4 -40 38 -6 39 -45 78 -77 78 -10 0 -26 -12 -36 -26 -54 -77 -64
-85 -97 -78 -35 7 -114 54 -141 84 -19 21 -40 26 -49 12z m1401 -46 c3 -3 -14
-29 -38 -57 -24 -29 -62 -78 -84 -110 -41 -60 -275 -260 -261 -223 4 11 16 42
27 69 14 38 31 60 69 89 58 45 84 87 75 123 -11 47 100 126 168 119 21 -2 41
-7 44 -10z m145 6 c13 -6 6 -20 -42 -84 -33 -43 -72 -111 -91 -158 -37 -89
-28 -82 -173 -152 l-78 -38 22 37 c66 114 89 143 143 183 32 25 81 69 109 98
43 45 49 56 43 81 -5 23 -2 30 12 34 26 7 36 6 55 -1z m284 -7 c-22 -17 -56
-20 -56 -6 0 11 13 16 49 19 25 1 25 1 7 -13z m-1300 -39 c-8 -20 -18 -36 -21
-36 -8 0 6 52 18 68 17 22 19 6 3 -32z m444 40 c0 -2 -8 -10 -17 -17 -16 -13
-17 -12 -4 4 13 16 21 21 21 13z m700 -3 c-1 -5 -14 -24 -31 -43 l-30 -35 3
35 c2 27 8 36 28 41 14 4 26 7 28 8 1 1 2 -2 2 -6z m333 0 c-7 -2 -19 -2 -25
0 -7 3 -2 5 12 5 14 0 19 -2 13 -5z m493 -7 c3 -8 -2 -28 -12 -44 l-17 -30
-38 27 c-45 30 -47 38 -16 51 34 14 77 12 83 -4z m-1834 -4 c-6 -5 -19 -17
-27 -28 -14 -18 -14 -17 -4 9 7 15 19 27 28 27 12 0 13 -2 3 -8z m1076 -14 c8
-10 -10 -32 -69 -88 -98 -93 -86 -38 15 67 35 36 39 38 54 21z m442 -8 c23
-12 29 -19 17 -20 -10 0 -35 -9 -57 -20 l-39 -20 -30 31 c-19 18 -26 31 -18
34 7 2 19 6 27 8 30 10 66 6 100 -13z m99 -1 c18 -6 29 -15 24 -20 -12 -12
-50 0 -57 17 -6 17 -7 17 33 3z m-1549 -14 c17 -9 30 -19 30 -23 -1 -18 -93
-102 -113 -102 -21 0 2 91 30 122 19 22 17 22 53 3z m430 -10 c-7 -8 -17 -12
-22 -9 -5 3 -1 12 9 19 22 17 30 11 13 -10z m280 17 c0 -4 -21 -28 -46 -52
-53 -52 -56 -40 -4 19 34 39 50 50 50 33z m453 -36 l-48 -44 -6 26 c-3 15 -4
31 -1 35 6 13 44 26 75 26 29 1 28 0 -20 -43z m-338 -23 c-22 -59 -73 -140
-110 -173 l-27 -25 26 60 c29 65 115 199 124 191 3 -3 -3 -27 -13 -53z m445
27 c20 -38 -28 -97 -160 -195 -36 -27 -71 -53 -79 -59 -21 -16 2 26 52 94 38
52 160 180 171 180 3 0 10 -9 16 -20z m219 -24 c-11 -9 -63 -17 -54 -8 6 6 19
12 30 14 20 4 32 1 24 -6z m206 -16 c3 -6 -3 -10 -13 -10 -21 0 -46 23 -36 33
8 7 40 -8 49 -23z m-1971 1 c17 -19 17 -20 -3 -31 -19 -10 -21 -8 -21 20 0 35
1 36 24 11z m1614 -4 c4 -18 -118 -141 -163 -163 -20 -10 -6 7 42 51 43 39 77
80 85 100 12 36 30 42 36 12z m-1508 3 c0 -5 -5 -10 -11 -10 -5 0 -7 5 -4 10
3 6 8 10 11 10 2 0 4 -4 4 -10z m427 -102 c-43 -84 -60 -107 -103 -139 l-51
-37 21 84 c12 46 26 88 32 94 7 7 128 87 151 99 1 1 -22 -45 -50 -101z m798
55 c-16 -38 -62 -110 -76 -119 -4 -2 -3 10 2 28 6 18 13 42 16 52 5 15 60 75
71 76 1 0 -5 -17 -13 -37z m433 -15 c-13 -18 -55 -86 -92 -151 -68 -118 -69
-118 -137 -152 -66 -34 -89 -27 -30 8 72 43 181 189 181 244 0 13 17 31 45 49
25 15 45 32 45 38 0 5 3 6 6 3 4 -4 -4 -21 -18 -39z m-1364 7 c-3 -11 -38 -42
-77 -68 l-72 -48 73 71 c41 40 75 70 77 68 2 -2 2 -13 -1 -23z m1525 16 c10
-7 -3 -25 -55 -75 -37 -36 -69 -64 -72 -62 -2 3 15 36 38 75 40 70 57 82 89
62z m-1659 -32 c-62 -53 -90 -72 -90 -57 0 11 104 87 120 88 3 0 -11 -14 -30
-31z m1504 -78 c-31 -60 -68 -120 -82 -133 -24 -22 -24 -20 7 37 41 74 122
205 127 205 2 0 -22 -49 -52 -109z m-1624 74 c0 -8 -4 -15 -10 -15 -5 0 -7 7
-4 15 4 8 8 15 10 15 2 0 4 -7 4 -15z m445 -7 c-19 -55 -26 -70 -30 -66 -6 5
22 78 30 78 2 0 2 -6 0 -12z m1055 8 c0 -2 -7 -7 -16 -10 -8 -3 -12 -2 -9 4 6
10 25 14 25 6z m280 -51 c-18 -19 -35 -33 -37 -31 -5 5 61 72 66 69 3 -2 -11
-19 -29 -38z m-850 5 c-6 -11 -13 -20 -16 -20 -2 0 0 9 6 20 6 11 13 20 16 20
2 0 0 -9 -6 -20z m131 -53 c-17 -51 -33 -75 -72 -112 -54 -51 -71 -54 -43 -8
44 73 128 192 132 189 2 -3 -6 -34 -17 -69z m-1251 43 c0 -13 -5 -18 -15 -14
-12 5 -13 10 -4 20 15 19 19 18 19 -6z m130 16 c0 -3 -4 -8 -10 -11 -5 -3 -10
-1 -10 4 0 6 5 11 10 11 6 0 10 -2 10 -4z m1909 -26 c-11 -31 -23 -38 -34 -19
-7 10 21 49 36 49 4 0 3 -13 -2 -30z m-349 15 c0 -3 -9 -23 -20 -44 -24 -48
-63 -94 -101 -122 l-29 -21 19 49 c33 82 49 106 83 125 35 18 48 22 48 13z
m480 -50 l35 -36 -25 -19 c-33 -25 -40 -25 -40 3 0 12 -9 41 -20 65 -17 38
-17 41 -2 33 9 -5 33 -26 52 -46z m-1774 -67 c-21 -67 -35 -92 -72 -130 -25
-27 -49 -48 -54 -48 -17 0 -53 63 -52 92 1 37 16 54 117 135 57 45 81 59 83
49 2 -9 -8 -53 -22 -98z m-333 77 c-10 -7 -20 -12 -21 -10 -7 7 23 33 31 28 5
-3 0 -11 -10 -18z m117 7 c0 -10 -7 -27 -16 -38 -15 -18 -15 -18 -10 6 3 14 6
31 6 38 0 6 5 12 10 12 6 0 10 -8 10 -18z m995 -9 c-45 -69 -65 -97 -65 -90 0
12 20 48 48 85 30 39 41 42 17 5z m-1072 -57 c-18 -47 -53 -70 -74 -49 -15 15
1 43 25 43 28 0 42 10 51 38 4 13 9 22 11 19 2 -2 -4 -25 -13 -51z m1991 38
c4 -10 1 -14 -6 -12 -15 5 -23 28 -10 28 5 0 13 -7 16 -16z m-1870 -19 c-9
-14 -18 -25 -21 -25 -5 0 5 18 20 38 17 22 18 13 1 -13z m1294 -67 c-29 -77
-37 -88 -81 -117 -27 -18 -51 -30 -53 -28 -9 8 155 240 164 232 2 -1 -12 -41
-30 -87z m-428 74 c0 -4 -16 -31 -35 -59 -19 -29 -35 -54 -35 -57 0 -15 -64
-96 -76 -96 -18 0 -18 -1 6 64 28 73 140 192 140 148z m894 0 c6 -11 -91 -80
-162 -116 -85 -43 -62 -5 38 63 83 57 113 70 124 53z m-1981 -17 c-3 -9 -8
-14 -10 -11 -3 3 -2 9 2 15 9 16 15 13 8 -4z m565 -20 c-6 -14 -13 -23 -15
-21 -5 5 15 46 22 46 3 0 -1 -11 -7 -25z m161 -36 c-36 -60 -68 -99 -81 -99
-5 0 -35 -17 -66 -38 -85 -57 -86 -58 -54 -13 28 38 223 213 230 206 2 -1 -11
-27 -29 -56z m703 -1 c-21 -29 -58 -86 -82 -125 -32 -54 -55 -80 -87 -99 -25
-14 -47 -24 -49 -21 -2 2 15 53 39 113 l44 109 84 37 c46 21 85 38 87 38 1 0
-15 -24 -36 -52z m643 36 c63 -41 2 -141 -168 -276 -88 -71 -199 -148 -211
-148 -4 0 -24 -11 -46 -25 -22 -14 -42 -25 -44 -25 -3 0 0 14 6 30 6 20 43 57
104 106 103 83 224 208 287 297 23 31 42 57 44 57 2 0 15 -7 28 -16z m190 -66
c37 -80 41 -112 16 -144 l-21 -26 -10 27 c-5 14 -10 34 -10 42 0 9 -14 41 -31
71 -29 51 -29 55 -12 68 31 23 43 16 68 -38z m-1355 -6 c-19 -20 -115 -118
-215 -217 -99 -99 -193 -202 -208 -228 -25 -42 -30 -61 -36 -121 -2 -17 -41
27 -61 68 -20 42 -26 90 -14 120 5 13 10 12 34 -5 18 -14 35 -19 49 -14 33 10
110 104 184 224 l69 110 111 56 c61 30 113 53 116 50 2 -3 -11 -22 -29 -43z
m-416 16 c-3 -13 -25 -60 -47 -105 -38 -77 -42 -81 -70 -77 -16 2 -38 6 -48 9
-17 6 -17 8 9 30 15 13 36 38 46 57 14 26 99 106 114 108 2 0 0 -10 -4 -22z
m47 -1 c-10 -9 -11 -8 -5 6 3 10 9 15 12 12 3 -3 0 -11 -7 -18z m1366 -50
c-81 -91 -247 -238 -235 -206 49 128 63 149 113 173 28 13 77 40 110 59 33 20
62 36 63 37 2 0 -21 -28 -51 -63z m-1794 23 c4 -14 0 -20 -12 -20 -25 0 -33
11 -20 27 16 18 26 16 32 -7z m2085 -69 c18 -53 16 -61 -20 -61 -42 -1 -104
-30 -145 -68 -34 -31 -100 -134 -122 -190 -13 -32 -51 -64 -51 -43 0 5 4 12 9
15 5 4 26 37 47 74 45 82 173 277 209 321 l27 31 17 -22 c10 -13 23 -38 29
-57z m-1032 -27 c-40 -111 -74 -171 -110 -194 -21 -12 -39 -20 -41 -18 -5 4
33 157 44 175 7 13 114 84 118 79 2 -2 -3 -20 -11 -42z m-280 -2 c-14 -27 -71
-72 -92 -72 -5 0 16 25 46 55 29 30 56 53 58 51 2 -2 -3 -18 -12 -34z m-653
-33 c19 -8 25 -15 18 -23 -5 -6 -12 -26 -16 -44 -7 -33 -7 -33 -27 -15 -24 21
-48 73 -48 104 0 20 1 21 23 5 12 -9 35 -21 50 -27z m1342 31 c-10 -15 -65
-42 -78 -37 -7 2 6 13 28 25 44 23 59 27 50 12z m-995 -89 c-68 -103 -117
-161 -135 -161 -7 0 -18 6 -24 14 -18 21 27 104 79 147 46 37 121 87 132 88 4
1 -19 -39 -52 -88z m435 79 c-3 -5 -11 -10 -16 -10 -6 0 -7 5 -4 10 3 6 11 10
16 10 6 0 7 -4 4 -10z m626 -94 c-29 -63 -53 -101 -73 -116 l-31 -23 46 86
c54 100 90 157 96 151 2 -2 -15 -46 -38 -98z m-724 37 c-15 -16 -17 -16 -17
-1 0 9 6 18 13 21 20 7 22 -2 4 -20z m519 2 c-11 -8 -27 -15 -35 -15 -9 1 -2
7 14 15 39 18 44 18 21 0z m916 -17 c-9 -9 -12 -7 -12 12 0 19 3 21 12 12 9
-9 9 -15 0 -24z m-794 0 c-8 -13 -43 -74 -77 -135 -35 -62 -64 -113 -66 -113
-4 0 8 51 30 125 18 60 22 67 83 118 41 33 49 34 30 5z m642 0 c0 -27 -110
-133 -183 -177 -32 -19 -60 -32 -62 -29 -7 7 66 124 100 160 31 33 87 62 124
65 15 1 21 -4 21 -19z m-1855 -4 c35 -6 36 -7 18 -26 -21 -23 -62 -45 -83 -43
-10 0 -14 9 -12 30 4 45 11 58 26 52 8 -3 31 -9 51 -13z m507 -13 c-4 -11 -41
-43 -82 -72 -41 -29 -117 -94 -167 -145 -51 -51 -96 -88 -99 -83 -14 24 134
184 225 243 55 36 120 74 128 76 1 0 -1 -9 -5 -19z m523 9 c-3 -5 -12 -10 -18
-10 -7 0 -6 4 3 10 19 12 23 12 15 0z m890 -49 c-22 -44 -27 -38 -7 9 9 21 18
35 20 30 2 -5 -4 -22 -13 -39z m-835 23 c0 -4 -8 -14 -19 -23 -10 -9 -46 -41
-81 -71 -100 -88 -103 -89 -77 -33 35 74 38 77 102 105 64 29 75 32 75 22z
m495 -36 c-14 -24 -48 -82 -77 -129 -56 -95 -41 -84 -230 -162 -60 -25 -108
-42 -108 -38 0 4 13 35 30 69 25 52 38 66 81 89 28 16 112 69 187 120 76 50
138 92 140 92 2 1 -8 -18 -23 -41z m259 -62 c-44 -108 -114 -186 -247 -277
-88 -61 -90 -61 -83 -33 4 16 20 60 35 99 29 71 39 81 137 130 48 24 147 107
169 142 11 17 21 30 22 29 2 -1 -13 -42 -33 -90z m145 68 c-15 -18 -22 -13
-13 10 3 9 10 13 16 10 5 -3 4 -12 -3 -20z m-1386 -1 c-3 -10 -12 -25 -18 -33
-7 -8 -24 -38 -39 -67 -14 -28 -30 -55 -36 -58 -14 -9 56 133 78 158 8 9 17
17 18 17 2 0 1 -8 -3 -17z m32 -49 c-10 -40 -27 -63 -47 -64 -3 0 7 25 24 55
16 30 31 55 32 55 2 0 -2 -21 -9 -46z m-628 -24 l-24 -54 -27 40 -26 39 28 6
c15 3 36 11 47 17 11 6 21 9 23 8 1 -2 -8 -27 -21 -56z m2052 31 c27 -38 26
-44 -7 -83 -57 -67 -162 -258 -162 -294 0 -17 -23 -41 -124 -129 -38 -33 -75
-66 -83 -73 -25 -25 -11 19 57 183 5 11 24 62 44 114 32 86 42 100 109 165 40
40 85 88 101 109 16 20 32 37 37 37 4 0 17 -13 28 -29z m-1619 -34 c-134 -124
-229 -207 -225 -195 13 32 243 239 265 238 3 0 -15 -19 -40 -43z m423 -44
c-19 -43 -51 -94 -71 -113 -20 -19 -34 -28 -30 -20 3 8 18 52 33 96 24 68 33
84 59 97 17 9 34 16 38 16 4 1 -9 -34 -29 -76z m198 41 c-5 -16 -16 -56 -26
-89 l-17 -60 -106 -73 c-59 -40 -108 -69 -110 -64 -3 11 56 145 68 152 4 3 36
30 71 60 115 101 124 108 127 106 1 -2 -2 -16 -7 -32z m-322 -126 c-30 -87
-47 -121 -73 -145 -19 -18 -37 -33 -40 -33 -3 0 24 60 61 133 60 122 80 157
89 157 1 0 -15 -51 -37 -112z m1431 92 c13 -8 12 -15 -9 -54 -26 -50 -57 -73
-41 -30 6 14 10 41 10 60 0 35 12 42 40 24z m-1751 -70 c-16 -33 -32 -60 -37
-60 -4 0 -31 -21 -60 -46 -47 -41 -55 -45 -68 -32 -13 13 -5 24 71 93 74 68
116 104 122 105 1 0 -12 -27 -28 -60z m795 26 c-7 -19 -64 -52 -64 -37 0 11
61 64 66 58 3 -2 2 -12 -2 -21z m872 -24 c-20 -75 -43 -115 -92 -163 -40 -38
-45 -41 -39 -19 18 59 118 230 136 230 4 0 1 -22 -5 -48z m-1427 -6 c-11 -20
-23 -36 -26 -36 -11 0 9 56 24 67 25 19 26 9 2 -31z m-77 -53 c-8 -27 -22 -56
-29 -65 -15 -17 -102 -62 -109 -56 -8 9 72 125 100 145 49 33 55 29 38 -24z
m1708 -5 c42 -42 73 -92 88 -144 13 -44 16 -134 6 -134 -4 0 -29 21 -56 46
-95 88 -204 120 -282 80 l-45 -23 32 46 c58 85 155 160 208 161 8 0 30 -15 49
-32z m-770 3 c0 -5 -15 -50 -34 -101 -33 -92 -34 -93 -90 -126 -31 -19 -59
-34 -61 -34 -6 0 134 231 153 253 16 18 32 23 32 8z m-379 -58 c-26 -51 -71
-98 -71 -74 0 18 44 107 59 118 37 28 41 12 12 -44z m268 5 c-7 -13 -44 -74
-82 -137 l-70 -114 -151 -72 c-83 -40 -152 -71 -153 -70 -2 1 24 42 56 91 33
49 74 115 93 148 l33 58 140 58 c77 32 141 58 143 59 1 0 -3 -9 -9 -21z m334
-20 c-8 -24 -44 -117 -80 -208 -59 -150 -70 -169 -112 -206 -174 -155 -206
-182 -209 -179 -6 5 118 385 126 385 7 1 19 11 180 159 71 64 102 90 108 91 1
0 -5 -19 -13 -42z m-1139 -25 c-37 -65 -49 -77 -30 -28 15 35 43 75 53 75 2 0
-8 -21 -23 -47z m165 -5 c-12 -29 -23 -59 -26 -66 -3 -7 -18 -19 -34 -27 l-28
-15 22 50 c22 50 65 110 79 110 4 0 -2 -24 -13 -52z m275 10 c-9 -18 -19 -35
-22 -38 -8 -9 10 45 20 58 18 22 19 13 2 -20z m-809 -28 c0 -8 -10 -16 -22
-18 -25 -4 -26 -2 -17 23 8 19 39 16 39 -5z m713 -30 c-27 -39 -45 -54 -93
-76 -33 -14 -73 -32 -88 -40 -26 -12 -28 -12 -23 2 3 9 6 19 6 24 0 7 125 90
136 90 3 0 22 11 42 25 53 36 56 31 20 -25z m-435 -21 c-35 -66 -96 -129 -126
-129 -27 0 -62 33 -53 49 28 45 82 90 115 96 20 3 47 13 61 20 14 8 26 14 27
15 1 0 -10 -23 -24 -51z m122 -46 c-20 -35 -46 -61 -94 -92 -36 -24 -64 -41
-61 -37 18 23 176 182 178 180 2 -1 -8 -24 -23 -51z m-365 17 c0 -23 -4 -30
-20 -30 -24 0 -26 17 -3 42 21 24 23 23 23 -12z m794 -2 c-21 -41 -115 -188
-120 -188 -2 0 18 45 44 99 39 82 63 114 90 120 1 1 -5 -14 -14 -31z m1108 22
c21 -6 40 -16 44 -21 4 -7 -3 -6 -17 1 -29 16 -118 17 -147 1 -12 -6 -22 -9
-22 -7 0 11 56 35 80 36 14 0 42 -5 62 -10z m-1258 -142 c-42 -129 -67 -172
-111 -193 -21 -10 -74 -35 -117 -57 -44 -21 -80 -38 -82 -38 -1 0 7 22 18 49
16 37 31 55 62 72 51 28 192 170 226 226 35 58 36 37 4 -59z m1254 94 c9 -6 8
-13 -5 -28 -140 -155 -240 -277 -308 -371 -20 -29 -41 -53 -45 -53 -5 0 7 47
25 105 48 154 132 284 215 334 35 21 94 28 118 13z m119 -82 c18 -19 32 -44
33 -55 0 -22 -92 -103 -200 -177 -63 -42 -238 -133 -245 -126 -9 9 248 323
324 395 27 26 30 25 88 -37z m-1592 21 c-3 -12 -10 -21 -14 -21 -4 0 -33 -16
-65 -35 -69 -41 -78 -44 -39 -11 55 46 118 93 121 90 2 -1 1 -12 -3 -23z m124
-32 c-42 -50 -138 -133 -145 -126 -2 2 6 28 18 59 21 53 26 58 93 91 38 19 72
33 74 31 2 -2 -16 -27 -40 -55z m1081 9 c-37 -68 -166 -365 -175 -401 -4 -15
-12 -30 -18 -34 -14 -9 -9 5 83 232 47 114 93 212 108 228 14 15 27 27 28 27
1 0 -11 -24 -26 -52z m-1605 32 c3 -5 -1 -10 -10 -10 -9 0 -13 5 -10 10 3 6 8
10 10 10 2 0 7 -4 10 -10z m170 -30 c-16 -16 -35 -30 -43 -30 -8 0 3 13 24 29
50 38 55 38 19 1z m885 16 c0 -2 -16 -16 -35 -30 -19 -15 -35 -23 -35 -17 0 5
15 18 33 29 36 23 37 23 37 18z m454 -28 c-3 -7 -37 -40 -75 -73 -39 -33 -79
-68 -90 -78 -10 -10 -19 -14 -19 -9 0 5 21 27 46 47 25 21 67 57 92 81 52 48
54 49 46 32z m687 -15 c14 -16 30 -40 37 -55 11 -27 11 -27 -18 -22 -16 4 -43
2 -60 -4 -28 -10 -31 -9 -45 18 -20 38 -19 45 7 70 29 27 49 25 79 -7z m-2198
5 c22 -11 48 -40 42 -46 -5 -5 -46 18 -69 39 -22 21 -7 25 27 7z m1112 -18
c-3 -5 -32 -93 -64 -194 l-58 -184 -109 -104 c-60 -58 -140 -131 -179 -163
-38 -33 -76 -65 -83 -72 -7 -7 -19 -13 -26 -13 -18 0 -126 72 -154 102 l-23
25 58 33 c125 71 256 192 335 310 28 41 62 85 77 97 173 141 244 193 226 163z
m-1017 -25 c-3 -3 -9 2 -12 12 -6 14 -5 15 5 6 7 -7 10 -15 7 -18z m267 -7
c-4 -13 -15 -42 -26 -65 -17 -42 -19 -43 -66 -43 -79 0 -78 10 5 73 42 31 81
57 85 57 5 0 5 -10 2 -22z m539 -23 c-15 -20 -65 -66 -113 -103 -47 -36 -142
-121 -210 -187 -157 -151 -169 -164 -189 -197 -16 -28 -26 -32 -72 -28 -35 3
-69 23 -114 66 -34 34 -96 128 -96 146 0 4 19 -5 43 -21 56 -37 99 -51 160
-51 92 0 199 87 262 214 11 22 27 43 35 48 43 23 306 147 313 148 4 0 -4 -16
-19 -35z m-726 -15 c-7 -11 -20 -20 -28 -20 -11 1 -8 6 9 20 30 25 34 25 19 0z
m1912 -23 c0 -7 -14 -25 -32 -42 -33 -31 -33 -31 -4 27 18 35 36 42 36 15z
m150 -18 c0 -26 -31 -79 -58 -98 -17 -11 -32 -21 -34 -21 -1 0 -3 25 -3 56 0
41 5 59 17 68 19 14 78 9 78 -5z m-791 -94 c-77 -188 -96 -224 -123 -235 -14
-5 -44 -18 -67 -29 -31 -15 -39 -17 -35 -6 3 8 54 83 114 167 60 84 117 166
127 181 31 48 26 24 -16 -78z m-1322 79 c3 -8 -4 -28 -16 -44 -11 -16 -21 -34
-21 -40 0 -16 -20 -12 -27 6 -8 20 26 94 44 94 7 0 16 -7 20 -16z m1296 4 c-4
-7 -52 -76 -107 -153 -55 -77 -109 -154 -120 -170 -73 -107 -100 -113 -33 -9
24 38 64 106 88 151 34 62 59 95 109 137 69 59 76 63 63 44z m512 -55 c-87
-77 -215 -165 -305 -209 -52 -26 -108 -53 -124 -61 -22 -12 -27 -12 -21 -1 21
37 58 63 144 104 99 46 281 154 315 186 11 10 22 18 25 18 3 -1 -12 -17 -34
-37z m166 -64 c-6 -17 -33 -38 -80 -63 -39 -20 -71 -34 -71 -30 0 11 71 106
114 152 l41 44 3 -39 c2 -22 -1 -51 -7 -64z m-1827 61 l35 0 -26 -57 c-14 -32
-29 -61 -35 -64 -6 -4 -24 -1 -41 5 -34 13 -59 60 -51 97 12 50 11 49 48 34
20 -8 51 -15 70 -15z m986 -13 c0 -2 -10 -12 -22 -23 l-23 -19 19 23 c18 21
26 27 26 19z m-793 -47 c-31 -25 -106 -60 -127 -59 -15 0 127 78 144 79 5 0
-3 -9 -17 -20z m743 6 c0 -2 -8 -10 -17 -17 -16 -13 -17 -12 -4 4 13 16 21 21
21 13z m1087 -52 c14 -14 23 -27 21 -30 -3 -2 -26 5 -53 17 -35 16 -44 23 -34
30 23 14 39 10 66 -17z m-405 -45 l-27 -60 -145 -75 c-80 -42 -172 -92 -205
-111 -33 -20 -63 -38 -67 -40 -3 -2 -3 9 1 24 5 22 40 50 152 126 79 54 153
102 164 107 11 5 49 27 85 49 36 22 66 40 67 41 1 0 -10 -27 -25 -61z m-1190
-6 c-59 -70 -147 -148 -226 -199 l-29 -18 12 23 c7 12 29 39 50 60 47 47 225
191 230 186 2 -2 -15 -26 -37 -52z m-547 9 c-3 -3 -16 5 -28 17 l-22 23 28
-17 c15 -10 25 -20 22 -23z m1034 -14 c-12 -23 -47 -82 -78 -129 -48 -75 -63
-91 -110 -113 -29 -15 -55 -26 -56 -24 -1 2 13 39 31 83 26 61 43 86 72 107
45 32 85 64 126 100 17 14 32 25 34 23 2 -2 -6 -23 -19 -47z m-787 12 c-18
-11 -45 -20 -60 -19 -22 0 -18 4 23 19 66 24 77 24 37 0z m1861 -5 c63 -28 80
-49 73 -86 -6 -33 -7 -34 -51 -32 -91 3 -174 -80 -266 -265 -51 -102 -52 -102
-146 -170 -52 -37 -105 -74 -117 -82 -12 -8 -44 -31 -72 -51 -78 -57 -79 -56
-34 27 85 157 297 447 429 587 25 27 54 59 65 72 21 27 57 27 119 0z m-1938
-46 c16 -1 16 -2 -5 -8 -33 -9 -70 -2 -70 13 0 22 12 26 34 11 11 -8 30 -15
41 -16z m2047 -81 c-6 -6 -7 0 -4 19 5 21 7 23 10 9 2 -10 0 -22 -6 -28z
m-980 -13 c-4 -25 -19 -41 -28 -32 -7 7 14 57 24 57 5 0 7 -11 4 -25z m429 -6
c-18 -29 -64 -61 -178 -124 -26 -15 -87 -50 -136 -77 -48 -28 -89 -49 -91 -47
-3 2 2 18 9 35 13 32 39 49 215 142 47 25 108 58 135 73 64 36 69 36 46 -2z
m-507 -30 c-11 -23 -33 -39 -82 -60 -37 -16 -75 -34 -85 -40 -25 -14 -33 -4
-13 16 8 9 21 24 28 33 11 14 137 78 161 81 4 1 0 -13 -9 -30z m586 6 c-7 -8
-17 -15 -23 -15 -6 0 -2 7 9 15 25 19 30 19 14 0z m404 -7 c-20 -64 -88 -132
-228 -227 l-48 -34 36 69 c73 139 149 213 219 214 25 0 27 -3 21 -22z m-1364
-4 c0 -4 -12 -33 -27 -66 -23 -52 -33 -63 -77 -85 -28 -14 -75 -41 -103 -59
-29 -19 -53 -31 -53 -27 0 15 100 120 169 179 72 60 91 72 91 58z m964 -36
c-11 -19 -126 -181 -136 -193 -5 -5 -4 4 2 20 47 117 47 117 93 152 48 36 51
38 41 21z m-574 -38 c-12 -16 -23 -30 -26 -30 -8 0 18 44 30 52 19 13 18 9 -4
-22z m-248 -17 c-24 -34 -57 -64 -97 -87 -19 -11 -5 7 36 48 70 70 93 84 61
39z m678 18 c0 -16 -287 -178 -297 -168 -3 3 278 171 295 176 1 1 2 -3 2 -8z
m-511 -48 c-13 -21 -26 -39 -30 -41 -9 -4 -173 -124 -179 -131 -3 -3 -27 -24
-55 -46 -27 -22 -77 -66 -110 -97 -33 -31 -62 -55 -64 -53 -2 2 28 39 66 82
39 43 77 87 86 98 105 133 107 134 200 179 51 25 96 45 100 45 5 1 -2 -16 -14
-36z m157 21 c-3 -9 -6 -19 -6 -22 0 -4 -9 -13 -20 -20 -18 -11 -19 -10 -9 15
13 36 19 43 31 43 5 0 7 -7 4 -16z m-452 -45 c-25 -27 -54 -43 -54 -29 0 9 57
50 69 50 2 0 -4 -9 -15 -21z m-496 -28 c26 -21 62 -46 80 -55 17 -9 32 -18 32
-19 0 -2 -11 -17 -23 -35 l-24 -32 -33 25 c-62 46 -90 86 -90 129 0 14 3 26 6
26 3 0 26 -17 52 -39z m852 -6 c-7 -8 -17 -15 -23 -15 -5 0 -2 9 8 20 21 23
35 19 15 -5z m320 -137 c-46 -84 -116 -211 -157 -281 -69 -117 -82 -132 -149
-183 -80 -60 -138 -121 -181 -191 -26 -41 -31 -44 -68 -42 -48 3 -137 34 -185
64 -69 44 -84 72 -81 147 l1 27 50 -34 c27 -18 71 -38 98 -44 172 -37 277 72
387 402 l44 131 123 62 c68 34 139 70 158 81 19 11 37 19 39 17 2 -1 -34 -72
-79 -156z m581 91 c-26 -46 -72 -89 -94 -89 -4 0 10 19 32 43 21 23 49 54 61
70 33 42 33 32 1 -24z m-1371 22 c-13 -25 -17 -27 -60 -35 -34 -7 -34 -7 15
23 60 36 58 36 45 12z m540 -1 c0 -21 -41 -70 -59 -70 -12 0 18 61 38 77 21
16 21 16 21 -7z m725 -61 c-60 -62 -80 -82 -102 -102 -20 -17 -20 -17 -15 8 2
14 21 38 41 53 55 41 54 41 81 62 39 31 37 24 -5 -21z m-1146 14 c-139 -181
-244 -272 -225 -197 13 51 62 99 191 192 37 26 52 28 34 5z m194 -24 c-10 -17
-34 -43 -53 -58 -19 -14 -59 -48 -88 -76 -52 -49 -93 -74 -122 -74 -8 0 8 20
35 45 46 43 236 194 243 194 2 0 -5 -14 -15 -31z m292 21 c-3 -5 -12 -10 -18
-10 -7 0 -6 4 3 10 19 12 23 12 15 0z m-169 -16 c-3 -9 -6 -20 -6 -24 0 -9
-95 -76 -143 -101 -34 -19 35 60 90 103 53 40 68 46 59 22z m-502 -19 c-13
-31 -154 -87 -154 -61 0 11 61 61 82 66 33 9 76 6 72 -5z m532 -170 c-105
-309 -215 -411 -374 -346 -46 18 -112 66 -112 81 0 4 18 0 39 -11 134 -64 246
12 363 247 48 96 68 126 87 132 14 5 28 8 29 6 2 -1 -12 -50 -32 -109z m-594
50 c-9 -19 -22 -35 -27 -35 -6 0 -26 13 -44 28 l-34 28 34 -1 c19 0 43 2 54 6
34 13 35 10 17 -26z m1228 28 c-1 -18 -19 -33 -84 -69 -82 -45 -81 -35 1 21
32 22 60 43 61 48 2 4 8 7 13 7 5 0 9 -3 9 -7z m-766 -124 c-95 -180 -183
-243 -285 -202 -22 8 -39 19 -39 24 0 14 121 131 189 183 62 48 174 107 179
94 2 -4 -18 -48 -44 -99z m919 88 c-45 -56 -215 -257 -218 -257 -4 0 63 192
69 197 4 4 158 81 164 82 2 1 -5 -9 -15 -22z m-1417 -65 c27 -15 13 -55 -25
-73 -79 -37 -128 1 -109 85 15 66 23 69 74 31 25 -19 52 -38 60 -43z m1104 -6
c0 -2 -8 -10 -17 -17 -16 -13 -17 -12 -4 4 13 16 21 21 21 13z m-990 -33 c-1
-10 -36 -53 -44 -53 -13 0 -5 34 12 46 19 15 32 18 32 7z m55 -22 c-16 -10
-32 -16 -35 -14 -8 7 32 33 49 33 9 0 3 -8 -14 -19z m994 -112 c-23 -63 -49
-122 -58 -133 -9 -10 -50 -41 -91 -69 -243 -163 -343 -273 -349 -384 -1 -18
-70 -17 -77 0 -3 8 16 49 41 92 26 43 66 119 90 169 27 56 54 99 72 111 33 23
310 248 368 299 22 19 41 33 43 32 1 -2 -16 -54 -39 -117z m-91 58 c-170 -143
-278 -226 -278 -214 0 16 51 97 71 114 21 17 252 152 262 153 4 0 -21 -24 -55
-53z m-1031 1 c10 -23 -10 -95 -30 -109 -18 -12 -48 4 -82 44 -42 49 -43 57
-7 57 15 1 41 7 57 15 42 19 51 18 62 -7z m116 -18 c-18 -31 -25 -35 -37 -23
-6 6 40 53 51 53 2 0 -4 -13 -14 -30z m1130 -41 c-21 -35 -49 -67 -66 -76 -26
-13 -21 -4 33 61 34 42 64 76 66 76 2 0 -13 -27 -33 -61z m-1198 -78 c3 -5 0
-22 -7 -36 l-12 -27 -8 27 c-4 16 -5 32 -2 37 7 11 21 10 29 -1z m665 -54 c0
-2 -10 -12 -22 -23 l-23 -19 19 23 c18 21 26 27 26 19z m447 -19 c-8 -13 -38
-63 -67 -111 -29 -49 -54 -87 -56 -85 -1 2 12 43 30 92 25 65 41 93 62 107 38
25 48 24 31 -3z m-487 -32 c0 -2 -8 -10 -17 -17 -16 -13 -17 -12 -4 4 13 16
21 21 21 13z m355 -76 c-17 -47 -33 -85 -85 -196 -38 -80 -138 -204 -165 -204
-7 0 -31 12 -53 26 l-40 26 46 47 c108 109 279 298 295 327 15 27 16 14 2 -26z
m-88 -20 c-16 -23 -174 -196 -232 -253 -45 -45 -55 -37 -25 22 23 46 104 127
200 200 74 57 76 58 57 31z m-743 -70 c36 -21 93 -40 133 -44 15 -2 35 -5 43
-6 22 -2 -50 -28 -83 -29 -60 -2 -133 45 -162 102 l-14 29 26 -17 c14 -10 40
-26 57 -35z m437 13 c-93 -172 -114 -205 -123 -188 -11 19 -13 74 -4 101 7 19
126 118 133 110 3 -2 0 -12 -6 -23z m-157 -249 c3 -8 1 -16 -4 -19 -12 -7 -38
32 -50 76 -8 28 -6 36 13 57 l22 24 7 -63 c4 -34 9 -68 12 -75z m-184 114 c0
-3 -9 -6 -20 -5 -11 1 -20 5 -20 9 0 3 9 6 20 5 11 -1 20 -5 20 -9z m140 -170
c0 -22 -20 -3 -34 32 -25 63 -19 79 9 24 14 -27 25 -52 25 -56z m-82 67 c1
-14 9 -39 17 -55 8 -16 15 -34 15 -40 0 -25 -93 -2 -104 27 -4 10 57 93 68 93
1 0 3 -11 4 -25z m310 -116 c-7 -5 -20 -1 -31 8 -13 13 -14 18 -5 24 7 5 20 1
31 -8 13 -13 14 -18 5 -24z m-168 -9 c8 -5 11 -10 5 -10 -5 0 -17 5 -25 10 -8
5 -10 10 -5 10 6 0 17 -5 25 -10z m-46 -63 c-10 -13 -28 -31 -41 -41 -22 -16
-23 -16 -23 3 0 21 44 61 67 61 11 0 10 -5 -3 -23z m117 -48 c19 -19 20 -23 6
-36 -14 -14 -18 -14 -40 4 -19 15 -23 23 -15 36 12 22 24 21 49 -4z m193 0
c-8 -14 -24 -10 -24 6 0 9 6 12 15 9 8 -4 12 -10 9 -15z m-404 -14 c0 -8 -10
-19 -21 -26 -22 -11 -21 -3 4 29 12 16 17 15 17 -3z m460 3 c0 -22 -17 -41
-30 -33 -8 5 -7 12 6 26 20 22 24 23 24 7z m-360 -2 c0 -3 -4 -8 -10 -11 -5
-3 -10 -1 -10 4 0 6 5 11 10 11 6 0 10 -2 10 -4z m234 -19 c16 -12 17 -16 5
-35 -8 -12 -17 -22 -21 -22 -12 0 -30 41 -24 56 7 17 17 18 40 1z m166 -17 c0
-5 -5 -10 -11 -10 -5 0 -7 5 -4 10 3 6 8 10 11 10 2 0 4 -4 4 -10z m-337 -58
c3 -4 -1 -15 -8 -25 -12 -16 -15 -15 -39 14 -14 17 -24 35 -20 40 5 9 58 -13
67 -29z m112 0 c-8 -9 -35 20 -28 31 4 6 11 3 19 -8 8 -10 12 -21 9 -23z m155
-42 c17 -36 36 -73 41 -82 14 -27 2 -22 -61 25 -68 49 -77 69 -48 109 24 34
25 33 68 -52z m115 29 c10 -31 0 -33 -28 -5 l-26 26 24 0 c15 0 26 -7 30 -21z
m-611 -21 c-22 -43 -25 -46 -21 -21 3 19 24 53 33 53 3 0 -3 -15 -12 -32z
m648 -123 c14 -22 40 -55 57 -72 31 -33 42 -61 19 -47 -80 48 -118 89 -157
170 -23 47 -41 87 -41 89 0 9 99 -105 122 -140z m-562 89 c0 -24 -3 -25 -27
-19 -37 9 -38 11 -25 40 10 22 15 24 32 15 12 -6 20 -21 20 -36z m610 6 c11
-22 18 -40 15 -40 -2 0 -14 18 -25 40 -11 22 -18 40 -15 40 2 0 14 -18 25 -40z
m-533 8 c22 -25 37 -48 30 -48 -2 0 -18 16 -36 35 -17 19 -28 35 -23 35 5 0
18 -10 29 -22z m136 0 c67 -68 76 -112 13 -66 -49 36 -58 50 -50 73 8 20 11
19 37 -7z m-405 -79 c3 -57 -8 -89 -29 -89 -15 0 -10 89 6 120 9 17 17 30 18
30 1 0 3 -28 5 -61z m292 -31 c0 -4 -16 0 -35 9 -29 14 -35 22 -35 47 l1 31
34 -39 c19 -22 35 -43 35 -48z m224 42 c-6 -5 -24 21 -24 34 0 6 6 1 14 -10 8
-10 12 -21 10 -24z m-364 0 c8 -5 13 -10 10 -11 -41 -8 -60 -8 -60 -1 0 22 25
28 50 12z m374 -125 c66 -47 71 -53 118 -153 27 -58 47 -106 45 -108 -2 -3
-43 23 -90 57 -81 58 -89 67 -135 153 -27 50 -60 109 -73 131 l-24 40 45 -36
c25 -20 76 -58 114 -84z m114 61 c37 -26 72 -78 72 -107 0 -5 -20 1 -45 13
-37 18 -50 32 -70 76 -14 30 -25 56 -25 59 0 6 16 -4 68 -41z m246 -22 c29
-52 13 -55 -21 -4 -23 33 -31 66 -14 55 5 -3 21 -26 35 -51z m-664 -31 c16
-35 26 -63 22 -63 -13 0 -142 100 -142 109 0 12 27 20 63 18 23 -2 32 -11 57
-64z m-191 -37 c1 -5 -5 -3 -12 3 -8 6 -17 8 -20 4 -4 -3 -7 -2 -7 3 0 6 6 16
12 22 10 10 14 9 20 -5 3 -10 7 -22 7 -27z m784 -34 c26 -19 46 -36 44 -38 -2
-2 -24 3 -49 12 -32 13 -48 25 -56 46 -12 32 -12 32 61 -20z m-376 -61 c18
-20 33 -40 33 -45 0 -18 -47 24 -82 74 -43 61 -51 92 -11 41 15 -19 42 -50 60
-70z m-496 32 c8 -21 6 -30 -11 -49 -22 -23 -120 -69 -120 -56 0 20 95 132
112 132 5 0 13 -12 19 -27z m1024 -10 c26 -39 11 -38 -19 2 -16 20 -21 32 -12
29 8 -3 22 -17 31 -31z m-791 2 c11 -8 18 -17 15 -19 -2 -2 -15 4 -28 15 -27
22 -15 26 13 4z m-49 -75 l20 -25 -20 15 c-43 30 -84 74 -79 82 6 9 36 -18 79
-72z m677 -82 c20 -49 31 -87 25 -85 -12 4 -146 215 -147 230 0 4 19 -7 43
-25 35 -26 49 -47 79 -120z m47 118 c22 -8 38 -22 47 -44 7 -18 11 -32 8 -32
-2 0 -29 16 -59 36 -75 50 -73 68 4 40z m-864 -16 c3 -5 1 -10 -4 -10 -6 0
-11 5 -11 10 0 6 2 10 4 10 3 0 8 -4 11 -10z m147 -115 c89 -69 162 -170 274
-376 58 -105 103 -193 101 -195 -1 -2 -51 28 -109 67 l-106 70 -56 107 c-76
145 -143 257 -199 331 -26 34 -47 63 -47 66 0 14 94 -32 142 -70z m867 25 c17
-27 27 -50 22 -50 -13 0 -29 22 -46 63 -21 51 -12 46 24 -13z m-51 -78 c26
-61 35 -92 27 -92 -3 0 -24 9 -46 21 -41 20 -44 26 -89 140 l-20 49 54 -36
c41 -27 59 -47 74 -82z m-981 91 c35 -32 88 -117 230 -370 13 -24 20 -43 16
-43 -14 0 -137 99 -201 163 -104 101 -134 168 -108 232 17 39 33 44 63 18z
m-129 -45 c-16 -41 -19 -66 -13 -110 3 -32 2 -58 -2 -58 -14 0 -36 70 -39 122
-2 43 1 50 29 73 18 14 35 25 39 25 3 0 -3 -24 -14 -52z m452 -24 c0 -3 -13 4
-30 16 -16 12 -30 24 -30 26 0 3 14 -4 30 -16 17 -12 30 -24 30 -26z m774 30
c3 -8 2 -12 -4 -9 -6 3 -10 10 -10 16 0 14 7 11 14 -7z m-655 -42 c34 -18 61
-36 58 -38 -6 -6 -69 26 -112 56 -38 27 -26 23 54 -18z m289 -10 c17 -9 32
-20 32 -25 0 -8 -86 38 -105 56 -10 9 9 1 73 -31z m-950 -28 c2 -20 7 -45 12
-54 8 -15 3 -22 -30 -38 -22 -11 -43 -16 -45 -11 -12 18 35 139 53 139 4 0 9
-16 10 -36z m171 -84 c51 -67 134 -141 247 -222 56 -40 108 -85 117 -100 18
-32 12 -31 -63 10 -201 109 -328 231 -358 342 -11 45 -3 75 11 40 6 -14 26
-45 46 -70z m1139 66 c33 -24 119 -146 103 -146 -5 0 -26 9 -48 21 -31 16 -43
32 -65 85 -15 35 -26 64 -24 64 1 0 17 -11 34 -24z m-594 -103 l99 -58 81
-135 c45 -74 95 -155 112 -180 17 -25 50 -80 73 -123 l43 -77 -53 21 c-71 28
-167 82 -205 116 -18 15 -57 76 -88 135 -31 59 -84 154 -117 210 -34 57 -73
123 -86 147 l-25 44 33 -21 c19 -11 78 -47 133 -79z m116 66 l25 -20 -32 16
c-18 8 -33 18 -33 20 0 10 16 4 40 -16z m-105 1 c3 -6 -1 -7 -9 -4 -18 7 -21
14 -7 14 6 0 13 -4 16 -10z m-684 -77 c8 -6 22 -25 32 -42 17 -30 17 -30 -5
-25 -13 3 -41 7 -62 10 -57 6 -65 19 -32 48 30 25 45 27 67 9z m829 7 c8 -5
12 -11 9 -14 -3 -3 -14 1 -25 9 -21 16 -8 20 16 5z m250 -22 c0 -5 -9 -4 -20
2 -11 6 -20 12 -20 14 0 2 9 2 20 -1 11 -3 20 -9 20 -15z m-23 -93 l14 -26
-50 26 c-28 14 -51 27 -51 29 0 3 -3 11 -6 20 -11 28 78 -18 93 -49z m163 35
c22 -11 40 -25 40 -30 0 -13 -4 -13 -44 7 -19 9 -37 22 -40 30 -7 17 -2 17 44
-7z m-1231 -99 c50 -46 181 -134 255 -172 85 -44 86 -45 138 -132 29 -49 56
-91 60 -93 20 -13 5 -22 -19 -13 -105 40 -312 137 -333 156 -38 36 -102 71
-154 85 -25 6 -60 24 -77 39 -26 22 -31 33 -31 72 0 65 21 115 51 126 27 9 27
9 110 -68z m48 59 c24 -10 64 -33 89 -51 59 -40 161 -142 147 -146 -24 -8
-259 149 -303 202 -18 22 13 20 67 -5z m1122 -29 c33 -49 34 -50 2 -38 -24 9
-61 51 -61 70 0 14 43 -9 59 -32z m-247 -11 c21 -52 14 -52 -12 0 -11 22 -17
40 -13 40 5 0 16 -18 25 -40z m505 -15 c23 -14 43 -28 43 -30 0 -2 -22 6 -50
18 -27 11 -50 25 -50 29 0 13 11 10 57 -17z m-152 3 c20 -9 65 -81 65 -104 0
-2 -15 5 -33 16 -33 20 -88 100 -68 100 5 0 22 -5 36 -12z m-262 -50 c15 -29
43 -81 62 -115 52 -91 36 -77 -22 20 -64 104 -86 147 -75 147 5 0 21 -24 35
-52z m107 17 c0 -10 -16 -4 -40 16 l-25 20 33 -16 c17 -8 32 -18 32 -20z
m-1358 -4 c-3 -24 -8 -28 -32 -27 l-29 1 26 28 c34 34 41 34 35 -2z m575 -44
c38 -23 103 -60 145 -82 45 -23 81 -49 87 -62 6 -13 8 -23 6 -23 -8 0 -216
130 -255 159 -84 63 -76 67 17 8z m867 -89 c44 -67 124 -136 203 -174 64 -31
103 -63 103 -85 0 -12 -72 -32 -110 -31 -38 2 -34 -2 -146 134 -61 73 -161
214 -183 255 -21 41 102 -51 133 -99z m68 39 l23 -32 -35 24 c-77 53 -111 99
-45 60 19 -12 45 -35 57 -52z m122 27 c28 -51 31 -58 16 -49 -5 3 -17 23 -26
43 -10 20 -19 40 -21 45 -2 4 -2 7 1 7 2 0 16 -21 30 -46z m160 -20 c3 -9 -8
-4 -29 12 -19 14 -35 28 -35 29 0 10 59 -28 64 -41z m-1833 -10 c-18 -19 -46
-60 -63 -91 -19 -34 -34 -50 -38 -43 -7 12 -7 17 4 72 8 37 73 98 104 98 l24
0 -31 -36z m1804 -28 c44 -35 91 -76 104 -90 l24 -26 -25 0 c-26 0 -89 41
-124 81 -39 46 -75 99 -67 99 5 0 45 -29 88 -64z m-1729 10 c21 -16 22 -15
-26 -39 -19 -9 -46 -25 -60 -34 -24 -17 -24 -16 5 22 54 74 52 72 81 51z m836
-26 c81 -53 83 -56 19 -26 -48 22 -107 66 -89 66 4 0 35 -18 70 -40z m382 14
c3 -8 2 -12 -4 -9 -6 3 -10 10 -10 16 0 14 7 11 14 -7z m378 -35 c25 -42 5
-36 -32 11 -30 37 -30 40 -8 30 13 -6 31 -24 40 -41z m-827 -87 c-6 -6 -153
69 -158 82 -3 7 32 -8 78 -33 46 -25 82 -47 80 -49z m475 90 c0 -13 76 -112
133 -172 76 -80 89 -102 32 -50 -89 80 -204 230 -176 230 6 0 11 -4 11 -8z
m365 -110 c-7 -7 -88 59 -115 93 -8 11 15 -5 52 -35 37 -30 65 -56 63 -58z
m-1524 35 c49 -66 171 -260 182 -289 12 -33 -3 -18 -38 36 -86 135 -178 221
-262 246 l-42 13 24 18 c23 19 62 37 80 38 6 1 31 -27 56 -62z m1639 -4 c23
-22 24 -23 4 -23 -18 0 -44 26 -69 70 -8 15 9 2 65 -47z m-714 -47 c6 -6 15
-23 22 -38 11 -27 11 -27 -78 18 -79 40 -130 81 -130 105 0 9 170 -68 186 -85z
m-710 13 c12 -1 136 -142 169 -192 24 -37 24 -37 2 -26 -41 22 -162 101 -198
130 -20 16 -55 58 -77 94 l-41 64 68 -34 c38 -19 72 -35 77 -36z m440 -8 c32
-15 75 -36 94 -45 23 -11 51 -41 83 -89 26 -40 60 -87 75 -106 l27 -35 -30 16
c-16 9 -64 32 -106 51 -70 32 -78 40 -119 103 -25 38 -47 71 -50 74 -9 8 -41
60 -37 60 2 0 30 -13 63 -29z m-738 -31 c5 0 34 -27 65 -59 83 -87 73 -95 -15
-12 -21 19 -59 46 -85 60 -26 14 -49 34 -51 44 -3 16 1 15 37 -7 22 -14 45
-26 49 -26z m-120 5 c-3 -3 -9 2 -12 12 -6 14 -5 15 5 6 7 -7 10 -15 7 -18z
m2015 1 c7 -18 -1 -26 -25 -26 -21 0 -23 11 -6 28 16 16 25 15 31 -2z m-786
-18 c15 -7 78 -45 139 -85 130 -85 159 -120 56 -70 -37 18 -94 46 -128 62 -39
19 -69 41 -83 62 -31 48 -29 51 16 31z m-601 -43 c41 -19 79 -35 82 -35 4 -1
25 -9 47 -20 22 -11 45 -20 50 -20 10 0 167 -231 161 -237 -1 -1 -65 28 -142
66 -133 65 -141 70 -179 127 -22 32 -44 64 -50 70 -5 7 -17 20 -25 31 -8 10
-21 26 -29 36 -20 26 -1 21 85 -18z m-520 -28 c49 -36 86 -74 118 -121 26 -37
45 -71 42 -73 -13 -14 -224 138 -255 182 -54 80 -5 86 95 12z m728 8 c15 -19
23 -35 19 -35 -4 0 -18 16 -31 35 -29 45 -22 45 12 0z m757 18 c13 -16 12 -17
-3 -4 -17 13 -22 21 -14 21 2 0 10 -8 17 -17z m-430 -57 c47 -23 60 -36 89
-89 18 -34 47 -82 63 -106 l30 -44 -62 34 c-36 20 -80 55 -105 84 -49 58 -126
161 -126 170 0 3 12 -1 28 -8 15 -7 52 -26 83 -41z m-1204 -3 c36 -40 58 -73
48 -73 -6 0 -71 42 -98 63 -18 15 -14 47 6 47 5 0 26 -17 44 -37z m-111 10 c7
-10 14 -25 14 -33 0 -8 6 -27 14 -41 13 -26 13 -26 -30 -27 -53 -3 -65 21 -39
79 20 44 23 46 41 22z m2177 -2 c-3 -11 -17 -30 -31 -44 -29 -26 -81 -62 -83
-56 -8 33 -5 78 5 94 10 16 26 21 64 22 44 2 49 0 45 -16z m-1398 -133 c25
-11 72 -77 138 -190 15 -26 27 -49 27 -52 0 -5 -49 27 -245 156 -25 16 -113
156 -133 209 -2 5 39 -18 91 -51 53 -33 107 -65 122 -72z m1225 117 c0 -11
-83 -43 -97 -38 -9 4 5 13 34 23 56 20 63 22 63 15z m-176 -21 c9 -3 16 -10
16 -14 0 -10 -38 -1 -46 11 -6 10 7 12 30 3z m-9 -92 c33 -27 76 -87 57 -81
-6 2 -33 24 -59 50 -26 25 -69 60 -95 79 -27 18 -48 35 -48 38 0 7 114 -60
145 -86z m201 31 c-2 -3 -17 -1 -33 4 l-28 10 30 16 c29 15 30 14 33 -5 2 -11
1 -22 -2 -25z m-962 21 c3 -8 2 -12 -4 -9 -6 3 -10 10 -10 16 0 14 7 11 14 -7z
m-937 -30 c-7 -7 -37 7 -37 17 0 6 9 5 21 -1 11 -7 19 -14 16 -16z m378 -62
c19 -31 33 -58 31 -60 -11 -11 -40 20 -75 81 -35 59 -37 65 -15 51 13 -9 40
-41 59 -72z m1175 -32 c30 -21 66 -50 79 -64 24 -26 24 -26 3 -26 -65 0 -214
102 -268 185 -15 24 -12 23 57 -16 41 -23 99 -59 129 -79z m315 70 c8 0 15 -7
15 -16 0 -23 -62 -12 -106 18 -27 18 -30 24 -17 29 9 3 33 -3 54 -13 21 -10
45 -18 54 -18z m-810 6 c104 -46 175 -89 224 -135 30 -28 89 -69 130 -91 42
-21 89 -50 104 -62 16 -13 42 -34 58 -47 52 -41 96 -151 61 -151 -4 0 -17 8
-28 18 -60 56 -188 139 -282 183 -59 28 -118 56 -131 62 -13 7 -61 65 -108
130 -46 65 -80 117 -76 114 5 -2 26 -12 48 -21z m-1020 4 c3 -6 -1 -7 -9 -4
-18 7 -21 14 -7 14 6 0 13 -4 16 -10z m-57 -42 c15 -14 43 -40 62 -58 19 -18
71 -58 115 -91 66 -48 89 -72 133 -142 28 -46 52 -86 52 -90 0 -4 -21 6 -47
21 -27 15 -60 34 -76 41 -15 8 -39 29 -52 47 -45 59 -154 161 -219 206 -71 48
-95 76 -76 88 24 15 81 3 108 -22z m128 1 c3 -6 -5 -3 -20 6 -14 10 -26 19
-26 22 0 7 39 -17 46 -28z m-306 -19 c8 -16 4 -27 -22 -62 -18 -24 -50 -52
-71 -62 -20 -10 -43 -23 -50 -29 -7 -7 -25 -23 -40 -36 l-26 -24 5 29 c8 43
40 89 92 131 40 33 92 71 99 72 1 1 7 -8 13 -19z m455 -55 c48 -30 94 -57 103
-60 13 -4 70 -109 91 -167 9 -25 -183 117 -210 156 -38 54 -81 126 -76 126 3
0 44 -25 92 -55z m232 7 c20 -33 22 -41 9 -36 -19 7 -64 88 -46 82 7 -2 24
-23 37 -46z m1076 -80 c58 -25 65 -30 45 -35 -79 -22 -128 4 -198 104 l-43 61
63 -51 c35 -28 94 -63 133 -79z m165 63 c11 -10 10 -14 -3 -25 -14 -11 -21 -8
-51 21 -20 19 -40 42 -46 52 -8 15 -1 14 39 -9 26 -15 54 -32 61 -39z m111 49
c6 -5 -10 -24 -28 -34 -16 -8 -19 -5 -23 20 -4 27 -3 29 21 23 14 -3 28 -7 30
-9z m-1742 -14 c14 -11 22 -20 18 -20 -4 0 -18 9 -32 20 -14 11 -22 20 -18 20
4 0 18 -9 32 -20z m814 -50 c162 -78 172 -87 255 -237 54 -97 53 -99 -24 -47
-20 14 -87 50 -147 81 -105 52 -112 57 -142 111 -18 31 -46 81 -63 110 -17 28
-29 52 -26 52 2 0 68 -31 147 -70z m-1058 2 c16 -18 15 -18 -17 -18 -29 1 -33
3 -25 19 12 22 22 22 42 -1z m775 -38 c30 -21 32 -24 12 -19 -24 7 -72 45 -57
45 5 0 25 -12 45 -26z m1149 -50 c-2 -2 -12 3 -23 11 -16 13 -17 16 -4 24 11
8 17 5 23 -11 4 -11 6 -22 4 -24z m-1916 24 c87 -26 176 -138 277 -349 62
-129 74 -159 67 -159 -10 0 -217 145 -255 178 -109 96 -167 182 -177 260 -9
78 10 94 88 70z m-125 -61 c1 -30 10 -70 22 -95 l20 -42 -29 25 c-39 32 -118
67 -133 58 -6 -4 -4 4 5 17 12 18 102 90 113 90 0 0 1 -24 2 -53z m736 24 c13
-11 37 -52 53 -93 16 -40 34 -80 39 -88 9 -12 7 -12 -14 1 -24 15 -125 199
-110 199 4 0 18 -9 32 -19z m1250 -44 c-27 -27 -95 -34 -127 -13 -31 20 -32
36 -2 36 12 0 40 9 62 19 39 18 40 18 63 -2 22 -21 22 -21 4 -40z m-539 -17
c10 -16 16 -30 14 -30 -2 0 -13 14 -25 30 -13 17 -19 30 -14 30 4 0 16 -13 25
-30z m-591 0 c22 -10 44 -41 146 -204 36 -57 40 -67 20 -54 -12 8 -33 21 -46
29 -13 8 -44 50 -69 94 -25 44 -54 95 -65 113 -21 35 -20 37 14 22z m218 0 c8
-5 11 -10 5 -10 -5 0 -17 5 -25 10 -8 5 -10 10 -5 10 6 0 17 -5 25 -10z m535
-42 c45 -22 118 -67 164 -100 73 -54 82 -63 67 -74 -23 -16 -117 -9 -158 12
-36 18 -48 30 -140 143 -70 84 -66 85 67 19z m-1184 -55 c53 -45 147 -142 210
-215 62 -73 126 -146 141 -163 26 -28 90 -146 83 -153 -3 -4 -41 17 -200 106
-118 66 -130 77 -150 129 -25 67 -117 251 -157 315 -53 83 -53 82 -37 73 8 -5
57 -46 110 -92z m277 9 c38 -26 58 -47 72 -80 11 -25 18 -47 16 -50 -3 -2 -28
9 -57 25 -44 23 -60 40 -96 102 -49 83 -56 82 65 3z m1302 38 c-9 -33 -41 -90
-50 -90 -7 0 -44 70 -45 84 0 5 12 10 27 12 15 1 35 7 45 13 28 16 32 13 23
-19z m-2078 -14 c43 -18 128 -103 211 -209 35 -45 67 -88 71 -95 18 -31 -136
81 -201 146 -42 42 -123 147 -123 159 0 16 0 16 42 -1z m1171 -57 c67 -34 123
-64 125 -68 2 -6 92 -159 115 -196 7 -10 31 -46 55 -79 64 -92 35 -87 -98 14
-84 64 -164 147 -236 244 -49 66 -98 146 -89 146 3 0 60 -28 128 -61z m318
-56 c7 -8 -12 0 -42 17 -72 43 -87 59 -22 25 28 -14 57 -33 64 -42z m225 -56
c119 -98 217 -105 255 -17 8 16 17 30 22 30 13 0 -3 -70 -28 -126 -22 -50 -89
-134 -106 -134 -5 0 -17 17 -28 38 -21 42 -93 118 -119 127 -21 7 -73 73 -113
144 l-31 54 51 -39 c29 -21 72 -56 97 -77z m-1702 -6 c-2 -2 -10 4 -19 13 -9
9 -27 19 -41 22 -25 6 -44 31 -44 57 0 9 23 -7 54 -36 29 -29 52 -54 50 -56z
m733 15 c6 -14 9 -26 7 -26 -6 0 -134 101 -134 106 0 2 26 -9 58 -25 35 -18
62 -39 69 -55z m173 41 c16 -12 40 -60 40 -78 0 -22 -33 10 -50 49 -19 43 -17
51 10 29z m615 -25 c-3 -3 -11 0 -18 7 -9 10 -8 11 6 5 10 -3 15 -9 12 -12z
m-20 -86 c13 -9 28 -16 33 -16 10 0 91 -84 125 -130 14 -20 23 -40 19 -46 -10
-15 -61 -40 -97 -48 -34 -7 -22 -20 -136 151 -36 54 -76 115 -88 136 l-23 37
72 -34 c39 -19 82 -41 95 -50z m-1164 -26 c42 -31 111 -78 152 -105 65 -41 78
-54 96 -96 l20 -49 -27 14 c-15 8 -69 39 -120 69 -86 50 -98 61 -167 156 -78
105 -90 127 -52 90 12 -12 56 -47 98 -79z m584 -25 c17 -35 26 -61 20 -57 -51
31 -96 73 -123 114 -18 26 -32 50 -32 53 0 3 24 -7 53 -21 46 -23 56 -34 82
-89z m94 50 c0 -5 -6 -1 -14 9 -8 11 -15 24 -15 30 0 5 7 1 15 -10 8 -10 14
-23 14 -29z m887 30 c-22 -16 -54 -19 -74 -7 -8 6 3 9 29 10 23 1 45 4 47 7 3
3 8 5 11 5 3 0 -3 -7 -13 -15z m-1884 -59 l21 -31 -36 34 c-21 19 -37 39 -37
44 0 14 28 -11 52 -47z m-46 -14 c32 -32 73 -68 89 -80 45 -33 -1 -14 -55 22
-90 61 -138 116 -101 116 4 0 34 -26 67 -58z m1144 16 c27 -18 52 -39 54 -46
8 -19 -88 34 -102 57 -16 28 -10 27 48 -11z m-324 -27 c26 -36 1 -23 -30 16
-25 31 -26 34 -7 21 13 -9 29 -26 37 -37z m-607 -67 c33 -37 61 -71 61 -75 0
-10 -44 16 -68 38 -7 7 -17 13 -21 13 -7 0 -80 101 -90 124 -9 21 61 -38 118
-100z m808 49 c53 -121 52 -136 -4 -33 -38 71 -45 90 -32 90 5 0 22 -26 36
-57z m-1077 -45 c33 -33 60 -64 60 -68 0 -5 11 -21 24 -37 33 -40 132 -200
115 -187 -97 76 -274 221 -308 253 l-44 40 26 35 c34 44 50 40 127 -36z m-168
40 c-7 -7 -12 -8 -12 -2 0 14 12 26 19 19 2 -3 -1 -11 -7 -17z m1375 -89 c102
-148 101 -146 51 -110 -78 56 -81 59 -122 161 -15 37 -20 60 -13 58 7 -3 44
-51 84 -109z m655 16 c11 -20 11 -20 -11 0 -13 11 -28 29 -33 40 -11 20 -11
20 11 0 13 -11 28 -29 33 -40z m-592 19 c28 -14 50 -29 50 -33 0 -4 25 -35 55
-68 65 -73 146 -128 228 -158 34 -12 62 -26 64 -31 2 -5 -8 -21 -22 -36 -20
-21 -31 -25 -57 -21 -90 14 -201 113 -318 283 -33 50 -59 90 -55 90 3 0 28
-12 55 -26z m-881 -33 c55 -41 155 -153 125 -140 -73 31 -94 47 -124 91 -19
27 -45 60 -58 74 -39 39 -15 28 57 -25z m-291 21 c15 -11 54 -33 87 -51 48
-26 67 -45 94 -90 19 -31 79 -122 132 -203 54 -82 97 -148 95 -148 -18 0 -75
36 -135 85 -57 47 -84 79 -126 150 -29 50 -83 132 -119 183 -36 50 -63 92 -60
92 3 0 18 -8 32 -18z m1015 -113 c20 -37 59 -97 86 -133 53 -69 58 -93 6 -29
-54 69 -151 198 -185 247 l-33 49 45 -34 c29 -22 57 -57 81 -100z m-1261 94
c6 -15 163 -150 288 -248 198 -156 200 -173 15 -92 -140 60 -179 85 -210 135
-17 26 -51 73 -77 104 -45 53 -58 85 -41 101 9 9 21 9 25 0z m-91 -43 c10 -6
19 -17 19 -26 0 -21 45 -104 73 -135 13 -14 39 -37 59 -50 34 -23 224 -290
194 -272 -47 29 -274 210 -333 266 -76 72 -118 141 -107 173 18 49 54 66 95
44z m2102 -4 c21 -16 21 -25 1 -55 -20 -28 -34 -13 -34 37 0 35 6 38 33 18z
m-1115 -24 c15 -10 86 -51 158 -91 120 -67 133 -76 153 -118 12 -25 21 -47 19
-48 -2 -2 -77 39 -168 89 -136 77 -168 99 -182 127 -18 35 -22 59 -12 59 3 0
18 -8 32 -18z m761 -37 c66 -43 112 -85 95 -85 -19 0 -111 60 -154 100 -55 51
-30 45 59 -15z m248 -2 c-20 -20 -31 -24 -53 -19 -28 7 -28 7 21 35 56 30 71
22 32 -16z m-1257 -183 c46 -74 98 -158 116 -186 l33 -52 -31 12 c-17 6 -49
35 -73 66 -64 84 -225 328 -225 343 0 2 22 -7 49 -21 44 -24 58 -40 131 -162z
m1215 126 c29 -1 28 -16 -4 -32 -19 -10 -27 -6 -66 30 -52 49 -49 66 5 30 22
-14 51 -27 65 -28z m-1113 11 c7 -7 37 -30 66 -51 29 -21 51 -40 49 -42 -10
-11 -112 55 -140 90 -25 31 -27 37 -10 27 12 -6 27 -17 35 -24z m118 -28 c0
-12 -55 19 -78 44 -11 12 -2 10 31 -9 26 -14 47 -30 47 -35z m-855 31 c10 -11
16 -20 13 -20 -3 0 -13 9 -23 20 -10 11 -16 20 -13 20 3 0 13 -9 23 -20z
m1469 -60 c24 -16 186 -139 200 -151 15 -13 1 -21 -43 -26 -44 -5 -120 23
-159 60 -22 20 -112 175 -112 191 0 4 21 -8 46 -26 26 -18 56 -40 68 -48z
m476 66 c0 -2 -7 -9 -15 -16 -13 -11 -14 -10 -9 4 5 14 24 23 24 12z m-680
-93 c0 -2 -13 3 -30 12 -16 8 -37 30 -46 48 -16 31 -15 31 30 -13 25 -24 46
-46 46 -47z m-529 -26 c8 -7 35 -39 59 -71 49 -68 135 -170 197 -236 42 -44
42 -44 25 -73 -9 -16 -24 -33 -33 -38 -36 -19 -108 67 -244 291 -48 80 -95
156 -104 169 l-16 25 50 -28 c28 -15 57 -32 66 -39z m329 -24 c19 -11 65 -36
102 -57 78 -43 79 -45 125 -133 19 -37 57 -100 84 -140 27 -39 49 -75 49 -80
0 -17 -70 -43 -113 -43 -23 1 -55 7 -71 13 l-29 13 39 12 c45 13 82 48 89 82
10 51 -60 125 -195 207 -41 26 -109 74 -150 107 -41 33 -76 60 -76 60 -1 1 -5
11 -9 24 -7 25 1 21 155 -65z m822 35 c-18 -19 -22 -20 -22 -6 0 9 8 21 17 27
27 15 29 3 5 -21z m-586 -53 c30 -19 58 -35 62 -35 4 0 28 -21 52 -46 48 -50
159 -126 200 -139 32 -9 58 -33 76 -67 30 -57 10 -104 -56 -138 -51 -26 -79
-25 -117 3 l-31 23 24 27 c58 67 7 148 -165 263 -57 37 -76 57 -91 92 -29 65
-30 65 46 17z m-1526 -34 c-6 -12 -16 -19 -21 -15 -6 4 -4 13 7 25 21 24 29
18 14 -10z m1140 7 c0 -6 -6 -5 -15 2 -8 7 -15 14 -15 16 0 2 7 1 15 -2 8 -4
15 -11 15 -16z m-1030 -61 c24 -34 70 -94 102 -134 32 -39 58 -74 58 -76 0 -3
-17 1 -37 9 -21 7 -45 13 -54 14 -9 0 -36 26 -59 58 -24 31 -56 71 -73 89 -29
31 -30 34 -17 72 7 22 18 37 24 35 6 -3 31 -33 56 -67z m395 23 c55 -24 114
-49 132 -56 17 -8 35 -14 41 -14 5 0 26 -25 46 -56 40 -60 122 -147 170 -181
l30 -21 -35 -17 c-100 -53 -229 11 -353 175 -81 106 -159 223 -145 218 8 -3
59 -25 114 -48z m1550 2 c-5 -27 -41 -71 -48 -61 -2 2 -11 16 -20 32 l-18 27
43 19 c24 10 45 17 46 15 2 -1 1 -16 -3 -32z m-2151 20 c11 -18 -27 -79 -55
-89 -34 -13 -36 -27 -9 -50 32 -28 26 -47 -9 -28 -47 24 -62 52 -48 86 23 53
58 89 88 89 15 0 30 -4 33 -8z m1231 -34 c33 -27 63 -64 81 -98 41 -79 40 -80
-10 -25 -63 70 -139 165 -130 165 4 0 30 -19 59 -42z m113 -2 c47 -30 158
-149 178 -192 9 -18 14 -45 12 -61 -8 -70 -108 9 -147 116 -11 31 -34 71 -50
90 -26 31 -46 71 -35 71 2 0 21 -11 42 -24z m-1278 -15 c0 -5 -5 -22 -11 -38
-9 -23 -12 -25 -19 -12 -12 21 -1 59 16 59 8 0 14 -4 14 -9z m1987 -21 c11
-16 10 -21 -6 -29 -40 -22 -103 -15 -146 16 -19 14 -18 14 10 10 17 -2 48 1
70 8 55 18 59 18 72 -5z m-1907 -71 c22 -29 39 -53 37 -55 -7 -8 -73 25 -91
44 -14 16 -15 24 -6 41 6 12 13 21 15 21 3 0 23 -23 45 -51z m1602 -28 c27
-24 56 -57 64 -73 14 -27 14 -32 -1 -54 -8 -13 -20 -24 -25 -24 -11 0 -97 126
-129 188 l-22 44 32 -19 c17 -10 54 -38 81 -62z m-829 7 c53 -45 131 -137 123
-146 -17 -16 -186 147 -186 179 0 16 11 10 63 -33z m670 -37 c40 -38 47 -69
20 -93 -33 -28 -38 -27 -38 10 -1 37 -14 70 -50 127 l-19 30 24 -20 c14 -10
42 -35 63 -54z m-1573 8 c0 -6 -4 -7 -10 -4 -5 3 -10 11 -10 16 0 6 5 7 10 4
6 -3 10 -11 10 -16z m1044 -40 c33 -35 55 -67 52 -75 -9 -23 -21 -16 -39 21
-9 19 -33 52 -53 75 -59 65 -23 46 40 -21z m-984 21 c0 -5 -7 -7 -15 -4 -8 4
-15 8 -15 10 0 2 7 4 15 4 8 0 15 -4 15 -10z m-114 -19 c-3 -5 -15 -11 -26
-14 -17 -4 -19 -3 -9 9 12 15 44 20 35 5z m1174 -16 c7 -9 11 -17 8 -20 -2 -2
-12 4 -21 15 -9 11 -13 20 -8 20 5 0 14 -7 21 -15z m-952 -60 c23 -24 42 -35
54 -32 32 9 30 -12 -4 -33 -41 -25 -65 -25 -101 -1 -23 15 -97 110 -97 124 0
3 25 -2 57 -9 42 -10 65 -22 91 -49z m-218 31 c0 -3 -4 -8 -10 -11 -5 -3 -10
-1 -10 4 0 6 5 11 10 11 6 0 10 -2 10 -4z m403 -21 c27 -8 61 -25 77 -39 28
-23 28 -25 11 -40 -28 -25 -44 -20 -107 39 -62 58 -59 64 19 40z m832 -15 c10
-11 16 -20 13 -20 -3 0 -13 9 -23 20 -10 11 -16 20 -13 20 3 0 13 -9 23 -20z
m258 -38 c17 -19 17 -20 0 -27 -44 -18 -86 -22 -129 -13 l-47 10 30 13 c16 7
40 27 52 44 l23 31 26 -19 c15 -10 35 -28 45 -39z m-1403 -36 c-29 -13 -50 0
-50 32 0 44 12 47 42 10 26 -31 26 -33 8 -42z m-205 4 c-16 -18 -20 -18 -59
-3 -62 24 -61 28 10 25 63 -4 65 -4 49 -22z"/>
</g>
</svg>
