<svg xmlns="http://www.w3.org/2000/svg" width="20" height="20" viewBox="0 0 20 20"><defs><style>.a{fill:#fff;}.b{fill:#e62b1e;opacity:0;}.c{fill:none;}</style></defs><path class="a" d="M20,49.894a8.653,8.653,0,0,1-2.362.638,4.026,4.026,0,0,0,1.8-2.231,8.272,8.272,0,0,1-2.6.977A4.139,4.139,0,0,0,13.846,48a4.082,4.082,0,0,0-4,4.959,11.666,11.666,0,0,1-8.451-4.223,4,4,0,0,0,1.26,5.4,4.1,4.1,0,0,1-1.852-.5v.044a4.072,4.072,0,0,0,3.285,3.967,4.153,4.153,0,0,1-1.075.133,3.68,3.68,0,0,1-.776-.069,4.132,4.132,0,0,0,3.831,2.812A8.321,8.321,0,0,1,.981,62.244,7.8,7.8,0,0,1,0,62.188,11.674,11.674,0,0,0,6.29,64,11.5,11.5,0,0,0,17.96,52.512c0-.178-.006-.351-.015-.522A8.111,8.111,0,0,0,20,49.894Z" transform="translate(0 -46)"/><path class="b" d="M20,49.894a8.653,8.653,0,0,1-2.362.638,4.026,4.026,0,0,0,1.8-2.231,8.272,8.272,0,0,1-2.6.977A4.139,4.139,0,0,0,13.846,48a4.082,4.082,0,0,0-4,4.959,11.666,11.666,0,0,1-8.451-4.223,4,4,0,0,0,1.26,5.4,4.1,4.1,0,0,1-1.852-.5v.044a4.072,4.072,0,0,0,3.285,3.967,4.153,4.153,0,0,1-1.075.133,3.68,3.68,0,0,1-.776-.069,4.132,4.132,0,0,0,3.831,2.812A8.321,8.321,0,0,1,.981,62.244,7.8,7.8,0,0,1,0,62.188,11.674,11.674,0,0,0,6.29,64,11.5,11.5,0,0,0,17.96,52.512c0-.178-.006-.351-.015-.522A8.111,8.111,0,0,0,20,49.894Z" transform="translate(0 -46)"/><rect class="c" width="20" height="20" transform="translate(0)"/></svg>