<svg xmlns="http://www.w3.org/2000/svg" width="100" height="100" viewBox="0 0 100 100"><defs><style>.a{fill:#fff;opacity:0.8;}</style></defs><path class="a" d="M-2970,100a49.688,49.688,0,0,1-19.462-3.929,49.835,49.835,0,0,1-15.893-10.715,49.835,49.835,0,0,1-10.715-15.893A49.688,49.688,0,0,1-3020,50a49.69,49.69,0,0,1,3.929-19.463,49.835,49.835,0,0,1,10.715-15.893,49.835,49.835,0,0,1,15.893-10.715A49.687,49.687,0,0,1-2970,0a49.69,49.69,0,0,1,19.463,3.929,49.834,49.834,0,0,1,15.893,10.715,49.835,49.835,0,0,1,10.715,15.893A49.69,49.69,0,0,1-2920,50a49.688,49.688,0,0,1-3.929,19.462,49.835,49.835,0,0,1-10.715,15.893,49.835,49.835,0,0,1-15.893,10.715A49.69,49.69,0,0,1-2970,100Zm-12-68V68l32-18-32-18Z" transform="translate(3020)"/></svg>