<svg xmlns="http://www.w3.org/2000/svg" width="6" height="456" viewBox="0 0 6 456"><defs><style>.a{fill:#e62b1e;}</style></defs><path class="a" d="M-320.005,1112.237c-.453.281-.821.768-1.5.474a.514.514,0,0,0-.434.034c-.8,1.04-1.48.187-2.176-.115-.636-.276-1.183-.988-1.978-.211-.086.084-.48-.112-.736-.156-.563-.095-1.209-.255-1.591.24-.544.708-.94.368-1.434-.011a2.256,2.256,0,0,0-2.288-.547.565.565,0,0,1-.626-.061,3.1,3.1,0,0,0-2.037-.453c-.89-.048-1.767.325-2.666.006a.791.791,0,0,0-.824.264c-.974,1.276-2.192.821-3.4.424a1.526,1.526,0,0,0-1.826.428c-.2.245-.259.441-.668.233-.79-.4-1.644-.7-2.436-1.1-1.359-.685-2.327-.548-3.231.619-.291.375-.48.435-.9.213-.782-.416-1.7-.537-2.486-.991a1.622,1.622,0,0,0-1.923.068c-.972,1.105-2.016.55-3.041.292a4.826,4.826,0,0,0-3.71.112.948.948,0,0,1-.971.091,1.493,1.493,0,0,0-2.152.467c-.363.47-.639.349-1,.072-.886-.683-1.688-.955-2.632.035-.542.568-1.312-.025-1.615-.36-1.311-1.452-2.994-.685-4.518-.737-.369-.012-.734.169-1.155-.012a1.847,1.847,0,0,0-1.724.172,2.672,2.672,0,0,1-2.735.215,1.4,1.4,0,0,0-1.685.219,1.106,1.106,0,0,1-1.622.265.23.23,0,0,0-.1-.039c-1.113-.053-2.313.23-3.179-.76-.079-.09-.5.039-.747.108a2.449,2.449,0,0,1-2.151-.043.851.851,0,0,0-1.062.076c-.764.977-1.81.6-2.77.541a1.587,1.587,0,0,0-1.434.439c-.393.569-.65.483-1.11.116a2.354,2.354,0,0,0-1.3-.6.918.918,0,0,0-.964.409.682.682,0,0,0,.175.947c.52.407,1.082.717.169,1.311-.257.167.915,1.208,1.366,1.177a6.389,6.389,0,0,1,3.25.313c1.067.483,2.286.079,3.431.1a15.778,15.778,0,0,1,3.9.081,5.888,5.888,0,0,0,3.292-.186c1.011-.385,1.193-1.041.727-2.03.7-.256,1,.35,1.481.553.978.41,1.532,1.891,3.026,1.014.584.58,1.5.329,2.169.746,1.258.79,3.548.291,4.042-.992.407-1.056.954-.66,1.431-.252a3.039,3.039,0,0,0,3.409.449.829.829,0,0,1,.73.063c.278.109.681.368.822.281,1.021-.63,1.745.12,2.574.381.351.111.68-.152.967-.142,1.064.036,2.111.328,3.133-.338a3.684,3.684,0,0,1,1.654.436c1.247.717,2.527.035,3.772.213.035,0,.094,0,.109-.021,1.037-1.456,2.574-.4,3.855-.625.295-.052.711.04.787-.258.329-1.29.982-.512,1.586-.255.568.241,1.293,1.008,1.745.264.43-.706-.646-.94-1.168-1.254-.789-.474-1.651-.843-2.458-1.293-.3-.166-.782-.336-.58-.771a1.124,1.124,0,0,1,1.2-.637c.407.059,1.089.093,1.043.608-.093,1.048.669,1.346,1.475,1.554,1.02.263,1.433,1.084,2.086,1.683.9.83,1.105.845,1.961-.04a.426.426,0,0,1,.589-.091c1.211.727,1.3-.123,1.464-.892.593.1.8.622,1.233.883.619.374,1.122.969,2.006.426.34-.208.7.158,1.037.281.384.139.7.549,1.118.469,1.724-.329,3.525.036,5.217-.5a.809.809,0,0,0,.438-.318c.362-.669.722-.5,1.182-.077a2.237,2.237,0,0,0,.88.45.8.8,0,0,0,.98-.345c.246-.455-.194-.627-.507-.776a11.071,11.071,0,0,1-1.98-1.011c-.291-.219-.615-.454-.48-.867a.8.8,0,0,1,.768-.522c.565-.058.542.327.651.659.143.434.576.618.988.806s.932.29,1.177.587c.792.958,1.457.822,2.306.051.976-.885,1.039-.852,1.913.211a4.658,4.658,0,0,0,2.7,1.776,1.672,1.672,0,0,0,1.856-.652c.46-.6.088-1.04-.321-1.478-.294-.315-.6-.62-.879-.946a.757.757,0,0,1,.147-1.2c.515-.408.841-.01,1.1.314.787.973,1.485,2.01,2.322,2.944a1.681,1.681,0,0,0,2.93-.262,1.521,1.521,0,0,0,.017-1.317c-.092-.221-.311-.477.025-.616.3-.122.444.177.6.362a19.077,19.077,0,0,0,2.071,2.209c1.448,1.228,2.379,1.239,3.808.032.083-.07.155-.193.246-.206,1.277-.178.953-.9.667-1.612a7.7,7.7,0,0,1-2.484-2.026,4.327,4.327,0,0,1,2.466,2.043c.444.365.9.72,1.329,1.1a2.33,2.33,0,0,0,1.3.581,1.147,1.147,0,0,0,1.158-.5c.274-.413-.014-.725-.308-1.006-.338-.325-.727-.61-1.033-.958-.253-.288-.53-.636-.167-1.023a1.07,1.07,0,0,1,1.3-.332,7.947,7.947,0,0,1,2.355,1.756c.5.469.95.986,1.456,1.45.225.206.511.5.878.223a.718.718,0,0,0,.245-1.018,3.973,3.973,0,0,0-1.075-1.059c-.537-.41-.634-.832-.091-1.3.646-.557,1.053-.11,1.359.33.607.873,1.136,1.79,1.713,2.681.394.609.866,1.218,1.756,1.033a1.61,1.61,0,0,0,1.332-1.607l-.383-.457c-.9-.345-1.812-.677-2.706-1.04-.3-.121-.693-.287-.5-.676.183-.368.573-.253.89-.136a7.6,7.6,0,0,1,2.584,1.612.611.611,0,0,1,.462.38c.665.456,1.314.933,2,1.36.392.244.89.618,1.316.153s.211-1.012-.283-1.368c-.652-.47-1.377-.855-2.033-1.322-.26-.185-.857-.254-.63-.708a1.08,1.08,0,0,1,1.235-.548,3.769,3.769,0,0,1,1.979,1.328c.715.763,1.385,1.562,2.1,2.33.318.343.73.778,1.234.406.533-.393.053-.786-.223-1.151-.373-.493-.952-.889-1.008-1.7a7.724,7.724,0,0,1,3.824,2.165c1.355,1.326,1.328,1.365,3.07.539.327-.155.478-.016.69.133a1.7,1.7,0,0,0,2.265.11,1.84,1.84,0,0,0,.512-2.378c-.243-.516-.717-1.074.289-1.567-.206.927.395,1.276,1.115,1.638,1.177.592,2.55.907,3.4,2a.937.937,0,0,0,1.238.171,1,1,0,0,0,.569-1.057c-.01-.069-.007-.14-.021-.208-.126-.62-.7-1.487.117-1.771.715-.249,1.03.751,1.478,1.229a13.956,13.956,0,0,0,1.532,1.667,1.573,1.573,0,0,0,1.88.2c.776-.452.778-1.066.019-1.547-.435-.276-.911-.5-1.328-.8-.317-.224-.709-.477-.273-.928a.908.908,0,0,1,1.286-.23,5.456,5.456,0,0,1,1.241,1.346c.488.659.938,1.347,1.482,1.965a1.258,1.258,0,0,0,1.946.27.571.571,0,0,1,.772-.079,2.706,2.706,0,0,0,1.086.254,1.085,1.085,0,0,0,1.178-.654c.17-.485-.34-.656-.651-.852-.936-.589-1.913-1.123-2.86-1.7-.272-.165-.634-.357-.46-.737a.846.846,0,0,1,.958-.409c.354.065.983-.017.915.54a.861.861,0,0,0,.775.99,6.307,6.307,0,0,1,3.112,2.139.854.854,0,0,0,1.251.213,2.4,2.4,0,0,1,1.737.012,1.835,1.835,0,0,0,2.111-.59c.336-.435.572-.416,1.076-.12.627.367,1.478.348,2.076.862a.375.375,0,0,0,.56-.187c.281-.862.684-.528,1.2-.175.957.656,1.288.57,1.846-.367.722-1.213,1.522-1.352,2.742-.464a8.1,8.1,0,0,0,2.407,1.36,3.941,3.941,0,0,0,2.242-.359c.53-.141,1.067.964,2.006.894a1.965,1.965,0,0,0,1.311-.735c.3-.307.523-.68.823-.988,1.909-1.956,3.231-2.029,5.414-.342a7.8,7.8,0,0,0,3.227,1.681,1.648,1.648,0,0,0,1.886-.612c.367-.582.629-.432.985-.04a1.376,1.376,0,0,0,1.779.494,1.342,1.342,0,0,0,.508-1.85,6,6,0,0,1-.28-.9c-.081-.4.212-.666.525-.854.356-.214.628.029.891.247a12.6,12.6,0,0,1,1.794,2.136,4.3,4.3,0,0,0,1.139,1.149,1.146,1.146,0,0,0,1.853-.721c.044-.2-.045-.446.249-.507a.5.5,0,0,1,.536.313c.835,1.635,2.568,1.459,4.087,1.677a1.5,1.5,0,0,0,1.423-.725c.311-.438.517-.531,1.022-.156,1.231.913,1.566.9,2.863-.014a.951.951,0,0,1,1.026-.058c1.3.455,1.731.172,1.763-1.111a.61.61,0,0,1,0-.1c.128-.606-.368-1.575.473-1.732.758-.142.842.914,1.264,1.411a5.781,5.781,0,0,1,.543.911c.867,1.52,2.317,1.777,3.287.28.352-.543,1.1-.715,1.712-.984a10.034,10.034,0,0,0,2.214-1.041c.786-.624,1.27-.43,1.925.107a17.352,17.352,0,0,0,2.918,2.15,2.009,2.009,0,0,0,2.124.239c.7-.438.614-1.138.571-1.8-.009-.138-.067-.273-.077-.41-.015-.2-.1-.445.151-.548s.415.115.557.26a19.405,19.405,0,0,0,2.225,2.085c1.764,1.316,2.338,1.205,4.088-.062,1.438-1.041,3-2.062,5.039-1.867a.991.991,0,0,0,.649-.1c.739-.661,1.489-.32,2.217-.047,2.141.8,4.024,2.087,6.222,2.786,1.579.5,3.068.72,4.4-.586.555-.545,1.474-.513,2.242-.674,2.317-.487,4.736-.687,6.7-2.107.4-.291.61.028.835.25.691.685,1.359,1.39,2.073,2.054a4.357,4.357,0,0,0,2,1.139,1.549,1.549,0,0,0,2.046-1.649,3.628,3.628,0,0,0-.072-.411c-.151-.567-.217-1.179.392-1.5.645-.342,1.157.147,1.59.516.916.78,1.779,1.612,2.684,2.4.418.365.912.724,1.518.4s.618-.927.539-1.488a9.956,9.956,0,0,0-.321-1.1c-.084-.319-.078-.641.292-.814a.706.706,0,0,1,.813.209c.319.3.649.584.941.9.439.476.827.991,1.274,1.46,1.445,1.516,2.076,1.525,3.492.046a30.021,30.021,0,0,0,2.5-2.551.731.731,0,0,1,1.227-.1c.5.474.987.952,1.452,1.451a9.614,9.614,0,0,0,1.861,1.813,1.454,1.454,0,0,0,2.091-.267c.9-1.068,1.841-2.11,2.756-3.17.77-.891,1.382-.953,2.4-.242a15.872,15.872,0,0,1,2.5,2.677c.35.385.6.926,1.32.837a.354.354,0,0,0,.321-.37c.051-.584-.482-.824-.852-1.153-.325-.288-.7-.535-1.009-.833a.61.61,0,0,1,.017-1.007.867.867,0,0,1,1.112-.179,3.611,3.611,0,0,1,1,.837c.513.6.994,1.225,1.5,1.835,1.2,1.458,1.529,1.49,2.986.363a32.378,32.378,0,0,1,4.532-2.375c.354-.193.62-.06.661.278.158,1.3,1.788,1.719,2.068,2.965.086.384.512.356.775.008,2.373-3.137,5.626-2.719,9-1.889,2.556.628,5.035,1.544,7.753,1.562a6.627,6.627,0,0,0,5.6-2.649c.979-1.255,1.395-1.241,2.246.067.5.774.944,1.586,1.5,2.322.58.76,1.319.834,1.865.114,1.7-2.247,4.136-2.2,6.646-1.847,3.192.455,6.252,1.432,9.389,2.111a25.164,25.164,0,0,0,8.131.654,9.663,9.663,0,0,0,6.881-3.828c.617-.811,1.066-.7,1.6,0,.714.939,1.386,1.907,2.154,2.807,1.087,1.273,1.961,1.287,3.157.1a2.59,2.59,0,0,1,1.553-.778q1.857-.249,3.7-.557a6.4,6.4,0,0,0,3.059-1.294c.549-.451.716-.2.98.244.972,1.632.993,1.65,2.958,1.2a15.016,15.016,0,0,1,3.384-.349q34.1.009,68.2.012c.391,0,.84-.174,1.179.176v-.834q-33.19.007-66.38.021a44.2,44.2,0,0,0-5.807.148c-.738.1-1.526.747-2.152.318-.552-.379-.764-1.168-1.137-1.77-.329-.532-.632-.873-1.224-.15a5.272,5.272,0,0,1-3.217,1.627c-1.038.2-2.1.319-3.153.439a3.667,3.667,0,0,0-2.646,1.24.937.937,0,0,1-1.6.05c-.444-.469-.84-.979-1.237-1.483s-.737-1.052-1.16-1.537c-1.155-1.324-1.809-1.313-2.886.056a9.11,9.11,0,0,1-6.114,3.439,17.568,17.568,0,0,1-6.115-.25c-3.253-.676-6.472-1.493-9.723-2.177a15.217,15.217,0,0,0-4.966-.414,5.158,5.158,0,0,0-3.685,1.82c-.6.78-.977.488-1.364-.139a27.592,27.592,0,0,0-1.475-2.337c-.876-1.146-1.984-1.19-2.812-.019-2.1,2.971-5.07,3.181-8.416,2.412-2.644-.607-5.2-1.55-7.947-1.765a6.881,6.881,0,0,0-5.325,1.61c-.491.433-.87.767-1.084-.167-.035-.151-.2-.4-.306-.4-.9.012-.924-.675-1.174-1.176-.556-1.11-.752-1.129-1.909-.495-1.716.941-3.668,1.519-5.113,2.878-.356.335-.637-.1-.817-.308-.69-.781-1.306-1.616-1.994-2.4-1.118-1.271-1.853-1.389-3.317-.5-.424.258-.6.034-.867-.146-1.823-1.235-2.624-1.124-4.058.533-.753.87-1.562,1.7-2.281,2.591-.539.667-1.03.608-1.564.06-.806-.827-1.574-1.686-2.4-2.5-1.315-1.3-1.915-1.251-3.157.118-.846.933-1.788,1.793-2.653,2.712a.675.675,0,0,1-1.127.025c-.513-.51-1.033-1.014-1.53-1.536-.323-.339-.584-.729-.921-1.055-.6-.582-1.26-1.277-2.229-.785-1,.506-.877,1.355-.465,2.193.175.356.348.826.005,1.066-.426.3-.756-.172-1.036-.414-.85-.738-1.64-1.534-2.5-2.264a2.067,2.067,0,0,0-2.273-.543c-.913.424-.95,1.255-.871,2.091.046.478.45,1.038-.29,1.383-.67.313-1.173-.067-1.66-.376a14.734,14.734,0,0,1-2.863-2.667c-.574-.625-1.032-.781-1.847-.118-1.374,1.118-3.233,1.3-4.958,1.684-.847.19-1.717.3-2.562.5-.47.109-1.038.147-1.346.508-1.083,1.268-2.384.935-3.712.494a48.991,48.991,0,0,1-4.573-2.07,6.514,6.514,0,0,0-4.7-.764,19.518,19.518,0,0,0-4.8,1.7,4.715,4.715,0,0,0-.891.634c-.964.883-1.44.959-2.529.227a18.951,18.951,0,0,1-2.961-2.7c-.293-.3-.575-.763-1.1-.58s-.542.705-.536,1.15c0,.379.123.755.138,1.135s.105.808-.35,1.024a1.17,1.17,0,0,1-1.179-.169c-.847-.582-1.67-1.193-2.5-1.8-.474-.344-.937-.7-1.418-1.037a.8.8,0,0,0-1.119.019,7.85,7.85,0,0,1-2.808,1.535,4.963,4.963,0,0,0-2.28,1.486c-.52.684-1.04.458-1.431-.086-.519-.723-.926-1.512-1.436-2.24-.356-.508-.681-1.2-1.539-1s-.926.916-.978,1.588c-.155,1.984-.16,1.992-2.029.91a15.543,15.543,0,0,1-2.054-1.3c-1.082-.881-2.537-.967-3.749-1.579a1.362,1.362,0,0,0-1.868,1.153c-.1,1.189-.708.581-1.12.3-.45-.3-.769-.766-1.191-1.112a2.592,2.592,0,0,0-3.1.1c-.463.458-.569.852.027,1.311s1.156,1,1.721,1.511c.151.137.407.308.2.514-.237.241-.529.063-.69-.114-.508-.558-.971-1.151-1.463-1.723a15.737,15.737,0,0,0-1.3-1.439,1.381,1.381,0,0,0-1.752-.259,1.473,1.473,0,0,0-.84,1.68c.09.336.225.662.308,1,.075.3.162.664-.2.846-.374.191-.638-.083-.849-.333q-.869-1.028-1.717-2.071a5.426,5.426,0,0,0-1.314-1.287,1.616,1.616,0,0,0-1.694-.209c-.446.229-.877.512-.9.995-.024.427.429.624.788.819.649.353,1.327.666,1.954,1.048.344.209.95.422.625.93-.291.454-.857.365-1.342.191a10.425,10.425,0,0,1-3.022-1.828,4.119,4.119,0,0,0-1.548-.843,3.646,3.646,0,0,0-3.313.615,8.945,8.945,0,0,0-1.719,1.657c-.8,1.07-1.285,1.112-2.184.124-.7-.769-1.262-1.641-1.9-2.459a3.27,3.27,0,0,0-1.087-1.046,1.148,1.148,0,0,0-1.57.388c-.373.515,0,.846.428,1.111.595.367,1.232.679,1.806,1.069.33.224.958.425.637.936-.308.49-.862.275-1.332.115a8.289,8.289,0,0,1-2.087-1.244,2.333,2.333,0,0,0-3.61.579c-.312.464-.6.557-1.072.2a17.1,17.1,0,0,0-1.712-1.2c-.427-.246-.923-.375-1.183.278-.319.8-.8.643-1.232.091-.4-.506-.721-1.058-1.082-1.587-.141-.207-.294-.448-.621-.307-.3.129-.292.388-.209.634a8.677,8.677,0,0,0,.345.877.957.957,0,0,1-.382,1.367,1.191,1.191,0,0,1-1.453-.2,12.235,12.235,0,0,1-1.957-2.017c-.419-.48-.823-1.413-1.65-.3-.165.222-.413.007-.608-.079-.746-.331-1.489-.667-2.234-1a2.176,2.176,0,0,0-2.963.68c-.283.4-.4.519-.91.253-.634-.33-1.39-.424-2.064-.737a1.4,1.4,0,0,0-1.54.414,1.24,1.24,0,0,0-.341,1.691c.546.352,1.094.7,1.638,1.057.19.124.56.185.317.506a.519.519,0,0,1-.692.112,3.987,3.987,0,0,1-1.5-1.479c-.457-.505-.9-1.017-1.374-1.513a1.093,1.093,0,0,0-1.206-.383,1.165,1.165,0,0,0-.793,1.05c-.025.241-.029.484-.03.727,0,.175,0,.354-.2.444-.256.115-.437-.035-.586-.189-.45-.467-.88-.951-1.331-1.417a5.024,5.024,0,0,0-1.99-1.343,2.053,2.053,0,0,0-2.173.484,1.291,1.291,0,0,0-.225,1.8,3.186,3.186,0,0,1,.277.678,1.144,1.144,0,0,1-.6,1.35c-.548.327-.959-.069-1.273-.386-.779-.789-1.474-1.649-2.253-2.439-.61-.619-1.3-1.066-1.943,0-.149.245-.339.237-.541.061a1.564,1.564,0,0,1-.212-.243c-.475-.628-.94-1.446-1.906-1.219a3.328,3.328,0,0,0-2.027,1.834c-.541-.473-1.07-1.007-1.677-1.452-1.294-.95-2.482-.858-3.4.364-.425.563-.678.42-1.13.151-.892-.531-1.794-1.093-2.927-.522-.158.08-.271,0-.41-.058-1.722-.686-2.063-.551-2.937,1.178-.578-.4-1.119-.83-1.725-1.164a2,2,0,0,0-2.656.293c-.82.923-.042,1.591.462,2.3.358.219.969.579.708.848-.432.446-.762-.225-1.136-.422-.025-.013-.03-.059-.044-.091a28.3,28.3,0,0,1-2.49-2.378c-.711-.6-1.423-1.076-2.4-.514-.339.194-.573-.011-.837-.118a1.647,1.647,0,0,0-1.625.016c-.635.474-1.05,1.041-2.1.529-.485-.237-.726.573-.675,1.051a8.474,8.474,0,0,0,.394,1.291c.146.522-.185.87-.608,1.122s-.706-.075-.969-.313a22.775,22.775,0,0,1-2.065-2.594,4.371,4.371,0,0,0-.909-.914,1.328,1.328,0,0,0-2.179.984c-.053,1.2-.662.921-1.411.737-1.393-.343-1.427-.405-.682-1.567Zm61.886,1.626.164.272a9.846,9.846,0,0,1,2.657,1.594,3.234,3.234,0,0,1-2.639-1.61c-.2,0-.222-.105-.164-.251l-.063.017Zm-23.562-.773a1.988,1.988,0,0,1-1.143-.575c.8-.39,1.026,0,1.189.5l.235.152c-.021.027-.037.07-.065.078C-281.605,1113.279-281.669,1113.213-281.681,1113.09Zm11.175.629a.892.892,0,0,1-.718-.2c-.3-.172-.732-.214-.8-.609-.012-.066.185-.2.31-.243.44-.141.69.162.936.4.167.162.393.329.309.612l.148.057-.089.11Zm-114.506-.233a4.737,4.737,0,0,1,2.333,1.7c-.611-.225-1.024-.375-1.436-.528-.583-.217-1.033-.518-.886-1.188l-.126.024c.012-.013.027-.04.035-.038A.4.4,0,0,1-385.011,1113.485Zm77.4,1.6a12.234,12.234,0,0,0,2.249.705c.2.073.5.091.477.348-.019.234-.3.288-.512.357a1.9,1.9,0,0,1-2.2-1.411l-.251.04Zm-56.952-.9a4.109,4.109,0,0,1,2.392.754c.368.173.558.493.238.863-.342.4-.688.187-.965-.062-.567-.507-1.1-1.045-1.644-1.573l-.008-.076c.008.008.024.018.022.023A.7.7,0,0,1-364.561,1114.185Zm-.72.666a6.412,6.412,0,0,1-2.454-.978c-.4-.277-.465-.594-.127-.966s.64-.252.975-.015a5.519,5.519,0,0,1,1.749,1.828c.1.028.22.065.128.18C-365.033,1114.929-365.187,1114.87-365.281,1114.851Zm60.1.189a9.495,9.495,0,0,1-3.206-.954c-.542-.283-.961-.61-.468-1.223a1.025,1.025,0,0,1,1.56-.189A7.573,7.573,0,0,1-305.177,1115.04Zm-23.908-.844c-1-.293-1.942-.285-2.523-1.051-.125-.164-.353-.318-.163-.535.165-.189.4-.144.623-.055A5.278,5.278,0,0,1-329.085,1114.2Zm107.291-1.392c.948-.784,1.88-.271,2.757,1.494Zm-139.536,1.6c.824-.187,1.077.507,1.563.8.284.171.392.424.089.677a.53.53,0,0,1-.784-.046A3.4,3.4,0,0,1-361.329,1114.4Zm-25.9.012c.7.189,1.262.314,1.534.835.114.219.5.434.144.694a.671.671,0,0,1-.9-.13A3.263,3.263,0,0,1-387.232,1114.415Zm94.777-.032a2.861,2.861,0,0,1,1.468.4c.389.131.662.347.3.764a.587.587,0,0,1-.942.093A2.547,2.547,0,0,1-292.455,1114.383Zm86.59-1.292c.72.609,2.011.507,2.38,1.626C-204.881,1114.383-205.579,1113.946-205.865,1113.091Zm-113.416,1.432a3.441,3.441,0,0,1,1.585.587c.313.242.174.5-.017.73-.25.3-.454.093-.641-.084A2.431,2.431,0,0,1-319.281,1114.524Zm-23.388-.945c.986.255,2.051.434,2.658,1.649A10.13,10.13,0,0,1-342.668,1113.578Zm-47.142-.7c-.128.179.229.653-.312.569-.358-.056-.95.05-1.034-.415-.073-.409.322-.691.762-.744C-389.981,1112.236-389.787,1112.482-389.81,1112.875Zm34.993-.695c1.419-.289,1.912,0,1.881,1.1Zm-8.355,1.444c-.482-.165-1.158-.044-1.2-.637a.557.557,0,0,1,.646-.47C-363.092,1112.649-363.322,1113.229-363.172,1113.624Zm40.184,1.388a9.04,9.04,0,0,1-.855-.857c-.087-.111.065-.406.258-.368.417.083.934.142,1.109.543C-322.373,1114.567-322.675,1114.812-322.988,1115.011Zm-57.181-1.076c-.512-.294-1.192-.239-1.111-.937.017-.145.144-.372.373-.307C-380.339,1112.853-380.085,1113.226-380.169,1113.935Zm3.551-1.861c.276.1.7.088.548.559-.056.172.213.549-.3.483a.874.874,0,0,1-.8-.632C-377.257,1112.151-376.882,1112.168-376.618,1112.074Zm2.17,2.695c.391.156.784.368.873.825.043.222-.1.46-.381.349-.406-.16-.819-.365-.837-.869C-374.8,1114.866-374.741,1114.745-374.448,1114.769Zm2.637-1.1c-.624.106-1.108.012-1.384-.49-.083-.15.007-.43.173-.427C-372.394,1112.767-372.092,1113.184-371.81,1113.671Zm167,2.713c.384-.372.1-.888.731-.961.125-.015.4.188.4.281C-203.7,1116.185-204.058,1116.357-204.808,1116.384Zm-145.674-1.278c-.528-.262-.96-.417-1.2-.9C-351.085,1114.292-350.627,1114.4-350.482,1115.106Zm141.063-.4c.172.058.308.117.262.267a.292.292,0,0,1-.22.13c-.192.012-.212-.132-.2-.258C-209.567,1114.754-209.524,1114.653-209.419,1114.7Zm-58.31-.241c.081.126.176.209.175.29s-.106.146-.166.218c-.062-.078-.163-.152-.173-.235S-267.806,1114.579-267.729,1114.46Zm-42.94-.828-.066.07a.569.569,0,0,1-.068-.124c0-.016.037-.043.058-.065Z" transform="translate(-1111.246 57.341) rotate(-90)"/></svg>