<svg xmlns="http://www.w3.org/2000/svg" width="300" height="6" viewBox="0 0 300 6"><defs><style>.a{fill:#e62b1e;}</style></defs><path class="a" d="M-346.913,1112.237c-.3.281-.54.768-.99.474-.078-.051-.249-.039-.285.034-.527,1.04-.974.187-1.432-.115-.418-.276-.778-.988-1.3-.211-.056.084-.316-.112-.484-.156-.37-.095-.8-.255-1.046.24-.358.708-.618.368-.943-.011-.434-.505-.91-.891-1.505-.547a.276.276,0,0,1-.412-.061c-.388-.5-.864-.414-1.34-.453-.585-.048-1.163.325-1.754.006-.181-.1-.426.034-.542.264-.64,1.276-1.442.821-2.234.424a.807.807,0,0,0-1.2.428c-.129.245-.171.441-.439.233-.52-.4-1.081-.7-1.6-1.1-.894-.685-1.531-.548-2.126.619-.192.375-.316.435-.589.213-.514-.416-1.117-.537-1.635-.991a.793.793,0,0,0-1.265.068c-.639,1.105-1.326.55-2,.292a2.2,2.2,0,0,0-2.441.112c-.175.146-.414.3-.639.091-.594-.551-1.065-.223-1.416.467-.239.47-.42.349-.656.072-.583-.683-1.111-.955-1.731.035-.356.568-.863-.025-1.062-.36-.863-1.452-1.97-.685-2.972-.737-.243-.012-.483.169-.76-.012a.874.874,0,0,0-1.134.172c-.56.486-1.135.73-1.8.215a.7.7,0,0,0-1.109.219c-.325.552-.646.678-1.067.265a.126.126,0,0,0-.069-.039c-.732-.053-1.522.23-2.092-.76-.052-.09-.328.039-.491.108-.477.2-.935.417-1.415-.043a.425.425,0,0,0-.7.076c-.5.977-1.191.6-1.822.541a.852.852,0,0,0-.944.439c-.259.569-.427.483-.73.116a1.4,1.4,0,0,0-.855-.6.546.546,0,0,0-.635.409.924.924,0,0,0,.115.947c.342.407.712.717.111,1.311-.169.167.6,1.208.9,1.177a2.873,2.873,0,0,1,2.138.313c.7.483,1.5.079,2.258.1a6.869,6.869,0,0,1,2.565.081,2.629,2.629,0,0,0,2.165-.186c.665-.385.785-1.041.478-2.03.458-.256.656.35.975.553.644.41,1.008,1.891,1.991,1.014.384.58.99.329,1.427.746a1.662,1.662,0,0,0,2.66-.992c.268-1.056.628-.66.941-.252a1.5,1.5,0,0,0,2.243.449c.2-.129.324-.029.48.063.183.109.448.368.541.281.672-.63,1.148.12,1.694.381.231.111.448-.152.636-.142.7.036,1.389.328,2.061-.338.084-.084.771.159,1.088.436.82.717,1.663.035,2.482.213.023,0,.062,0,.072-.021.682-1.456,1.693-.4,2.536-.625.194-.052.468.04.518-.258.217-1.29.646-.512,1.043-.255.374.241.85,1.008,1.148.264.283-.706-.425-.94-.768-1.254-.519-.474-1.086-.843-1.617-1.293-.2-.166-.515-.336-.382-.771s.443-.713.787-.637c.268.059.716.093.686.608a1.336,1.336,0,0,0,.971,1.554c.671.263.943,1.084,1.372,1.683.595.83.727.845,1.29-.04.132-.207.256-.211.388-.091.8.727.857-.123.963-.892.39.1.527.622.811.883.408.374.738.969,1.32.426.223-.208.459.158.682.281.253.139.461.549.735.469,1.134-.329,2.319.036,3.432-.5a.614.614,0,0,0,.288-.318c.238-.669.475-.5.778-.077a1.394,1.394,0,0,0,.579.45c.255.109.516.016.645-.345.162-.455-.128-.627-.333-.776a6.87,6.87,0,0,1-1.3-1.011.92.92,0,0,1-.316-.867.591.591,0,0,1,.5-.522c.372-.058.356.327.428.659a1.275,1.275,0,0,0,.65.806c.266.184.613.29.774.587.521.958.958.822,1.517.051.642-.885.684-.852,1.258.211a3.332,3.332,0,0,0,1.778,1.776c.547.177.918-.056,1.221-.652a1.372,1.372,0,0,0-.211-1.478c-.193-.315-.4-.62-.578-.946a1.008,1.008,0,0,1,.1-1.2c.339-.408.553-.01.726.314.518.973.977,2.01,1.527,2.944.641,1.087,1.531.934,1.927-.262a2.246,2.246,0,0,0,.011-1.317c-.061-.221-.2-.477.017-.616.2-.122.292.177.4.362a18.252,18.252,0,0,0,1.362,2.209c.953,1.228,1.565,1.239,2.505.032.055-.07.1-.193.162-.206.841-.178.627-.9.439-1.612a6.255,6.255,0,0,1-1.634-2.026,3.542,3.542,0,0,1,1.622,2.043c.292.365.591.72.874,1.1a1.371,1.371,0,0,0,.853.581c.329.059.594-.119.762-.5a.969.969,0,0,0-.2-1.006c-.223-.325-.479-.61-.679-.958a.929.929,0,0,1-.11-1.023c.227-.368.49-.56.855-.332a6.117,6.117,0,0,1,1.549,1.756c.33.469.625.986.958,1.45.148.206.336.5.578.223a.951.951,0,0,0,.161-1.018,3.621,3.621,0,0,0-.707-1.059.927.927,0,0,1-.06-1.3c.425-.557.693-.11.894.33.4.873.748,1.79,1.127,2.681.259.609.57,1.218,1.155,1.033s.839-.8.876-1.607l-.252-.457c-.594-.345-1.192-.677-1.78-1.04-.2-.121-.456-.287-.328-.676.121-.368.377-.253.586-.136a5.263,5.263,0,0,1,1.7,1.612.5.5,0,0,1,.3.38c.437.456.864.933,1.316,1.36.258.244.586.618.866.153a1.133,1.133,0,0,0-.186-1.368c-.429-.47-.906-.855-1.337-1.322-.171-.185-.564-.254-.415-.708.139-.424.446-.661.812-.548a2.727,2.727,0,0,1,1.3,1.328c.471.763.911,1.562,1.379,2.33.209.343.48.778.812.406.351-.393.035-.786-.147-1.151a3.613,3.613,0,0,1-.663-1.7,5.1,5.1,0,0,1,2.516,2.165c.891,1.326.874,1.365,2.02.539.215-.155.315-.016.454.133.477.509.991.756,1.49.11a2.506,2.506,0,0,0,.337-2.378c-.16-.516-.471-1.074.19-1.567a1.5,1.5,0,0,0,.734,1.638c.774.592,1.677.907,2.234,2a.486.486,0,0,0,.814.171,1.177,1.177,0,0,0,.375-1.057c-.007-.069,0-.14-.014-.208-.083-.62-.459-1.487.077-1.771.47-.249.678.751.972,1.229a13.506,13.506,0,0,0,1.008,1.667c.378.445.8.59,1.237.2a.979.979,0,0,0,.012-1.547c-.286-.276-.6-.5-.874-.8-.209-.224-.466-.477-.18-.928.247-.388.52-.571.846-.23a5.259,5.259,0,0,1,.816,1.346c.321.659.617,1.347.975,1.965.344.594.786.914,1.28.27.176-.23.291-.25.508-.079a1.307,1.307,0,0,0,.714.254.724.724,0,0,0,.775-.654c.112-.485-.224-.656-.428-.852-.616-.589-1.259-1.123-1.882-1.7-.179-.165-.417-.357-.3-.737a.509.509,0,0,1,.63-.409c.233.065.647-.017.6.54-.048.606.205.877.51.99a4.627,4.627,0,0,1,2.048,2.139c.223.361.431.568.823.213.319-.289.772-.133,1.143.012a.991.991,0,0,0,1.389-.59c.221-.435.376-.416.708-.12.412.367.972.348,1.366.862.119.156.323.025.369-.187.185-.862.45-.528.788-.175.629.656.847.57,1.215-.367.475-1.213,1-1.352,1.8-.464a5.3,5.3,0,0,0,1.584,1.36c.533.242.98-.159,1.475-.359.349-.141.7.964,1.32.894.4-.045.632-.379.862-.735.2-.307.344-.68.542-.988,1.256-1.956,2.126-2.029,3.562-.342a4.906,4.906,0,0,0,2.123,1.681.92.92,0,0,0,1.241-.612c.242-.582.414-.432.648-.04.311.52.7.893,1.171.494a1.761,1.761,0,0,0,.334-1.85,8.439,8.439,0,0,1-.184-.9.938.938,0,0,1,.346-.854c.234-.214.413.029.586.247a12.813,12.813,0,0,1,1.181,2.136,3.974,3.974,0,0,0,.75,1.149c.551.5,1.086.179,1.219-.721.029-.2-.03-.446.164-.507.171-.054.289.126.352.313.549,1.635,1.69,1.459,2.689,1.677.405.088.726-.275.936-.725s.34-.531.673-.156c.81.913,1.03.9,1.883-.014.253-.271.429-.19.675-.058.854.455,1.139.172,1.16-1.111a.931.931,0,0,1,0-.1c.084-.606-.242-1.575.311-1.732.5-.142.554.914.832,1.411a6.9,6.9,0,0,1,.357.911c.571,1.52,1.524,1.777,2.163.28.232-.543.721-.715,1.126-.984a5.991,5.991,0,0,0,1.457-1.041c.517-.624.836-.43,1.266.107a13.262,13.262,0,0,0,1.919,2.15c.433.343.9.711,1.4.239a2.245,2.245,0,0,0,.376-1.8c-.006-.138-.044-.273-.05-.41-.01-.2-.068-.445.1-.548s.273.115.366.26a17.2,17.2,0,0,0,1.464,2.085c1.16,1.316,1.538,1.205,2.689-.062.946-1.041,1.971-2.062,3.315-1.867a.466.466,0,0,0,.427-.1c.486-.661.98-.32,1.459-.047,1.409.8,2.647,2.087,4.094,2.786,1.039.5,2.018.72,2.894-.586.365-.545.97-.513,1.475-.674,1.524-.487,3.116-.687,4.409-2.107.265-.291.4.028.549.25.455.685.894,1.39,1.364,2.054a2.871,2.871,0,0,0,1.319,1.139c.8.273,1.453-.538,1.346-1.649-.013-.138-.024-.277-.047-.411-.1-.567-.142-1.179.258-1.5.424-.342.761.147,1.046.516.6.78,1.171,1.612,1.766,2.4.275.365.6.724,1,.4a1.657,1.657,0,0,0,.355-1.488c-.035-.373-.147-.731-.211-1.1a.777.777,0,0,1,.192-.814c.209-.148.386,0,.535.209.21.3.427.584.619.9.289.476.544.991.838,1.46.951,1.516,1.366,1.525,2.3.046a28.013,28.013,0,0,0,1.642-2.551c.233-.472.517-.519.807-.1.326.474.649.952.955,1.451a8.713,8.713,0,0,0,1.224,1.813c.5.467.969.465,1.375-.267.593-1.068,1.211-2.11,1.813-3.17.506-.891.909-.953,1.58-.242a15.221,15.221,0,0,1,1.642,2.677c.23.385.4.926.868.837.157-.029.2-.2.211-.37.034-.584-.317-.824-.56-1.153-.214-.288-.458-.535-.664-.833a.813.813,0,0,1,.011-1.007c.213-.285.43-.433.732-.179a2.987,2.987,0,0,1,.657.837c.338.6.654,1.225.984,1.835.789,1.458,1.006,1.49,1.964.363a20.354,20.354,0,0,1,2.982-2.375c.233-.193.408-.06.435.278.1,1.3,1.176,1.719,1.36,2.965.057.384.337.356.51.008,1.561-3.137,3.7-2.719,5.923-1.889,1.682.628,3.312,1.544,5.1,1.562,1.587.016,2.784-.887,3.687-2.649.644-1.255.918-1.241,1.477.067.331.774.621,1.586.99,2.322.382.76.868.834,1.227.114,1.121-2.247,2.721-2.2,4.372-1.847a63.54,63.54,0,0,1,6.177,2.111,11.122,11.122,0,0,0,5.349.654c1.913-.323,3.431-1.639,4.527-3.828.406-.811.7-.7,1.052,0,.47.939.912,1.907,1.417,2.807.715,1.273,1.29,1.287,2.077.1a1.607,1.607,0,0,1,1.022-.778q1.222-.249,2.437-.557a3.671,3.671,0,0,0,2.012-1.294c.361-.451.471-.2.645.244.64,1.632.653,1.65,1.946,1.2a6.661,6.661,0,0,1,2.226-.349q22.435.009,44.87.012c.257,0,.553-.174.775.176v-.834q-21.836.007-43.671.021a19.18,19.18,0,0,0-3.82.148c-.486.1-1,.747-1.416.318a6.32,6.32,0,0,1-.748-1.77c-.216-.532-.416-.873-.805-.15a3.289,3.289,0,0,1-2.117,1.627,18.043,18.043,0,0,1-2.075.439,2.219,2.219,0,0,0-1.741,1.24c-.333.638-.7.61-1.052.05-.292-.469-.552-.979-.814-1.483s-.485-1.052-.763-1.537c-.76-1.324-1.19-1.313-1.9.056a6,6,0,0,1-4.022,3.439,7.7,7.7,0,0,1-4.023-.25c-2.14-.676-4.258-1.493-6.4-2.177a6.733,6.733,0,0,0-3.267-.414,3.2,3.2,0,0,0-2.424,1.82c-.4.78-.643.488-.9-.139-.318-.784-.6-1.6-.97-2.337-.576-1.146-1.306-1.19-1.85-.019-1.381,2.971-3.336,3.181-5.537,2.412-1.739-.607-3.42-1.55-5.228-1.765a3.6,3.6,0,0,0-3.5,1.61c-.323.433-.572.767-.713-.167-.023-.151-.134-.4-.2-.4-.592.012-.608-.675-.773-1.176-.366-1.11-.495-1.129-1.256-.495-1.129.941-2.413,1.519-3.364,2.878-.234.335-.419-.1-.538-.308-.454-.781-.859-1.616-1.312-2.4-.736-1.271-1.219-1.389-2.182-.5-.279.258-.4.034-.571-.146-1.2-1.235-1.726-1.124-2.67.533-.5.87-1.028,1.7-1.5,2.591-.354.667-.678.608-1.029.06-.531-.827-1.036-1.686-1.576-2.5-.865-1.3-1.26-1.251-2.077.118-.557.933-1.176,1.793-1.745,2.712-.265.428-.488.408-.742.025-.337-.51-.679-1.014-1.007-1.536-.213-.339-.384-.729-.606-1.055-.4-.582-.829-1.277-1.467-.785-.655.506-.577,1.355-.306,2.193.115.356.229.826,0,1.066-.28.3-.5-.172-.681-.414-.559-.738-1.079-1.534-1.643-2.264-.417-.539-.93-.942-1.5-.543-.6.424-.625,1.255-.573,2.091.03.478.3,1.038-.191,1.383-.441.313-.772-.067-1.092-.376a13,13,0,0,1-1.884-2.667c-.377-.625-.679-.781-1.215-.118-.9,1.118-2.127,1.3-3.262,1.684-.557.19-1.13.3-1.686.5-.309.109-.683.147-.886.508-.713,1.268-1.569.935-2.442.494a28.682,28.682,0,0,1-3.009-2.07c-.968-.66-1.834-1.246-3.089-.764a10.386,10.386,0,0,0-3.159,1.7,3.53,3.53,0,0,0-.586.634c-.634.883-.947.959-1.664.227a16.529,16.529,0,0,1-1.948-2.7c-.193-.3-.379-.763-.721-.58s-.357.705-.353,1.15c0,.379.081.755.091,1.135s.069.808-.231,1.024c-.27.194-.551.065-.775-.169-.557-.582-1.1-1.193-1.645-1.8-.312-.344-.616-.7-.933-1.037-.242-.255-.5-.338-.736.019a5.058,5.058,0,0,1-1.848,1.535,3.528,3.528,0,0,0-1.5,1.486c-.342.684-.684.458-.941-.086-.341-.723-.609-1.512-.945-2.24-.234-.508-.448-1.2-1.012-1s-.609.916-.644,1.588c-.1,1.984-.105,1.992-1.335.91a10.835,10.835,0,0,1-1.351-1.3c-.712-.881-1.669-.967-2.466-1.579-.516-.4-1.18.246-1.229,1.153-.064,1.189-.466.581-.737.3-.3-.3-.506-.766-.784-1.112a1.27,1.27,0,0,0-2.039.1.953.953,0,0,0,.018,1.311c.4.468.761,1,1.132,1.511.1.137.268.308.134.514-.156.241-.348.063-.454-.114-.334-.558-.639-1.151-.962-1.723a15.385,15.385,0,0,0-.853-1.439c-.32-.441-.733-.661-1.153-.259a1.766,1.766,0,0,0-.552,1.68c.059.336.148.662.2,1,.049.3.106.664-.129.846s-.42-.083-.559-.333q-.572-1.028-1.13-2.071a4.933,4.933,0,0,0-.864-1.287c-.341-.32-.7-.53-1.115-.209a1.286,1.286,0,0,0-.595.995c-.016.427.282.624.518.819.427.353.873.666,1.285,1.048.227.209.625.422.411.93-.191.454-.564.365-.883.191a7.1,7.1,0,0,1-1.988-1.828,2.648,2.648,0,0,0-1.019-.843,1.787,1.787,0,0,0-2.18.615,8.055,8.055,0,0,0-1.131,1.657c-.528,1.07-.845,1.112-1.437.124-.46-.769-.83-1.641-1.249-2.459a2.936,2.936,0,0,0-.715-1.046c-.426-.318-.779-.145-1.033.388a.869.869,0,0,0,.281,1.111c.391.367.81.679,1.188,1.069.217.224.63.425.419.936-.2.49-.567.275-.877.115a5.592,5.592,0,0,1-1.373-1.244c-.9-.966-1.78-.767-2.375.579-.205.464-.4.557-.705.2a12.685,12.685,0,0,0-1.127-1.2c-.281-.246-.607-.375-.778.278-.21.8-.527.643-.81.091-.26-.506-.474-1.058-.712-1.587-.093-.207-.193-.448-.409-.307-.195.129-.192.388-.138.634.066.3.14.592.227.877a1.245,1.245,0,0,1-.252,1.367c-.367.357-.681.107-.956-.2a11.47,11.47,0,0,1-1.287-2.017c-.276-.48-.541-1.413-1.085-.3-.109.222-.272.007-.4-.079-.491-.331-.98-.667-1.47-1-.807-.547-1.47-.352-1.95.68-.186.4-.263.519-.6.253-.417-.33-.915-.424-1.358-.737-.349-.247-.733,0-1.013.414a1.682,1.682,0,0,0-.225,1.691c.359.352.72.7,1.078,1.057.125.124.369.185.208.506a.273.273,0,0,1-.455.112,3.634,3.634,0,0,1-.985-1.479c-.3-.505-.6-1.017-.9-1.513-.207-.332-.469-.559-.793-.383a1.211,1.211,0,0,0-.521,1.05c-.017.241-.019.484-.02.727,0,.175,0,.354-.129.444-.168.115-.288-.035-.385-.189-.3-.467-.579-.951-.876-1.417a3.646,3.646,0,0,0-1.309-1.343c-.558-.288-1.013-.076-1.43.484a1.781,1.781,0,0,0-.148,1.8,4.251,4.251,0,0,1,.182.678,1.413,1.413,0,0,1-.393,1.35c-.361.327-.631-.069-.837-.386-.513-.789-.97-1.649-1.482-2.439-.4-.619-.852-1.066-1.278,0-.1.245-.223.237-.356.061a1.56,1.56,0,0,1-.139-.243c-.312-.628-.618-1.446-1.254-1.219s-1.022.987-1.334,1.834c-.356-.473-.7-1.007-1.1-1.452-.851-.95-1.633-.858-2.239.364-.279.563-.446.42-.743.151-.587-.531-1.18-1.093-1.925-.522-.1.08-.178,0-.27-.058-1.133-.686-1.357-.551-1.932,1.178a15.707,15.707,0,0,0-1.135-1.164,1.03,1.03,0,0,0-1.747.293c-.539.923-.028,1.591.3,2.3.235.219.638.579.466.848-.284.446-.5-.225-.747-.422-.017-.013-.02-.059-.029-.091a25.373,25.373,0,0,1-1.638-2.378c-.468-.6-.936-1.076-1.582-.514-.223.194-.377-.011-.551-.118-.361-.221-.761-.333-1.069.016-.418.474-.69,1.041-1.379.529-.319-.237-.478.573-.444,1.051a11.938,11.938,0,0,0,.259,1.291,1.143,1.143,0,0,1-.4,1.122c-.278.251-.465-.075-.637-.313a23.818,23.818,0,0,1-1.359-2.594,4.04,4.04,0,0,0-.6-.914c-.616-.625-1.4-.184-1.433.984-.035,1.2-.435.921-.928.737-.917-.343-.939-.405-.448-1.567Zm40.714,1.626.108.272a6.667,6.667,0,0,1,1.748,1.594,2.232,2.232,0,0,1-1.736-1.61c-.135,0-.146-.105-.108-.251l-.041.017Zm-15.5-.773c-.3-.021-.5-.278-.752-.575.526-.39.675,0,.782.5l.155.152c-.014.027-.024.07-.042.078C-321.65,1113.279-321.692,1113.213-321.7,1113.09Zm7.352.629c-.19.082-.333-.079-.472-.2-.195-.172-.481-.214-.528-.609-.008-.066.122-.2.2-.243.29-.141.454.162.616.4a.746.746,0,0,1,.2.612l.1.057-.058.11Zm-75.333-.233a3.567,3.567,0,0,1,1.535,1.7c-.4-.225-.674-.375-.944-.528a1.036,1.036,0,0,1-.583-1.188l-.083.024c.008-.013.018-.04.023-.038A.23.23,0,0,1-389.68,1113.485Zm50.922,1.6c.45.409.994.438,1.48.705.133.073.328.091.314.348-.013.234-.2.288-.337.357-.563.279-1.388-.525-1.45-1.411l-.165.04Zm-37.469-.9c.619-.134,1.078.4,1.573.754a.62.62,0,0,1,.157.863c-.225.4-.453.187-.635-.062-.373-.507-.724-1.045-1.081-1.573l-.005-.076c.005.008.016.018.015.023C-376.209,1114.138-376.218,1114.161-376.226,1114.185Zm-.474.666a3.577,3.577,0,0,1-1.615-.978.732.732,0,0,1-.084-.966c.216-.361.421-.252.641-.015a5.2,5.2,0,0,1,1.151,1.828c.067.028.145.065.084.18C-376.537,1114.929-376.638,1114.87-376.7,1114.851Zm39.542.189a4.829,4.829,0,0,1-2.109-.954.85.85,0,0,1-.308-1.223c.294-.555.653-.6,1.026-.189A7.393,7.393,0,0,1-337.158,1115.04Zm-15.729-.844c-.657-.293-1.277-.285-1.66-1.051-.082-.164-.232-.318-.107-.535.108-.189.266-.144.41-.055A4.2,4.2,0,0,1-352.886,1114.2Zm70.586-1.392c.624-.784,1.237-.271,1.814,1.494Zm-91.8,1.6c.542-.187.708.507,1.028.8a.466.466,0,0,1,.059.677c-.177.225-.369.192-.516-.046A3.994,3.994,0,0,1-374.1,1114.4Zm-17.041.012c.463.189.83.314,1.009.835.075.219.328.434.094.694-.2.226-.426.118-.593-.13A3.961,3.961,0,0,1-391.141,1114.415Zm62.353-.032c.422-.08.675.246.966.4.256.131.436.347.2.764-.191.335-.4.4-.62.093A2.88,2.88,0,0,1-328.788,1114.383Zm56.967-1.292c.474.609,1.323.507,1.566,1.626A2.078,2.078,0,0,1-271.821,1113.091Zm-74.616,1.432a1.879,1.879,0,0,1,1.043.587.6.6,0,0,1-.011.73c-.164.3-.3.093-.422-.084A2.581,2.581,0,0,1-346.436,1114.524Zm-15.387-.945a2.335,2.335,0,0,1,1.749,1.649A7.015,7.015,0,0,1-361.823,1113.578Zm-31.014-.7c-.084.179.151.653-.206.569-.236-.056-.625.05-.68-.415a.647.647,0,0,1,.5-.744C-392.95,1112.236-392.822,1112.482-392.837,1112.875Zm23.022-.695c.934-.289,1.258,0,1.237,1.1Zm-5.5,1.444c-.317-.165-.762-.044-.791-.637-.012-.239.213-.537.425-.47C-375.26,1112.649-375.411,1113.229-375.312,1113.624Zm26.437,1.388a8.35,8.35,0,0,1-.563-.857c-.057-.111.043-.406.169-.368.274.083.615.142.73.543C-348.471,1114.567-348.669,1114.812-348.875,1115.011Zm-37.619-1.076c-.337-.294-.784-.239-.731-.937.011-.145.095-.372.246-.307C-386.606,1112.853-386.439,1113.226-386.494,1113.935Zm2.336-1.861c.181.1.461.088.361.559-.037.172.14.549-.2.483a.7.7,0,0,1-.526-.632C-384.578,1112.151-384.332,1112.168-384.158,1112.074Zm1.428,2.695a1.058,1.058,0,0,1,.574.825c.028.222-.066.46-.251.349a.948.948,0,0,1-.551-.869C-382.963,1114.866-382.923,1114.745-382.73,1114.769Zm1.735-1.1a.672.672,0,0,1-.911-.49c-.054-.15,0-.43.114-.427C-381.379,1112.767-381.181,1113.184-381,1113.671Zm109.87,2.713c.253-.372.063-.888.481-.961.082-.015.266.188.263.281C-270.4,1116.185-270.632,1116.357-271.125,1116.384Zm-95.838-1.278a1.7,1.7,0,0,1-.787-.9C-367.36,1114.292-367.059,1114.4-366.964,1115.106Zm92.8-.4c.113.058.2.117.172.267a.2.2,0,0,1-.145.13c-.126.012-.14-.132-.131-.258C-274.256,1114.754-274.228,1114.653-274.159,1114.7Zm-38.362-.241a.948.948,0,0,1,.115.29c0,.073-.07.146-.109.218a.69.69,0,0,1-.114-.235C-312.634,1114.662-312.571,1114.579-312.521,1114.46Zm-28.25-.828-.044.07a.7.7,0,0,1-.045-.124c0-.016.025-.043.038-.065Z" transform="translate(398.659 -1111.247)"/></svg>