<svg xmlns="http://www.w3.org/2000/svg" xmlns:xlink="http://www.w3.org/1999/xlink" width="76" height="76" viewBox="0 0 76 76"><defs><style>.a{fill:none;}.b{opacity:0.1;clip-path:url(#a);}.c{fill:#fff;}</style><clipPath id="a"><rect class="a" width="76" height="76"/></clipPath></defs><g class="b"><g transform="translate(-683 -591)"><circle class="c" cx="1" cy="1" r="1" transform="translate(683 591)"/></g><g transform="translate(-675 -591)"><circle class="c" cx="1" cy="1" r="1" transform="translate(683 591)"/></g><g transform="translate(-667 -591)"><circle class="c" cx="1" cy="1" r="1" transform="translate(683 591)"/></g><g transform="translate(-659 -591)"><circle class="c" cx="1" cy="1" r="1" transform="translate(683 591)"/></g><g transform="translate(-651 -591)"><circle class="c" cx="1" cy="1" r="1" transform="translate(683 591)"/></g><g transform="translate(-643 -591)"><circle class="c" cx="1" cy="1" r="1" transform="translate(683 591)"/></g><g transform="translate(-635 -591)"><circle class="c" cx="1" cy="1" r="1" transform="translate(683 591)"/></g><g transform="translate(-627 -591)"><circle class="c" cx="1" cy="1" r="1" transform="translate(683 591)"/></g><g transform="translate(-619 -591)"><circle class="c" cx="1" cy="1" r="1" transform="translate(683 591)"/></g><g transform="translate(-611 -591)"><circle class="c" cx="1" cy="1" r="1" transform="translate(683 591)"/></g><g transform="translate(-683 -583)"><circle class="c" cx="1" cy="1" r="1" transform="translate(683 591)"/></g><g transform="translate(-675 -583)"><circle class="c" cx="1" cy="1" r="1" transform="translate(683 591)"/></g><g transform="translate(-667 -583)"><circle class="c" cx="1" cy="1" r="1" transform="translate(683 591)"/></g><g transform="translate(-659 -583)"><circle class="c" cx="1" cy="1" r="1" transform="translate(683 591)"/></g><g transform="translate(-651 -583)"><circle class="c" cx="1" cy="1" r="1" transform="translate(683 591)"/></g><g transform="translate(-643 -583)"><circle class="c" cx="1" cy="1" r="1" transform="translate(683 591)"/></g><g transform="translate(-635 -583)"><circle class="c" cx="1" cy="1" r="1" transform="translate(683 591)"/></g><g transform="translate(-627 -583)"><circle class="c" cx="1" cy="1" r="1" transform="translate(683 591)"/></g><g transform="translate(-619 -583)"><circle class="c" cx="1" cy="1" r="1" transform="translate(683 591)"/></g><g transform="translate(-611 -583)"><circle class="c" cx="1" cy="1" r="1" transform="translate(683 591)"/></g><g transform="translate(-683 -575)"><circle class="c" cx="1" cy="1" r="1" transform="translate(683 591)"/></g><g transform="translate(-675 -575)"><circle class="c" cx="1" cy="1" r="1" transform="translate(683 591)"/></g><g transform="translate(-667 -575)"><circle class="c" cx="1" cy="1" r="1" transform="translate(683 591)"/></g><g transform="translate(-659 -575)"><circle class="c" cx="1" cy="1" r="1" transform="translate(683 591)"/></g><g transform="translate(-651 -575)"><circle class="c" cx="1" cy="1" r="1" transform="translate(683 591)"/></g><g transform="translate(-643 -575)"><circle class="c" cx="1" cy="1" r="1" transform="translate(683 591)"/></g><g transform="translate(-635 -575)"><circle class="c" cx="1" cy="1" r="1" transform="translate(683 591)"/></g><g transform="translate(-627 -575)"><circle class="c" cx="1" cy="1" r="1" transform="translate(683 591)"/></g><g transform="translate(-619 -575)"><circle class="c" cx="1" cy="1" r="1" transform="translate(683 591)"/></g><g transform="translate(-611 -575)"><circle class="c" cx="1" cy="1" r="1" transform="translate(683 591)"/></g><g transform="translate(-683 -567)"><circle class="c" cx="1" cy="1" r="1" transform="translate(683 591)"/></g><g transform="translate(-675 -567)"><circle class="c" cx="1" cy="1" r="1" transform="translate(683 591)"/></g><g transform="translate(-667 -567)"><circle class="c" cx="1" cy="1" r="1" transform="translate(683 591)"/></g><g transform="translate(-659 -567)"><circle class="c" cx="1" cy="1" r="1" transform="translate(683 591)"/></g><g transform="translate(-651 -567)"><circle class="c" cx="1" cy="1" r="1" transform="translate(683 591)"/></g><g transform="translate(-643 -567)"><circle class="c" cx="1" cy="1" r="1" transform="translate(683 591)"/></g><g transform="translate(-635 -567)"><circle class="c" cx="1" cy="1" r="1" transform="translate(683 591)"/></g><g transform="translate(-627 -567)"><circle class="c" cx="1" cy="1" r="1" transform="translate(683 591)"/></g><g transform="translate(-619 -567)"><circle class="c" cx="1" cy="1" r="1" transform="translate(683 591)"/></g><g transform="translate(-611 -567)"><circle class="c" cx="1" cy="1" r="1" transform="translate(683 591)"/></g><g transform="translate(-683 -559)"><circle class="c" cx="1" cy="1" r="1" transform="translate(683 591)"/></g><g transform="translate(-675 -559)"><circle class="c" cx="1" cy="1" r="1" transform="translate(683 591)"/></g><g transform="translate(-667 -559)"><circle class="c" cx="1" cy="1" r="1" transform="translate(683 591)"/></g><g transform="translate(-659 -559)"><circle class="c" cx="1" cy="1" r="1" transform="translate(683 591)"/></g><g transform="translate(-651 -559)"><circle class="c" cx="1" cy="1" r="1" transform="translate(683 591)"/></g><g transform="translate(-643 -559)"><circle class="c" cx="1" cy="1" r="1" transform="translate(683 591)"/></g><g transform="translate(-635 -559)"><circle class="c" cx="1" cy="1" r="1" transform="translate(683 591)"/></g><g transform="translate(-627 -559)"><circle class="c" cx="1" cy="1" r="1" transform="translate(683 591)"/></g><g transform="translate(-619 -559)"><circle class="c" cx="1" cy="1" r="1" transform="translate(683 591)"/></g><g transform="translate(-611 -559)"><circle class="c" cx="1" cy="1" r="1" transform="translate(683 591)"/></g><g transform="translate(-683 -551)"><circle class="c" cx="1" cy="1" r="1" transform="translate(683 591)"/></g><g transform="translate(-675 -551)"><circle class="c" cx="1" cy="1" r="1" transform="translate(683 591)"/></g><g transform="translate(-667 -551)"><circle class="c" cx="1" cy="1" r="1" transform="translate(683 591)"/></g><g transform="translate(-659 -551)"><circle class="c" cx="1" cy="1" r="1" transform="translate(683 591)"/></g><g transform="translate(-651 -551)"><circle class="c" cx="1" cy="1" r="1" transform="translate(683 591)"/></g><g transform="translate(-643 -551)"><circle class="c" cx="1" cy="1" r="1" transform="translate(683 591)"/></g><g transform="translate(-635 -551)"><circle class="c" cx="1" cy="1" r="1" transform="translate(683 591)"/></g><g transform="translate(-627 -551)"><circle class="c" cx="1" cy="1" r="1" transform="translate(683 591)"/></g><g transform="translate(-619 -551)"><circle class="c" cx="1" cy="1" r="1" transform="translate(683 591)"/></g><g transform="translate(-611 -551)"><circle class="c" cx="1" cy="1" r="1" transform="translate(683 591)"/></g><g transform="translate(-683 -543)"><circle class="c" cx="1" cy="1" r="1" transform="translate(683 591)"/></g><g transform="translate(-675 -543)"><circle class="c" cx="1" cy="1" r="1" transform="translate(683 591)"/></g><g transform="translate(-667 -543)"><circle class="c" cx="1" cy="1" r="1" transform="translate(683 591)"/></g><g transform="translate(-659 -543)"><circle class="c" cx="1" cy="1" r="1" transform="translate(683 591)"/></g><g transform="translate(-651 -543)"><circle class="c" cx="1" cy="1" r="1" transform="translate(683 591)"/></g><g transform="translate(-643 -543)"><circle class="c" cx="1" cy="1" r="1" transform="translate(683 591)"/></g><g transform="translate(-635 -543)"><circle class="c" cx="1" cy="1" r="1" transform="translate(683 591)"/></g><g transform="translate(-627 -543)"><circle class="c" cx="1" cy="1" r="1" transform="translate(683 591)"/></g><g transform="translate(-619 -543)"><circle class="c" cx="1" cy="1" r="1" transform="translate(683 591)"/></g><g transform="translate(-611 -543)"><circle class="c" cx="1" cy="1" r="1" transform="translate(683 591)"/></g><g transform="translate(-683 -535)"><circle class="c" cx="1" cy="1" r="1" transform="translate(683 591)"/></g><g transform="translate(-675 -535)"><circle class="c" cx="1" cy="1" r="1" transform="translate(683 591)"/></g><g transform="translate(-667 -535)"><circle class="c" cx="1" cy="1" r="1" transform="translate(683 591)"/></g><g transform="translate(-659 -535)"><circle class="c" cx="1" cy="1" r="1" transform="translate(683 591)"/></g><g transform="translate(-651 -535)"><circle class="c" cx="1" cy="1" r="1" transform="translate(683 591)"/></g><g transform="translate(-643 -535)"><circle class="c" cx="1" cy="1" r="1" transform="translate(683 591)"/></g><g transform="translate(-635 -535)"><circle class="c" cx="1" cy="1" r="1" transform="translate(683 591)"/></g><g transform="translate(-627 -535)"><circle class="c" cx="1" cy="1" r="1" transform="translate(683 591)"/></g><g transform="translate(-619 -535)"><circle class="c" cx="1" cy="1" r="1" transform="translate(683 591)"/></g><g transform="translate(-611 -535)"><circle class="c" cx="1" cy="1" r="1" transform="translate(683 591)"/></g><g transform="translate(-683 -527)"><circle class="c" cx="1" cy="1" r="1" transform="translate(683 591)"/></g><g transform="translate(-675 -527)"><circle class="c" cx="1" cy="1" r="1" transform="translate(683 591)"/></g><g transform="translate(-667 -527)"><circle class="c" cx="1" cy="1" r="1" transform="translate(683 591)"/></g><g transform="translate(-659 -527)"><circle class="c" cx="1" cy="1" r="1" transform="translate(683 591)"/></g><g transform="translate(-651 -527)"><circle class="c" cx="1" cy="1" r="1" transform="translate(683 591)"/></g><g transform="translate(-643 -527)"><circle class="c" cx="1" cy="1" r="1" transform="translate(683 591)"/></g><g transform="translate(-635 -527)"><circle class="c" cx="1" cy="1" r="1" transform="translate(683 591)"/></g><g transform="translate(-627 -527)"><circle class="c" cx="1" cy="1" r="1" transform="translate(683 591)"/></g><g transform="translate(-619 -527)"><circle class="c" cx="1" cy="1" r="1" transform="translate(683 591)"/></g><g transform="translate(-611 -527)"><circle class="c" cx="1" cy="1" r="1" transform="translate(683 591)"/></g><g transform="translate(-683 -519)"><circle class="c" cx="1" cy="1" r="1" transform="translate(683 591)"/></g><g transform="translate(-675 -519)"><circle class="c" cx="1" cy="1" r="1" transform="translate(683 591)"/></g><g transform="translate(-667 -519)"><circle class="c" cx="1" cy="1" r="1" transform="translate(683 591)"/></g><g transform="translate(-659 -519)"><circle class="c" cx="1" cy="1" r="1" transform="translate(683 591)"/></g><g transform="translate(-651 -519)"><circle class="c" cx="1" cy="1" r="1" transform="translate(683 591)"/></g><g transform="translate(-643 -519)"><circle class="c" cx="1" cy="1" r="1" transform="translate(683 591)"/></g><g transform="translate(-635 -519)"><circle class="c" cx="1" cy="1" r="1" transform="translate(683 591)"/></g><g transform="translate(-627 -519)"><circle class="c" cx="1" cy="1" r="1" transform="translate(683 591)"/></g><g transform="translate(-619 -519)"><circle class="c" cx="1" cy="1" r="1" transform="translate(683 591)"/></g><g transform="translate(-611 -519)"><circle class="c" cx="1" cy="1" r="1" transform="translate(683 591)"/></g></g></svg>