<svg xmlns="http://www.w3.org/2000/svg" width="24" height="24" viewBox="0 0 24 24">
  <g id="ic-email" transform="translate(1998 -1233)">
    <rect id="Rectangle_62" data-name="Rectangle 62" width="24" height="24" transform="translate(-1998 1233)" fill="none"/>
    <g id="email" transform="translate(-1998 1233)">
      <path id="Path_87" data-name="Path 87" d="M22.812,243.314v-5.13a1.659,1.659,0,0,1,.61-1.3l-.728-.545a1.668,1.668,0,0,0-.914-.335A1.69,1.69,0,0,0,20,237.692v5.622A4.688,4.688,0,0,0,24.687,248H27.5A4.688,4.688,0,0,1,22.812,243.314Z" transform="translate(-19.062 -224.939)" fill="#cee1f2"/>
      <path id="Path_88" data-name="Path 88" d="M18.375,24H5.625A5.631,5.631,0,0,1,0,18.375V12.753a2.592,2.592,0,0,1,.811-1.9,2.656,2.656,0,0,1,1.957-.725,2.611,2.611,0,0,1,1.424.519L9.72,14.789l.006,0a3.759,3.759,0,0,0,4.548,0l.006,0,5.525-4.14a2.614,2.614,0,0,1,1.427-.521,2.656,2.656,0,0,1,1.957.725,2.592,2.592,0,0,1,.811,1.9v5.622A5.631,5.631,0,0,1,18.375,24ZM2.633,12a.786.786,0,0,0-.532.214.723.723,0,0,0-.226.539v5.622a3.754,3.754,0,0,0,3.75,3.75h12.75a3.754,3.754,0,0,0,3.75-3.75V12.753a.723.723,0,0,0-.226-.539A.781.781,0,0,0,21.331,12a.732.732,0,0,0-.4.15l-5.519,4.136a5.639,5.639,0,0,1-6.816,0L3.07,12.15a.729.729,0,0,0-.4-.149H2.633ZM21.75,7.359V5.625A5.631,5.631,0,0,0,16.125,0H7.969A5.631,5.631,0,0,0,2.344,5.625V7.359a.938.938,0,0,0,1.875,0V5.625a3.754,3.754,0,0,1,3.75-3.75h8.156a3.754,3.754,0,0,1,3.75,3.75V7.359a.938.938,0,0,0,1.875,0Z" fill="#1428bf"/>
      <path id="Path_89" data-name="Path 89" d="M164,124.484h-5.062a.938.938,0,0,1,0-1.875H164a.938.938,0,0,1,0,1.875Zm3.281-4.547a.937.937,0,0,0-.937-.937h-7.406a.938.938,0,0,0,0,1.875h7.406A.937.937,0,0,0,167.281,119.938Z" transform="translate(-150.594 -113.422)" fill="#ff5cf0"/>
    </g>
  </g>
</svg>
