<svg xmlns="http://www.w3.org/2000/svg" width="24" height="24" viewBox="0 0 24 24">
  <g id="ic-tel" transform="translate(762 -1153)">
    <rect id="Rectangle_64" data-name="Rectangle 64" width="24" height="24" transform="translate(-762 1153)" fill="none"/>
    <g id="telephone" transform="translate(-762 1153)">
      <path id="Path_93" data-name="Path 93" d="M28.225,48.719C23.772,44.6,20.7,38.058,24.991,33.77c.277-.277.552-.5.846-.75a2.568,2.568,0,0,1,1.357-.585l-.735-.736A2.559,2.559,0,0,0,23,31.554c-.294.247-.1,0-.378.281-4.685,4.761-2.5,11.335,2.249,16.037C28.029,51,32,52.955,35.692,52.494A14.942,14.942,0,0,1,28.225,48.719Z" transform="translate(-19.084 -29.5)" fill="#cee1f2"/>
      <path id="Path_94" data-name="Path 94" d="M15.52,24.1a10.759,10.759,0,0,1-1.923-.177,16.736,16.736,0,0,1-8.471-4.785A17.027,17.027,0,0,1,.208,10.656,9.551,9.551,0,0,1,2.871,1.778c.292-.3.6-.583.92-.85a3.495,3.495,0,0,1,4.723.2l.012.012,1.586,1.648A3.425,3.425,0,0,1,8.982,8.372,7.57,7.57,0,0,0,7.73,8.99C6.857,9.88,6.3,11.325,9.567,14.6c1.06,1.062,2.63,2.473,4.019,2.473a2.22,2.22,0,0,0,1.581-.729,7.283,7.283,0,0,0,.579-1.2,3.418,3.418,0,0,1,5.586-1.151l1.629,1.576.012.011a3.5,3.5,0,0,1,.209,4.716c-.249.3-.514.589-.79.865A9.51,9.51,0,0,1,15.52,24.1ZM6.047,1.977A1.632,1.632,0,0,0,5,2.364c-.273.229-.538.474-.789.729a7.653,7.653,0,0,0-2.16,7.2,15.156,15.156,0,0,0,4.4,7.511,14.866,14.866,0,0,0,7.486,4.271,7.653,7.653,0,0,0,7.133-2.244c.236-.236.464-.486.677-.741a1.618,1.618,0,0,0-.091-2.186l-1.628-1.575-.012-.011a1.544,1.544,0,0,0-2.526.519,7.224,7.224,0,0,1-.965,1.8,4.07,4.07,0,0,1-2.935,1.307c-2.063,0-3.941-1.616-5.346-3.023a12.257,12.257,0,0,1-2.647-3.576,4.009,4.009,0,0,1,.834-4.7A7.444,7.444,0,0,1,8.274,6.636a1.551,1.551,0,0,0,.5-2.53l-.012-.012L7.182,2.447a1.606,1.606,0,0,0-1.135-.47Z" transform="translate(0 -0.1)" fill="#1428bf"/>
      <path id="Path_95" data-name="Path 95" d="M283.288,11.21a.938.938,0,0,1-.933-.853,9.357,9.357,0,0,0-8.483-8.483.937.937,0,0,1,.168-1.867,11.253,11.253,0,0,1,10.183,10.183.937.937,0,0,1-.85,1.018q-.043,0-.085,0Zm-7.3,0a.937.937,0,0,0,.593-1.186,3.793,3.793,0,0,0-2.308-2.368.938.938,0,0,0-.625,1.768,1.9,1.9,0,0,1,1.154,1.194.937.937,0,0,0,1.186.593Zm3.683-.008a.938.938,0,0,0,.8-1.061,7.552,7.552,0,0,0-6.373-6.373.938.938,0,0,0-.266,1.856,5.667,5.667,0,0,1,4.783,4.783.937.937,0,0,0,1.061.8Z" transform="translate(-260.227 -0.002)" fill="#df5cf0"/>
    </g>
  </g>
</svg>
