<svg xmlns="http://www.w3.org/2000/svg" width="24" height="24" viewBox="0 0 24 24">
  <g id="ic-web" transform="translate(1451 -1282)">
    <g id="internet" transform="translate(-1451 1282)">
      <path id="Path_90" data-name="Path 90" d="M22.812,31.062a11.064,11.064,0,0,1,9.656-10.974,11.062,11.062,0,1,0,0,21.948,11.064,11.064,0,0,1-9.656-10.974Z" transform="translate(-19.063 -19.063)" fill="#cee1f2"/>
      <path id="Path_91" data-name="Path 91" d="M20.25,12a.937.937,0,0,1-.937.938H17c-.013.417-.032.831-.061,1.238a.938.938,0,0,1-.934.871l-.068,0a.937.937,0,0,1-.869-1c.026-.364.044-.733.056-1.105H8.885a24.289,24.289,0,0,0,1.151,5.909.938.938,0,1,1-1.79.558,25.973,25.973,0,0,1-1.238-6.466H4.687a.938.938,0,0,1,0-1.875h2.32A25.858,25.858,0,0,1,8.253,4.595a.938.938,0,0,1,1.789.561,24.174,24.174,0,0,0-1.157,5.907h6.232a23.41,23.41,0,0,0-1.105-5.907A.938.938,0,0,1,15.8,4.595a25.185,25.185,0,0,1,1.194,6.468h2.318A.937.937,0,0,1,20.25,12Zm.235-8.485A12,12,0,0,0,3.515,20.485,11.922,11.922,0,0,0,12,24a12.153,12.153,0,0,0,1.524-.1.937.937,0,0,0-.236-1.86A10.281,10.281,0,0,1,12,22.125,10.125,10.125,0,1,1,22.125,12a10.28,10.28,0,0,1-.076,1.247.937.937,0,0,0,1.861.228A12.159,12.159,0,0,0,24,12a11.922,11.922,0,0,0-3.515-8.485Z" transform="translate(0 0)" fill="#1428bf"/>
      <path id="Path_92" data-name="Path 92" d="M337.938,342.375a.937.937,0,0,1-.937-.937v-2.625A2.816,2.816,0,0,1,339.813,336h2.672a.938.938,0,0,1,0,1.875h-2.672a.939.939,0,0,0-.937.938v2.625A.938.938,0,0,1,337.938,342.375Zm6.991,1.6a.938.938,0,0,0,0-1.326l-3.094-3.094a.937.937,0,1,0-1.326,1.326l3.094,3.094a.938.938,0,0,0,1.326,0Z" transform="translate(-321.203 -320.25)" fill="#ff5cf0"/>
    </g>
    <rect id="Rectangle_63" data-name="Rectangle 63" width="24" height="24" transform="translate(-1451 1282)" fill="none"/>
  </g>
</svg>
