<svg xmlns="http://www.w3.org/2000/svg" width="20" height="20" viewBox="0 0 20 20"><defs><style>.a{fill:#fff;}.b{opacity:0;}.c{fill:#e62b1e;}.d{fill:none;}</style></defs><g transform="translate(0 0)"><path class="a" d="M10,20A10,10,0,0,1,2.929,2.929,10,10,0,0,1,17.071,17.071,9.934,9.934,0,0,1,10,20ZM8.026,10.391v6.537h2.7V10.391h1.784l.236-2.3H10.73V6.744a.552.552,0,0,1,.574-.626h1.453V3.887l-2-.008A2.536,2.536,0,0,0,8.026,6.607V8.094H6.74v2.3Z"/></g><g class="b" transform="translate(0 0)"><path class="c" d="M10,20A10,10,0,0,1,2.929,2.929,10,10,0,0,1,17.071,17.071,9.934,9.934,0,0,1,10,20ZM8.026,10.391v6.537h2.7V10.391h1.784l.236-2.3H10.73V6.744a.552.552,0,0,1,.574-.626h1.453V3.887l-2-.008A2.536,2.536,0,0,0,8.026,6.607V8.094H6.74v2.3Z"/></g><rect class="d" width="20" height="20" transform="translate(0)"/></svg>